<svg width="24" height="24" viewBox="0 0 24 24" fill="none" xmlns="http://www.w3.org/2000/svg">
<path d="M10.4413 18.5C9.97166 18.5 9.62348 18.3369 9.30769 17.9719L5.35628 13.3435C5.09717 13.0562 5 12.7999 5 12.5125C5 11.8602 5.50202 11.3865 6.19838 11.3865C6.61134 11.3865 6.90283 11.5263 7.17004 11.8447L10.4089 15.7276L16.7571 6.09797C17.0486 5.66308 17.3401 5.5 17.8097 5.5C18.5061 5.5 19 5.96595 19 6.61051C19 6.85125 18.919 7.11529 18.7328 7.39486L11.583 17.9331C11.3158 18.3136 10.9352 18.5 10.4413 18.5Z" fill="#222A35"/>
<path d="M23 12C23 5.92487 18.0751 1 12 1C5.92487 1 1 5.92487 1 12C1 18.0751 5.92487 23 12 23V24C5.37258 24 0 18.6274 0 12C0 5.37258 5.37258 0 12 0C18.6274 0 24 5.37258 24 12C24 18.6274 18.6274 24 12 24V23C18.0751 23 23 18.0751 23 12Z" fill="#222A35"/>
</svg>
