<svg width="12" height="12" viewBox="0 0 12 12" fill="none" xmlns="http://www.w3.org/2000/svg">
<path d="M6.00306 2.79549C5.75209 2.79549 5.54396 2.88119 5.34808 3.08319L0.738731 7.7966C0.579577 7.95576 0.5 8.14552 0.5 8.37201C0.5 8.83111 0.867279 9.20451 1.32638 9.20451C1.55899 9.20451 1.76099 9.10656 1.92627 8.94129L6.00918 4.75431L10.0799 8.94129C10.2451 9.10656 10.4533 9.20451 10.6797 9.20451C11.1388 9.20451 11.5 8.83111 11.5 8.37201C11.5 8.14552 11.4265 7.95576 11.2674 7.7966L6.65804 3.08319C6.46216 2.88731 6.25403 2.79549 6.00306 2.79549Z" fill="#FF4252"/>
</svg>
