<svg width="16" height="16" viewBox="0 0 16 16" fill="none" xmlns="http://www.w3.org/2000/svg">
<g clip-path="url(#clip0_1598_18619)">
<path d="M15.2001 4.5422C14.9156 4.23998 14.5156 4.07998 14.009 4.07998H12.8534C12.9867 3.91109 13.0934 3.73331 13.1734 3.52887C13.289 3.25331 13.3512 2.9422 13.3512 2.60442C13.3512 2.09776 13.2267 1.64442 12.9867 1.25331C12.7467 0.8622 12.409 0.5422 11.9912 0.319978C11.5734 0.0977555 11.1112 -0.00891113 10.6134 -0.00891113C10.0534 -0.00891113 9.54674 0.1422 9.11118 0.435533C8.74674 0.684422 8.46229 1.03109 8.26674 1.45776C8.06229 1.03109 7.77785 0.684422 7.4134 0.435533C6.97785 0.1422 6.47118 -0.00891113 5.92007 -0.00891113C5.42229 -0.00891113 4.95118 0.106644 4.54229 0.319978C4.12452 0.5422 3.79563 0.853311 3.54674 1.24442C3.29785 1.63553 3.18229 2.09776 3.18229 2.59553C3.18229 2.93331 3.24452 3.24442 3.36007 3.51998C3.44007 3.71553 3.54674 3.9022 3.68007 4.07109H2.52452C2.03563 4.07109 1.63563 4.2222 1.34229 4.52442C1.05785 4.82664 0.906738 5.23553 0.906738 5.75109V7.67109C0.906738 8.08887 0.995627 8.44442 1.18229 8.71998C1.36007 8.98664 1.61785 9.17331 1.96452 9.2622V13.6978C1.96452 14.4355 2.16896 15.0044 2.56007 15.3866C2.96007 15.7778 3.52896 15.9733 4.26674 15.9733H12.2578C12.9867 15.9733 13.5645 15.7778 13.9645 15.3866C14.3645 14.9955 14.569 14.4266 14.569 13.6978V9.2622C14.9067 9.17331 15.1734 8.98664 15.3512 8.71109C15.5378 8.43553 15.6267 8.07998 15.6267 7.6622V5.7422C15.6267 5.22664 15.4845 4.81776 15.209 4.51553L15.2001 4.5422ZM13.0045 9.37776V13.7155C13.0045 13.9911 12.9334 14.2044 12.7912 14.3378C12.649 14.48 12.4445 14.5511 12.169 14.5511H9.07563V9.37776H12.9956H13.0045ZM14.0623 5.94664V7.51998C14.0623 7.67109 14.0356 7.77776 13.9734 7.83109C13.9112 7.89331 13.8134 7.91998 13.6534 7.91998H9.07563V5.52887H13.6534C13.8045 5.52887 13.9112 5.55553 13.9734 5.61776C14.0356 5.67998 14.0623 5.78664 14.0623 5.93776V5.94664ZM11.3423 3.68887C11.0401 3.95553 10.6134 4.08887 10.0534 4.08887H9.02229V3.19109C9.02229 2.68442 9.16452 2.27553 9.45785 1.9822C9.75118 1.67998 10.089 1.53776 10.4978 1.53776C10.8801 1.53776 11.1912 1.64442 11.4312 1.85776C11.6712 2.07109 11.7778 2.35553 11.7778 2.72887C11.7778 3.1022 11.6356 3.4222 11.3334 3.68887H11.3423ZM7.43118 9.37776V14.5511H4.32896C4.06229 14.5511 3.84896 14.48 3.70674 14.3378C3.56452 14.1955 3.49341 13.9822 3.49341 13.7155V9.37776H7.43118ZM4.72007 2.72887C4.72007 2.35553 4.83563 2.07109 5.06674 1.85776C5.30674 1.64442 5.61785 1.53776 5.99118 1.53776C6.40896 1.53776 6.74674 1.67998 7.04007 1.9822C7.33341 2.27553 7.47563 2.68442 7.47563 3.19109V4.08887H6.43563C5.88452 4.08887 5.45785 3.95553 5.15563 3.68887C4.85341 3.4222 4.71118 3.11109 4.71118 2.72887H4.72007ZM7.43118 5.52887V7.91998H2.8534C2.70229 7.91998 2.58674 7.89331 2.5334 7.83109C2.48007 7.76887 2.44452 7.6622 2.44452 7.5022V5.93776C2.44452 5.78664 2.47118 5.67109 2.5334 5.60887C2.58674 5.55553 2.69341 5.51998 2.8534 5.51998H7.43118V5.52887Z" fill="#364153"/>
</g>
<defs>
<clipPath id="clip0_1598_18619">
<rect width="16" height="16" fill="white"/>
</clipPath>
</defs>
</svg>
