<svg width="18" height="18" viewBox="0 0 18 18" fill="none" xmlns="http://www.w3.org/2000/svg">
<path d="M16.822 1.91351C15.242 -0.26649 8.50196 -0.10649 6.01196 0.13351C1.33196 0.59351 0.441961 1.78351 0.111961 6.61351C-0.0980395 9.73351 -0.37804 16.1235 3.03196 17.3135C5.67196 18.2335 15.112 18.5835 16.822 16.0935C18.362 13.8435 18.422 4.10351 16.822 1.91351ZM1.83196 6.12351C1.83196 6.12351 1.91196 6.22351 1.96196 6.26351C2.44196 6.75351 3.16196 7.23351 4.10196 7.23351C5.10196 7.23351 5.82196 6.75351 6.30196 6.25351C6.41196 6.14351 6.50196 6.02351 6.58196 5.92351C6.67196 6.03351 6.77196 6.15351 6.88196 6.26351C7.36196 6.75351 8.08196 7.23351 9.02196 7.23351C10.022 7.23351 10.742 6.75351 11.222 6.25351C11.332 6.13351 11.432 6.01351 11.512 5.90351C11.602 6.02351 11.712 6.14351 11.832 6.26351C12.312 6.75351 13.032 7.23351 13.972 7.23351C14.972 7.23351 15.692 6.75351 16.172 6.25351C16.202 6.22351 16.232 6.18351 16.262 6.15351C16.392 7.69351 16.402 9.50351 16.312 11.0635H1.76196C1.66196 9.46351 1.68196 7.65351 1.83196 6.12351ZM15.522 2.98351C15.712 3.25351 15.872 3.71351 15.992 4.28351C15.992 4.28351 15.952 4.36351 15.922 4.42351C15.852 4.54351 15.742 4.70351 15.582 4.87351C15.272 5.20351 14.752 5.57351 13.972 5.57351C13.422 5.57351 12.982 5.35351 12.652 5.08351C12.762 4.38351 12.672 2.94351 12.612 1.89351C13.972 2.07351 15.112 2.40351 15.532 2.99351L15.522 2.98351ZM10.892 1.73351V4.53351C10.822 4.63351 10.742 4.74351 10.632 4.87351C10.322 5.20351 9.80196 5.57351 9.02196 5.57351C8.31196 5.57351 7.80196 5.21351 7.45196 4.86351C7.37196 4.78351 7.31196 4.71351 7.25196 4.63351C7.29196 3.83351 7.21196 2.63351 7.16196 1.75351C8.15196 1.70351 9.53196 1.67351 10.892 1.74351V1.73351ZM5.44196 1.88351V5.10351C5.13196 5.35351 4.69196 5.56351 4.09196 5.56351C3.38196 5.56351 2.87196 5.20351 2.52196 4.85351C2.35196 4.67351 2.22196 4.50351 2.14196 4.37351C2.12196 4.33351 2.11196 4.31351 2.09196 4.29351C2.24196 3.61351 2.43196 3.08351 2.66196 2.81351C3.22196 2.17351 4.42196 1.97351 5.43196 1.87351L5.44196 1.88351ZM15.872 14.2635C15.282 16.0935 12.972 16.1435 11.322 16.2635C9.55196 16.3935 3.58196 16.4635 2.54196 15.0135C2.26196 14.6135 2.04196 13.7435 1.90196 12.6335C4.49196 12.8535 13.182 12.6035 16.172 12.5935C16.092 13.3035 15.992 13.8935 15.872 14.2635Z" fill="#364153"/>
</svg>
