<svg width="16" height="16" viewBox="0 0 16 16" fill="none" xmlns="http://www.w3.org/2000/svg">
<path d="M8.07227 0.00427246C8.13448 0.00874735 8.19943 0.0163651 8.2666 0.0267334C8.30122 0.0320762 8.33622 0.0394135 8.37207 0.0462646C8.40629 0.0528045 8.44127 0.0588926 8.47656 0.0667725C8.4976 0.07147 8.51863 0.0772332 8.54004 0.0823975C8.66497 0.112532 8.79633 0.149504 8.93262 0.194702C8.97866 0.209972 9.02508 0.226649 9.07227 0.24353C9.10896 0.256658 9.14626 0.269497 9.18359 0.283569C9.21957 0.297129 9.25545 0.312124 9.29199 0.326538C9.34185 0.346203 9.39252 0.36588 9.44336 0.387085C9.49253 0.407594 9.54178 0.429642 9.5918 0.451538C9.62243 0.464951 9.65364 0.47766 9.68457 0.491577C9.7406 0.516788 9.7966 0.543868 9.85352 0.570679C9.88962 0.58769 9.92646 0.603828 9.96289 0.62146C10.1017 0.688618 10.2413 0.76274 10.3838 0.838257C10.4863 0.892601 10.5896 0.948981 10.6934 1.0072C10.7808 1.05627 10.869 1.10602 10.957 1.15759C11.0615 1.21882 11.1657 1.28263 11.2705 1.34705C11.3555 1.39932 11.4415 1.4511 11.5264 1.50525C11.6292 1.57087 11.7308 1.63936 11.833 1.7074C11.9232 1.76744 12.0143 1.8264 12.1035 1.88806C12.2066 1.95926 12.3079 2.03283 12.4092 2.10583C12.4881 2.16267 12.567 2.21901 12.6445 2.27673C12.7485 2.35416 12.8502 2.43345 12.9512 2.51208C13.0307 2.57404 13.1101 2.63516 13.1875 2.69763C13.2735 2.76712 13.3565 2.83872 13.4395 2.90857C13.5273 2.98258 13.6154 3.05422 13.6992 3.1283C13.7171 3.14406 13.7343 3.16039 13.752 3.17615C13.8861 3.29593 14.015 3.415 14.1367 3.53357C14.1705 3.56648 14.2036 3.59946 14.2363 3.6322C14.2738 3.66975 14.3116 3.70624 14.3477 3.74353C14.3693 3.76587 14.3901 3.78868 14.4111 3.81091C14.4499 3.8518 14.4876 3.89251 14.5244 3.93298C14.5543 3.96581 14.5828 3.9991 14.6113 4.03162C14.6419 4.06645 14.6722 4.10069 14.7012 4.13513C14.7292 4.16836 14.7557 4.20192 14.7822 4.23474C14.8094 4.26844 14.8368 4.30112 14.8623 4.33435C14.88 4.35734 14.8962 4.38094 14.9131 4.40369C14.9435 4.44469 14.9733 4.48462 15.001 4.52478C15.1281 4.7096 15.2256 4.88496 15.2881 5.04724C16.0439 7.01667 16.0353 13.1785 14.4932 14.7211L14.3574 14.8402C14.2592 14.9175 14.1425 14.9933 14.0176 15.0658C14.0098 15.0703 14.002 15.075 13.9941 15.0795C13.9423 15.1091 13.8889 15.1375 13.835 15.1654C13.8213 15.1725 13.8077 15.1799 13.7939 15.1869C13.7536 15.2073 13.7126 15.2263 13.6719 15.2455C13.5718 15.2928 13.4716 15.3362 13.375 15.3744C13.2529 15.4227 13.1375 15.4647 13.0352 15.4935C10.7229 16.1532 3.39617 16.39 1.60742 14.8031C1.52116 14.7267 1.44166 14.6355 1.36426 14.5345C1.34877 14.5143 1.33155 14.4951 1.31641 14.474C1.29494 14.444 1.27565 14.412 1.25488 14.3802C1.22385 14.3328 1.19258 14.2841 1.16309 14.2328C1.16055 14.2284 1.15877 14.2235 1.15625 14.2191C1.12884 14.1709 1.10031 14.1221 1.07422 14.0707L1.05957 14.0414C1.0407 14.0034 1.02404 13.9638 1.00586 13.9242C0.989697 13.889 0.971673 13.8542 0.956055 13.8177C0.938153 13.776 0.921489 13.7331 0.904297 13.6898C0.884866 13.6409 0.865214 13.5912 0.84668 13.5404C0.83778 13.516 0.829984 13.491 0.821289 13.4662C0.767399 13.3123 0.717048 13.1505 0.670898 12.9818C0.654904 12.9233 0.639108 12.8641 0.624023 12.8041C0.612588 12.7586 0.600762 12.7128 0.589844 12.6664C0.57413 12.5996 0.560552 12.5317 0.545898 12.4633C0.537981 12.4263 0.529095 12.3893 0.521484 12.3519C0.507406 12.2827 0.494484 12.2126 0.481445 12.142C0.472308 12.0925 0.462735 12.0427 0.454102 11.9926C0.446029 11.9456 0.4383 11.8984 0.430664 11.851C0.420051 11.785 0.409191 11.7186 0.399414 11.6517C0.390487 11.5906 0.383238 11.529 0.375 11.4672C0.353827 11.3083 0.334097 11.1474 0.317383 10.9847C0.302254 10.8375 0.29185 10.6888 0.280273 10.5394C0.272068 10.4336 0.2633 10.3275 0.256836 10.2211C0.249105 10.0937 0.243574 9.966 0.238281 9.83826C0.233097 9.71318 0.227513 9.58814 0.224609 9.46326C0.221683 9.33727 0.221365 9.21153 0.220703 9.0863C0.220106 8.97383 0.219517 8.8618 0.220703 8.75037C0.222042 8.62479 0.224969 8.50004 0.228516 8.37634C0.232104 8.25112 0.235421 8.12697 0.241211 8.00427C0.246167 7.8993 0.25324 7.79546 0.259766 7.69275C0.267789 7.56642 0.276776 7.44197 0.287109 7.3197C0.295381 7.22185 0.304743 7.12548 0.314453 7.03064C0.326651 6.91148 0.339113 6.79479 0.353516 6.68103C0.373005 6.52711 0.392647 6.3782 0.416016 6.23572C0.437706 6.10345 0.462421 5.97676 0.487305 5.85583C0.551995 5.54147 0.626429 5.26765 0.710938 5.04724C1.37057 3.33127 6.03048 0.0613995 7.88965 0.000366211L8.07227 0.00427246ZM10.8135 11.4935C10.651 11.0874 10.1903 10.89 9.78418 11.0521V11.0511H9.78613L9.79004 11.0492C9.78211 11.0517 9.76814 11.0556 9.74902 11.0609C9.69667 11.0755 9.60151 11.0994 9.45801 11.1244C9.17014 11.1745 8.68719 11.2298 7.96484 11.2299C7.24294 11.2298 6.76055 11.1744 6.47266 11.1244C6.32895 11.0994 6.23301 11.0755 6.18066 11.0609C6.16128 11.0555 6.14748 11.0517 6.13965 11.0492L6.1416 11.0502L6.14453 11.0511L6.14551 11.0521C5.7395 10.8904 5.27956 11.0876 5.11719 11.4935C4.95484 11.8997 5.15241 12.3604 5.55859 12.5228V12.5238H5.56055L5.56348 12.5258C5.56544 12.5265 5.56811 12.5269 5.57031 12.5277C5.57485 12.5295 5.58027 12.5315 5.58594 12.5336C5.59739 12.5378 5.61177 12.5428 5.62793 12.5482C5.6604 12.5592 5.70259 12.5727 5.75488 12.5873C5.86029 12.6167 6.00775 12.6513 6.20117 12.6849C6.5881 12.7522 7.16192 12.8148 7.96484 12.8148C8.76811 12.8148 9.34253 12.7522 9.72949 12.6849C9.92294 12.6513 10.0704 12.6167 10.1758 12.5873C10.2281 12.5727 10.2703 12.5592 10.3027 12.5482C10.319 12.5427 10.3333 12.5378 10.3447 12.5336C10.3504 12.5315 10.3558 12.5294 10.3604 12.5277C10.3623 12.527 10.3644 12.5264 10.3662 12.5258C10.3671 12.5253 10.3683 12.5241 10.3691 12.5238H10.3711L10.0781 11.7875L10.3721 12.5228C10.7781 12.3603 10.9757 11.8996 10.8135 11.4935ZM6.13379 11.0472C6.13512 11.0477 6.13724 11.0484 6.13965 11.0492L6.13867 11.0482C6.13654 11.0474 6.13398 11.0467 6.13281 11.0463L6.13379 11.0472ZM9.79199 11.0482L9.79004 11.0492C9.79287 11.0483 9.79544 11.0477 9.79688 11.0472V11.0463C9.79581 11.0467 9.79405 11.0474 9.79199 11.0482Z" fill="#364153"/>
</svg>
