<svg width="16" height="16" viewBox="0 0 16 16" fill="none" xmlns="http://www.w3.org/2000/svg">
<path d="M2.29898 16C0.805031 16 0 15.1972 0 13.7007V2.30708C0 0.810597 0.805031 0 2.29898 0H13.6933C15.2027 0 16 0.810597 16 2.30708V13.7007C16 15.205 15.2027 16 13.6933 16H2.29898ZM1.55588 2.47076V11.3427L3.26657 9.79947C3.54523 9.55005 3.80842 9.42534 4.11805 9.42534C4.44315 9.42534 4.75278 9.55005 5.03145 9.80726L6.26996 10.9296L9.28882 8.20945C9.60619 7.92886 9.9313 7.81194 10.2951 7.81194C10.6512 7.81194 11.0073 7.93665 11.3014 8.20945L14.4441 11.1868V2.47076C14.4441 1.86281 14.1422 1.56663 13.5772 1.56663H2.43058C1.85776 1.56663 1.55588 1.87061 1.55588 2.47076ZM4.89982 6.33277C4.0019 6.33277 3.27428 5.59232 3.27428 4.6804C3.27428 3.79186 4.0019 3.05141 4.89982 3.05141C5.79 3.05141 6.52537 3.79186 6.52537 4.6804C6.52537 5.59232 5.79 6.33277 4.89982 6.33277Z" fill="#222A35"/>
</svg>
