<svg width="18" height="18" viewBox="0 0 18 18" fill="none" xmlns="http://www.w3.org/2000/svg">
<path d="M9.00229 11.9475C8.52129 11.9475 8.11809 11.5363 8.11809 11.0553V4.34334L8.20533 2.87397L7.6866 3.51126L6.31196 4.99987C6.1587 5.17543 5.92763 5.27403 5.70599 5.27403C5.26271 5.27403 4.91846 4.95177 4.91846 4.49004C4.91846 4.25436 5.01513 4.07881 5.16839 3.91287L8.33737 0.803379C8.55901 0.577322 8.76886 0.500366 8.99993 0.500366C9.23101 0.500366 9.45265 0.579727 9.67193 0.803379L12.8338 3.91047C12.9965 4.0764 13.0932 4.25436 13.0932 4.48763C13.0932 4.94937 12.7277 5.27162 12.2962 5.27162C12.0746 5.27162 11.853 5.17302 11.6997 4.99747L10.3251 3.50885L9.80633 2.87156L9.89357 4.34094V11.0553C9.89357 11.5363 9.49037 11.9475 8.99993 11.9475H9.00229Z" fill="#364153"/>
<path d="M17.1819 8.62646C16.7386 8.62646 16.3755 8.98479 16.3637 9.4369C16.3189 11.3055 16.142 13.0226 15.8874 13.8138C15.3003 15.6222 12.9849 15.6679 11.3343 15.7882C9.56358 15.918 3.58401 15.9878 2.54891 14.5569C2.04904 13.8667 1.76138 11.7384 1.70714 9.44893C1.69536 8.99441 1.3346 8.63127 0.888963 8.63127H0.818226C0.365515 8.62646 -0.00467118 9.00403 4.45612e-05 9.46817C0.0354127 12.5031 0.584797 15.9805 3.02991 16.8198C5.67309 17.7289 15.1258 18.068 16.8376 15.6126C17.5308 14.6146 17.9246 12.1207 18.0024 9.4826C18.0166 9.01365 17.644 8.62646 17.1842 8.62646H17.1819Z" fill="#364153"/>
</svg>
