<svg width="16" height="16" viewBox="0 0 16 16" fill="none" xmlns="http://www.w3.org/2000/svg">
<path d="M14.4941 14.7216C14.1772 15.0385 13.4776 15.3695 13.0363 15.4939C10.7241 16.1535 3.39777 16.3906 1.60902 14.8037C-0.057653 13.3272 -0.0482632 7.03139 0.712305 5.04781C1.37193 3.33183 6.03159 0.0618588 7.89075 0.000825556C9.74992 -0.0602077 14.6091 3.27784 15.2899 5.04781C16.0457 7.0173 16.0363 13.1793 14.4941 14.7216ZM7.71235 1.46562C6.5715 1.59708 2.6818 4.31541 2.18415 5.34828C1.47757 6.81777 1.41888 12.7216 2.60668 13.7427C3.15364 14.2122 5.86257 14.5338 6.70061 14.5784C8.06681 14.6488 12.8415 14.5596 13.6068 13.4845C14.5504 12.1558 14.5669 6.84594 13.818 5.34828C13.2077 4.13231 9.11611 1.30365 7.71235 1.46562Z" fill="#364153"/>
<path d="M8.07378 0.00488281C10.0498 0.147021 14.6303 3.33319 15.2899 5.04781C16.0457 7.0173 16.0363 13.1793 14.4941 14.7216L14.3589 14.8408C14.0068 15.1182 13.4225 15.385 13.0363 15.4939C10.7241 16.1535 3.39777 16.3906 1.60902 14.8037C-0.00550771 13.3733 -0.0473139 7.42012 0.643119 5.24609L0.712305 5.04781C1.37193 3.33183 6.03159 0.0618588 7.89075 0.000825556L8.07378 0.00488281ZM7.89898 0.264648C7.49197 0.278135 6.89352 0.472958 6.19195 0.811523C5.49887 1.14601 4.73409 1.60681 4.00347 2.12012C3.27281 2.63346 2.5819 3.19583 2.0357 3.73242C1.48233 4.27608 1.10209 4.76916 0.958549 5.14258C0.781468 5.60457 0.641152 6.34155 0.560111 7.22559C0.47954 8.10458 0.45945 9.1109 0.514213 10.1016C0.569043 11.0932 0.698191 12.0614 0.913627 12.8672C1.13193 13.6837 1.42733 14.2907 1.78374 14.6064C2.17463 14.953 2.9075 15.2259 3.87456 15.415C4.82945 15.6018 5.96926 15.6994 7.13238 15.7275C9.46588 15.7839 11.8447 15.5592 12.9634 15.2402L12.9644 15.2393C13.1652 15.1827 13.4346 15.0759 13.6919 14.9443C13.9526 14.811 14.1778 14.6644 14.3072 14.5352C14.6401 14.2022 14.9156 13.5864 15.1187 12.7725C15.3193 11.9686 15.44 11.0099 15.4898 10.0312C15.5395 9.05359 15.5181 8.06283 15.438 7.19727C15.3676 6.43582 15.2533 5.78505 15.108 5.32715L15.0435 5.14258C14.8951 4.75668 14.4994 4.2491 13.9244 3.69336C13.3569 3.14492 12.6397 2.57305 11.8834 2.05566C11.1267 1.53812 10.3365 1.07928 9.62554 0.754883C8.90442 0.425866 8.29907 0.251514 7.89898 0.264648ZM7.68218 1.20312C7.9035 1.17761 8.15722 1.2122 8.41949 1.28027C8.68484 1.34918 8.97623 1.4574 9.27984 1.5918C9.88729 1.86072 10.5621 2.24514 11.2076 2.66992C11.8536 3.09507 12.477 3.56468 12.9791 4.00781C13.4721 4.44297 13.8769 4.87634 14.0543 5.22949C14.2626 5.64641 14.406 6.29767 14.4957 7.03223C14.5864 7.7754 14.6253 8.63389 14.6109 9.48438C14.5965 10.3344 14.5293 11.1835 14.4039 11.9082C14.2804 12.6213 14.0945 13.2539 13.8218 13.6377C13.6913 13.821 13.491 13.9636 13.2662 14.0781C13.0384 14.1942 12.7656 14.2911 12.4673 14.373C11.8705 14.5371 11.1424 14.649 10.4058 14.7236C8.93192 14.8729 7.38313 14.8777 6.68706 14.8418C6.2565 14.8188 5.35916 14.7261 4.50054 14.5801C4.07082 14.507 3.64423 14.4198 3.28765 14.3193C3.10956 14.2692 2.9446 14.2146 2.80328 14.1553C2.6655 14.0974 2.53402 14.0281 2.43511 13.9434C2.24246 13.7777 2.09307 13.5311 1.97515 13.252C1.85566 12.9691 1.75956 12.631 1.68218 12.2607C1.52741 11.5202 1.44444 10.6239 1.42144 9.7207C1.39843 8.81646 1.43526 7.89656 1.523 7.10742C1.60966 6.32817 1.74838 5.6441 1.94585 5.2334C2.02431 5.07058 2.1599 4.89365 2.32183 4.71387C2.48662 4.53091 2.69157 4.33213 2.92242 4.12695C3.38421 3.71654 3.96069 3.26926 4.55523 2.85254C5.14994 2.43571 5.76742 2.04533 6.31109 1.75C6.58263 1.6025 6.83907 1.47741 7.06695 1.38379C7.29117 1.2917 7.5036 1.2237 7.68218 1.20312ZM7.71235 1.46562L7.59722 1.48535C6.33113 1.76561 2.66621 4.34776 2.18415 5.34828L2.11968 5.49902C1.47509 7.18261 1.45607 12.7535 2.60668 13.7427C3.15364 14.2122 5.86257 14.5338 6.70061 14.5784C8.02424 14.6466 12.5458 14.5646 13.523 13.582L13.6068 13.4845C14.5207 12.1972 14.565 7.17466 13.8863 5.5L13.818 5.34828C13.2077 4.13231 9.11611 1.30365 7.71235 1.46562Z" fill="#364153"/>
<path d="M9.78533 11.0526C10.1915 10.8903 10.6522 11.0879 10.8146 11.494C10.977 11.9002 10.7794 12.3608 10.3732 12.5233L10.0793 11.788L10.3722 12.5243H10.3703C10.3694 12.5246 10.3683 12.5259 10.3674 12.5262C10.3656 12.5269 10.3635 12.5274 10.3615 12.5282C10.3569 12.5299 10.3516 12.5319 10.3459 12.534C10.3344 12.5383 10.3202 12.5432 10.3039 12.5487C10.2714 12.5596 10.2293 12.5731 10.1769 12.5878C10.0715 12.6172 9.92416 12.6518 9.73064 12.6854C9.34365 12.7527 8.76935 12.8153 7.96599 12.8153C7.16293 12.8153 6.58925 12.7527 6.20232 12.6854C6.00877 12.6518 5.86145 12.6172 5.75603 12.5878C5.70363 12.5731 5.66158 12.5596 5.62908 12.5487C5.61282 12.5432 5.59857 12.5383 5.58708 12.534C5.58133 12.5319 5.57604 12.5299 5.57146 12.5282C5.56918 12.5273 5.56662 12.527 5.56462 12.5262C5.56369 12.5259 5.56257 12.5246 5.56169 12.5243H5.55974V12.5233C5.15354 12.3608 4.95595 11.9002 5.11833 11.494C5.2807 11.0881 5.74064 10.8908 6.14665 11.0526L6.14568 11.0516L6.14275 11.0506L6.1408 11.0497C6.14859 11.0522 6.16225 11.0559 6.18181 11.0614C6.23411 11.076 6.32991 11.0998 6.4738 11.1249C6.76167 11.1749 7.24392 11.2303 7.96599 11.2303C8.68844 11.2303 9.17126 11.1749 9.45915 11.1249C9.60274 11.0999 9.6978 11.076 9.75017 11.0614C9.76936 11.056 9.78324 11.0522 9.79119 11.0497L9.78728 11.0516H9.78533V11.0526ZM6.13982 11.0487L6.1408 11.0497C6.13826 11.0489 6.13627 11.0482 6.13494 11.0477L6.13396 11.0467C6.13504 11.0471 6.13755 11.0478 6.13982 11.0487ZM9.79802 11.0477C9.79657 11.0482 9.79407 11.0487 9.79119 11.0497L9.79314 11.0487C9.79525 11.0479 9.79694 11.0471 9.79802 11.0467V11.0477Z" fill="#364153"/>
</svg>
