<?xml version="1.0" encoding="UTF-8"?>
<svg id="Layer_1" xmlns="http://www.w3.org/2000/svg" version="1.1" viewBox="0 0 16 16">
  <!-- Generator: Adobe Illustrator 30.1.0, SVG Export Plug-In . SVG Version: 2.1.1 Build 136)  -->
  <defs>
    <style>
      .st0 {
        fill: #364153;
      }
    </style>
  </defs>
  <path class="st0" d="M14.87,3.5c-.21,0-.39.11-.53.35l-2.53,4.07-1.19-1.5c-.16-.21-.33-.28-.53-.28-.33,0-.6.26-.6.6,0,.17.06.31.17.46l1.53,1.86c.19.23.38.33.63.33s.46-.12.6-.34l2.91-4.53c.09-.14.17-.3.17-.45,0-.34-.31-.57-.63-.57Z"/>
  <path class="st0" d="M6.29,8.78c-3.51,0-5.79,2.38-5.79,4.21,0,.78.56,1.16,1.71,1.16h8.16c1.15,0,1.71-.37,1.71-1.16,0-1.83-2.28-4.21-5.79-4.21ZM10.54,12.96H2.03c-.15,0-.2-.05-.2-.17,0-.97,1.6-2.8,4.46-2.8s4.46,1.83,4.46,2.8c0,.12-.06.17-.21.17Z"/>
  <path class="st0" d="M6.3,8.03c1.6,0,2.89-1.4,2.89-3.13s-1.29-3.06-2.89-3.06-2.89,1.37-2.89,3.07,1.3,3.12,2.89,3.12ZM6.3,3.04c.9,0,1.64.79,1.64,1.86s-.75,1.94-1.64,1.94-1.65-.83-1.65-1.93.75-1.87,1.65-1.87Z"/>
</svg>