<svg width="16" height="16" viewBox="0 0 16 16" fill="none" xmlns="http://www.w3.org/2000/svg">
<path d="M1.56038 12.6098C0.853461 12.2163 0.5 11.8083 0.5 10.7735V4.8858C0.5 4.1134 0.794551 3.6179 1.44993 3.25356L6.62666 0.382557C7.5324 -0.127519 8.4676 -0.127519 9.37334 0.382557L14.5501 3.25356C15.2054 3.6179 15.5 4.1134 15.5 4.8858V10.7735C15.5 11.8083 15.1465 12.2163 14.4396 12.6098L8.61487 15.8306C8.2025 16.0565 7.79013 16.0565 7.38513 15.8306L1.56038 12.6098ZM11.4499 5.31572L13.4455 4.20084L8.79161 1.60674C8.25405 1.30069 7.74595 1.30798 7.20839 1.60674L5.98601 2.28441L11.4499 5.31572ZM7.99632 7.22487L10.0655 6.07355L4.60898 3.04953L2.55449 4.20084L7.99632 7.22487ZM2.35567 11.4876L7.31885 14.2639V8.41262L1.81075 5.33758V10.6497C1.81075 11.0359 1.95066 11.269 2.35567 11.4876ZM13.6443 11.4876C14.0493 11.269 14.1892 11.0359 14.1892 10.6497V5.33758L8.68115 8.41262V14.2639L13.6443 11.4876Z" fill="#222A35"/>
</svg>
