<svg width="19" height="18" viewBox="0 0 19 18" fill="none" xmlns="http://www.w3.org/2000/svg">
<path d="M6.22266 0.134277C8.80047 -0.106105 15.7769 -0.267797 17.4209 1.90674L17.418 1.90967C19.0729 4.093 19.0142 13.836 17.418 16.0864C15.6475 18.5767 5.86962 18.2325 3.13574 17.3101C-0.392 16.1217 -0.101838 9.72586 0.116211 6.60889C0.454481 1.78107 1.3752 0.587154 6.22266 0.134277ZM1.79199 7.49365C1.64906 10.5492 1.94877 14.0792 2.63867 15.0122C3.70936 16.4631 9.89538 16.3936 11.7266 16.2622C13.4346 16.142 15.8309 16.0943 16.4375 14.2632V14.2603C16.8091 13.1356 17.0171 10.1592 16.9141 7.50732C16.8178 7.61839 16.7058 7.68408 16.5752 7.68408C13.6799 7.68412 4.01592 8.39599 2.08594 7.68408C1.97451 7.64286 1.87714 7.57737 1.79199 7.49365ZM14.1797 11.0005C14.3655 11.0009 14.3655 12.8418 14.1797 12.8423C13.6369 12.8423 11.8251 13.198 11.4629 12.8423C11.2358 12.6183 11.31 11.0005 11.4629 11.0005H14.1797ZM16.0713 2.97803C14.9224 1.42655 8.43676 1.64135 6.50195 1.80908C5.38932 1.90693 3.51568 1.99065 2.76367 2.82373C2.55693 3.05338 2.38415 3.46441 2.24219 4.00049H16.4941C16.3782 3.55757 16.2392 3.20486 16.0713 2.97803Z" fill="#364153"/>
</svg>
