<svg width="16" height="16" viewBox="0 0 16 16" fill="none" xmlns="http://www.w3.org/2000/svg">
<path d="M8 0C12.4184 2.55032e-05 16 3.58159 16 8C16 12.4184 12.4184 16 8 16C3.58159 16 4.24069e-05 12.4184 0 8C0 3.58158 3.58157 0 8 0ZM11.8945 8.29297C11.4762 8.22083 11.0853 8.50588 10.9336 8.90234L10.8252 9.15723C10.5541 9.74032 10.1429 10.254 9.62109 10.6475L9.3916 10.8076C8.84656 11.1611 8.22439 11.3739 7.58203 11.4297C7.15918 11.4665 6.77718 11.7636 6.73145 12.1855L6.72754 12.2637C6.72494 12.6537 7.01828 12.9911 7.41602 12.9785C8.4714 12.9447 9.49948 12.6069 10.373 12L10.5469 11.875C11.456 11.1894 12.1243 10.2413 12.4688 9.16895C12.598 8.7651 12.3124 8.36534 11.8945 8.29297Z" fill="#364153"/>
</svg>
