<svg width="18" height="18" viewBox="0 0 18 18" fill="none" xmlns="http://www.w3.org/2000/svg">
<path d="M8.16298 18C7.46685 18 6.92818 17.577 6.77901 16.9217L6.43923 15.4535L6.21547 15.3705L4.93923 16.1585C4.3674 16.5152 3.68785 16.4323 3.19889 15.9429L2.03867 14.7816C1.54144 14.2922 1.46685 13.612 1.8232 13.0396L2.61878 11.7705L2.53591 11.5631L1.07735 11.223C0.422652 11.0654 0 10.518 0 9.83779V8.20369C0 7.5235 0.414365 6.98433 1.07735 6.81843L2.51934 6.47005L2.6105 6.25438L1.81492 4.98525C1.45856 4.4129 1.53315 3.73272 2.03039 3.23502L3.19061 2.07373C3.67127 1.59263 4.35083 1.50138 4.93094 1.85806L6.20718 2.63779L6.43923 2.54654L6.77901 1.07834C6.92818 0.423041 7.46685 0 8.16298 0H9.83702C10.5249 0 11.0635 0.423041 11.221 1.07834L11.5608 2.54654L11.7928 2.63779L13.0691 1.85806C13.6409 1.50138 14.3204 1.59263 14.8011 2.07373L15.9613 3.23502C16.4669 3.73272 16.5331 4.4129 16.1768 4.98525L15.3895 6.25438L15.4724 6.47005L16.9227 6.81843C17.5773 6.98433 18 7.5235 18 8.20369V9.83779C18 10.518 17.5691 11.0654 16.9227 11.223L15.4558 11.5631L15.3812 11.7705L16.1685 13.0396C16.5249 13.612 16.4503 14.2922 15.953 14.7816L14.7928 15.9429C14.3122 16.4323 13.6326 16.5152 13.0525 16.1585L11.7762 15.3705L11.5608 15.4535L11.221 16.9217C11.0635 17.577 10.5249 18 9.83702 18H8.16298ZM8.36188 16.4986H9.63812C9.77901 16.4986 9.8453 16.4406 9.86188 16.3078L10.3591 14.2673C10.9061 14.1429 11.3785 13.9355 11.7845 13.6783L13.5746 14.7816C13.674 14.8479 13.7818 14.8479 13.8812 14.7401L14.7597 13.8525C14.8508 13.7696 14.8508 13.67 14.7845 13.5622L13.6906 11.7705C13.9144 11.3806 14.1381 10.8829 14.2624 10.3604L16.3094 9.87097C16.4337 9.84608 16.5 9.77972 16.5 9.63871V8.39447C16.5 8.24516 16.442 8.1871 16.3094 8.15392L14.2707 7.67281C14.1464 7.11705 13.8978 6.60276 13.6989 6.24608L14.7928 4.46267C14.8674 4.34654 14.8674 4.247 14.768 4.15576L13.8812 3.28479C13.7818 3.18525 13.6989 3.17696 13.5746 3.24332L11.7928 4.32995C11.3867 4.0977 10.8978 3.87373 10.3591 3.74931L9.86188 1.69217C9.8453 1.55945 9.77901 1.50138 9.63812 1.50138H8.36188C8.22099 1.50138 8.1547 1.56774 8.12983 1.69217L7.64088 3.73272C7.11878 3.86544 6.57182 4.0977 6.19889 4.32166L4.41713 3.23502C4.29282 3.16866 4.20994 3.18525 4.10221 3.2765L3.22376 4.14747C3.12431 4.247 3.12431 4.34654 3.19889 4.46267L4.29282 6.24608C4.09392 6.60276 3.85359 7.11705 3.72928 7.67281L1.68232 8.15392C1.55801 8.1871 1.5 8.24516 1.5 8.39447V9.63871C1.5 9.77972 1.55801 9.84608 1.68232 9.87097L3.72928 10.3604C3.85359 10.8829 4.07735 11.3806 4.30939 11.7705L3.20718 13.5622C3.1326 13.67 3.14088 13.7696 3.23204 13.8608L4.1105 14.7401C4.20994 14.8479 4.31768 14.8479 4.41713 14.7816L6.20718 13.6783C6.61326 13.9355 7.1105 14.1429 7.64088 14.2673L8.12983 16.3078C8.1547 16.4323 8.22099 16.4986 8.36188 16.4986ZM9 12.1438C7.25967 12.1438 5.85083 10.7419 5.85083 9C5.85083 7.25806 7.25967 5.85622 9 5.85622C10.732 5.85622 12.1409 7.25806 12.1409 9C12.1409 10.7419 10.732 12.1438 9 12.1438ZM9 10.7171C9.94475 10.7171 10.7155 9.95392 10.7155 9C10.7155 8.04608 9.94475 7.27465 9 7.27465C8.04696 7.27465 7.27624 8.04608 7.27624 9C7.27624 9.95392 8.04696 10.7171 9 10.7171Z" fill="#222A35"/>
</svg>
