<svg width="16" height="16" viewBox="0 0 16 16" fill="none" xmlns="http://www.w3.org/2000/svg">
<g clip-path="url(#clip0_1598_18502)">
<path d="M5.01612 3.40105C5.2597 3.40105 5.51045 3.45709 5.75403 3.58319L11.7218 6.63748C12.8537 7.21891 12.8537 8.80911 11.7218 9.38354L5.75403 12.4168C5.51761 12.5359 5.26687 12.5919 5.02328 12.5919C4.19224 12.5919 3.44 11.9405 3.44 11.0368V4.95622C3.44 4.05254 4.19224 3.40105 5.02328 3.40105M5.01612 2C3.35403 2 2 3.32399 2 4.95622V11.0508C2 12.676 3.35403 14.007 5.01612 14.007C5.49612 14.007 5.97612 13.8879 6.40597 13.6708L12.3737 10.6375C13.3767 10.1261 14 9.12434 14 8.02452C14 6.92469 13.3839 5.91594 12.3809 5.40455L6.4203 2.33625C5.99045 2.11208 5.50328 2 5.02328 2H5.01612Z" fill="#364153"/>
</g>
<defs>
<clipPath id="clip0_1598_18502">
<rect width="12" height="12" fill="white" transform="translate(2 2)"/>
</clipPath>
</defs>
</svg>
