<svg width="24" height="24" viewBox="0 0 24 24" fill="none" xmlns="http://www.w3.org/2000/svg">
<path d="M12 2C17.525 2 22 6.475 22 12C22 17.525 17.525 22 12 22C6.475 22 2 17.525 2 12C2 6.475 6.475 2 12 2ZM11.998 6C11.7571 6.00014 11.5371 6.084 11.3066 6.31445L7.98145 9.57617C7.82428 9.75435 7.71887 9.93311 7.71875 10.1846C7.71875 10.6647 8.07256 10.9986 8.54102 11.002C8.77055 11.0008 9.00986 10.897 9.17676 10.7197L10.6143 9.15723L11.1592 8.48535L11.0645 10.0273V17.0664C11.0646 17.5697 11.485 17.9998 11.9883 18C12.5019 17.9998 12.9208 17.5697 12.9209 17.0664V10.0273L12.8271 8.48535L13.3721 9.15723L14.8096 10.7197C14.9668 10.9084 15.1974 11.0029 15.4385 11.0029C15.8895 11.0029 16.2773 10.6671 16.2773 10.1846C16.2772 9.94351 16.1726 9.75439 16.0049 9.57617L12.7012 6.31445C12.4705 6.08378 12.2392 6 11.998 6ZM8.53711 11.0029H8.54785C8.54567 11.0029 8.54319 11.002 8.54102 11.002C8.53984 11.0021 8.53826 11.0029 8.53711 11.0029Z" fill="#222A35"/>
</svg>
