<?xml version="1.0" encoding="UTF-8"?>
<svg id="Layer_1" xmlns="http://www.w3.org/2000/svg" version="1.1" viewBox="0 0 16 16">
  <!-- Generator: Adobe Illustrator 30.1.0, SVG Export Plug-In . SVG Version: 2.1.1 Build 136)  -->
  <defs>
    <style>
      .st0 {
        fill: #364153;
      }
    </style>
  </defs>
  <path class="st0" d="M3.27,3.85c-.24-.22-.62-.22-.87,0h0c-.12.11-.19.26-.19.42s.07.31.19.42l.55.49c-.72.45-1.37.98-1.86,1.52-.24.26-.43.53-.57.77-.14.25-.21.47-.21.65,0,.16.06.35.16.56.1.2.25.42.44.65.4.5.96,1,1.59,1.44.94.66,2.92,1.77,5.51,1.77.91,0,1.81-.14,2.69-.41l.88.79c.12.11.28.17.43.17s.31-.06.43-.17c.13-.12.2-.27.19-.42,0-.15-.07-.29-.2-.41L3.27,3.85ZM8,11.36c-2.03,0-3.7-.9-4.52-1.43-.53-.35-1.02-.75-1.36-1.12-.15-.16-.27-.32-.36-.45-.08-.12-.1-.21-.1-.24,0,0,0-.02.03-.07.02-.05.06-.12.11-.19.11-.16.27-.34.47-.54.45-.45,1.04-.88,1.66-1.25l1.04.94c-.16.35-.26.73-.26,1.11,0,1.63,1.48,2.96,3.29,2.96.44,0,.86-.09,1.24-.24l.36.32c-.54.13-1.08.2-1.6.2Z"/>
  <path class="st0" d="M15.54,7.55c-.1-.2-.25-.42-.43-.65-.4-.5-.95-1-1.58-1.44-.94-.66-2.9-1.77-5.52-1.77-.85,0-1.72.13-2.57.38l-.34.1,1.08.97.1-.03c.57-.16,1.15-.24,1.73-.24,2,0,3.68.92,4.51,1.47.53.35,1.01.75,1.37,1.13.15.16.27.31.36.44.04.06.07.11.08.15.02.04.02.06.02.06,0,.04-.03.14-.13.28-.1.15-.25.33-.43.52-.42.43-1,.87-1.62,1.24l-.24.14.87.77.11.1.13-.08c.76-.46,1.45-1.03,1.94-1.6.22-.25.41-.51.53-.74.13-.24.2-.46.2-.63,0-.16-.05-.35-.16-.56Z"/>
  <path class="st0" d="M11.04,9.17c.16-.34.24-.69.24-1.05,0-1.66-1.44-2.96-3.28-2.96-.38,0-.77.07-1.14.2l-.32.11,4.18,3.76.2.18.11-.24Z"/>
</svg>