<svg width="12" height="12" viewBox="0 0 12 12" fill="none" xmlns="http://www.w3.org/2000/svg">
<path d="M4.6709 2.05951C5.77727 1.95266 8.77184 1.88106 9.47754 2.8476L9.47656 2.84857C10.1869 3.81894 10.1617 8.14916 9.47656 9.14935C8.71667 10.2562 4.51922 10.1033 3.3457 9.6933C1.83184 9.16491 1.95622 6.32274 2.0498 4.93744C2.195 2.79169 2.59015 2.26079 4.6709 2.05951ZM8 4.08685C7.59395 3.53143 5.8726 3.57329 5.23633 3.6347C4.0399 3.75044 3.81298 4.0552 3.72949 5.289C3.67567 6.08561 3.60388 7.71976 4.47461 8.02338C5.14961 8.25905 7.56187 8.3471 7.99902 7.71088C8.393 7.13577 8.40749 4.64579 7.99902 4.08783L8 4.08685Z" fill="#222A35"/>
</svg>
