<svg width="16" height="16" viewBox="0 0 16 16" fill="none" xmlns="http://www.w3.org/2000/svg">
<path d="M10.6419 9.58383C10.2964 9.58383 10.0269 9.30741 10.0269 8.96188C10.0269 8.79603 10.096 8.644 10.2134 8.53343L11.8927 6.85417L10.2134 5.168C10.0891 5.04361 10.0269 4.9054 10.0269 4.73955C10.0269 4.39402 10.2964 4.12451 10.6419 4.12451C10.8147 4.12451 10.9529 4.1798 11.0842 4.3111L12.7634 5.98344L14.4427 4.3111C14.574 4.1798 14.7122 4.12451 14.885 4.12451C15.2305 4.12451 15.5 4.39402 15.5 4.73955C15.5 4.9054 15.4378 5.04361 15.3134 5.168L13.6342 6.85417L15.3134 8.53343C15.4378 8.644 15.5 8.79603 15.5 8.96188C15.5 9.30741 15.2305 9.58383 14.885 9.58383C14.7053 9.58383 14.5533 9.52164 14.4358 9.39725L12.7634 7.7249L11.0911 9.39725C10.9736 9.52164 10.8216 9.58383 10.6419 9.58383Z" fill="#364153"/>
<path d="M6.27029 8.03456C4.68087 8.03456 3.3886 6.64554 3.3886 4.92482C3.3886 3.23865 4.68778 1.87036 6.27029 1.87036C7.85972 1.87036 9.14507 3.22483 9.14507 4.91791C9.14507 6.63863 7.85972 8.03456 6.27029 8.03456ZM6.27029 6.84594C7.15484 6.84594 7.90118 6.00977 7.90118 4.91791C7.90118 3.85368 7.16175 3.06588 6.27029 3.06588C5.37884 3.06588 4.6325 3.86059 4.6325 4.92482C4.6325 6.02359 5.38575 6.84594 6.27029 6.84594ZM2.19999 14.1296C1.05975 14.1296 0.5 13.7565 0.5 12.9756C0.5 11.1512 2.77356 8.78089 6.26338 8.78089C9.76011 8.78089 12.0268 11.1512 12.0268 12.9756C12.0268 13.7565 11.4739 14.1296 10.3268 14.1296H2.19999ZM2.02723 12.9341H10.4995C10.6516 12.9341 10.7069 12.8857 10.7069 12.7683C10.7069 11.8008 9.10361 9.97641 6.26338 9.97641C3.42315 9.97641 1.82682 11.8008 1.82682 12.7683C1.82682 12.8857 1.88211 12.9341 2.02723 12.9341Z" fill="#364153"/>
</svg>
