<svg width="16" height="16" viewBox="0 0 16 16" fill="none" xmlns="http://www.w3.org/2000/svg">
<g clip-path="url(#clip0_1598_18476)">
<g clip-path="url(#clip1_1598_18476)">
<path d="M1.85221 3.57451C1.98371 2.95324 2.14807 2.46813 2.35353 2.22132C2.82198 1.68515 3.82463 1.51494 4.67935 1.42132C4.8355 1.4043 5.25464 1.25962 5.27108 0.655365C5.27929 0.153237 4.79441 -0.025486 4.6136 4.59596e-05C1.82756 0.348982 0.833125 1.14047 0.405767 3.45537C0.372893 3.6426 0.463296 4.08515 1.06324 4.08515C1.66319 4.08515 1.81934 3.71919 1.85221 3.57451Z" fill="#364153"/>
<path d="M14.2705 3.57451C14.139 2.95324 13.9747 2.46813 13.7692 2.22132C13.3008 1.68515 12.2981 1.51494 11.4434 1.42132C11.2872 1.4043 10.8681 1.25962 10.8517 0.655365C10.8434 0.153237 11.3283 -0.025486 11.5091 4.59596e-05C14.2952 0.348982 15.2896 1.14047 15.717 3.45537C15.7498 3.6426 15.6594 4.08515 15.0595 4.08515C14.4596 4.08515 14.3034 3.71919 14.2705 3.57451Z" fill="#364153"/>
<path d="M1.85221 11.7446C1.98371 12.3659 2.14807 12.851 2.35353 13.0978C2.82198 13.634 3.82463 13.8042 4.67935 13.8978C4.8355 13.9149 5.25464 14.0595 5.27108 14.6638C5.27929 15.1659 4.79441 15.3446 4.6136 15.3191C1.82756 14.9702 0.833125 14.1787 0.405767 11.8638C0.372893 11.6766 0.463296 11.234 1.06324 11.234C1.66319 11.234 1.81934 11.6 1.85221 11.7446Z" fill="#364153"/>
<path d="M14.2705 11.7446C14.139 12.3659 13.9747 12.851 13.7692 13.0978C13.3008 13.634 12.2981 13.8042 11.4434 13.8978C11.2872 13.9149 10.8681 14.0595 10.8517 14.6638C10.8434 15.1659 11.3283 15.3446 11.5091 15.3191C14.2952 14.9702 15.2896 14.1787 15.717 11.8638C15.7498 11.6766 15.6594 11.234 15.0595 11.234C14.4596 11.234 14.3034 11.6 14.2705 11.7446Z" fill="#364153"/>
<path d="M14.8787 6.66387C15.906 6.87664 15.569 8.16175 14.8787 8.16175H0.907335C0.0608364 8.16175 0.0608364 6.66387 0.907335 6.66387C3.37286 6.66387 13.235 6.32345 14.8787 6.66387Z" fill="#364153"/>
</g>
</g>
<defs>
<clipPath id="clip0_1598_18476">
<rect width="16" height="16" fill="white"/>
</clipPath>
<clipPath id="clip1_1598_18476">
<rect width="15.4506" height="15.3191" fill="white" transform="translate(0.274414)"/>
</clipPath>
</defs>
</svg>
