<svg width="16" height="16" viewBox="0 0 16 16" fill="none" xmlns="http://www.w3.org/2000/svg">
<path d="M9.01614 1.2505C9.27785 1.25913 9.50753 1.37761 9.70032 1.5704L14.4343 6.3044C14.6242 6.49437 14.7397 6.72134 14.7492 6.9802C14.7616 7.24159 14.6684 7.47294 14.4829 7.65852C14.2887 7.8527 14.027 7.95592 13.7267 7.99015L13.7259 7.98931C13.5296 8.01823 13.2976 8.02453 13.0341 8.00941C12.768 7.99411 12.479 7.96337 12.1682 7.91813L12.1649 7.91729C11.9073 7.87687 11.6465 7.83012 11.3827 7.77911L9.64672 9.77555C9.83205 10.2401 9.95187 10.7053 10.001 11.1715C10.0661 11.7597 10.0221 12.3141 9.86697 12.8322L9.86781 12.833C9.71773 13.3535 9.46402 13.797 9.10491 14.1562C8.87432 14.3867 8.59833 14.515 8.28506 14.5112C7.97437 14.5072 7.69817 14.3656 7.46187 14.1294L5.241 11.9085L3.34924 13.8011C3.16994 13.9804 2.98203 14.1361 2.78649 14.2675C2.59647 14.3952 2.41396 14.4983 2.23965 14.574L2.23881 14.5732C2.07076 14.6478 1.9169 14.7032 1.78073 14.729L1.7799 14.7281C1.72015 14.741 1.65723 14.7512 1.59734 14.7499C1.54438 14.7487 1.43619 14.7385 1.35113 14.6536C1.27103 14.5735 1.25444 14.4728 1.25064 14.4141C1.24648 14.3489 1.25427 14.2797 1.26655 14.2148L1.26823 14.2072C1.29716 14.077 1.35211 13.9258 1.4265 13.7584C1.50214 13.5846 1.60486 13.4026 1.73216 13.2132C1.86362 13.0176 2.02013 12.8306 2.19945 12.6513L4.09121 10.7587L1.87034 8.53783C1.63613 8.30349 1.49728 8.02908 1.48931 7.71882V7.71547C1.48535 7.40196 1.61366 7.12636 1.84438 6.89562C2.20326 6.53678 2.6459 6.28284 3.16584 6.13272C3.68686 5.98027 4.2426 5.93719 4.82898 5.99957C5.29451 6.04864 5.75948 6.16724 6.22331 6.35213L8.22058 4.61697C8.16958 4.35326 8.12281 4.09242 8.0824 3.83481L8.08156 3.82979C8.03954 3.52343 8.00932 3.23578 7.99112 2.96891V2.9664C7.97571 2.6983 7.98095 2.46225 8.01122 2.26379C8.04957 1.96913 8.15477 1.71328 8.34619 1.52183C8.52989 1.33819 8.75776 1.24217 9.01614 1.2505ZM4.8809 7.43744C4.49797 7.37642 4.15365 7.38053 3.84584 7.44414L3.84416 7.44498C3.55084 7.50364 3.31896 7.60406 3.13905 7.73724L8.26161 12.8606C8.39492 12.6807 8.49684 12.4498 8.55555 12.1564V12.1547C8.61927 11.8467 8.62333 11.502 8.56225 11.1188V11.1171C8.50487 10.7373 8.37266 10.3401 8.16112 9.92545L8.16028 9.92461C7.95553 9.52073 7.66058 9.12347 7.27093 8.73379C6.8781 8.34096 6.47727 8.04303 6.07006 7.83522C5.65891 7.62695 5.2633 7.49574 4.88342 7.43828L4.8809 7.43744ZM9.5186 3.54255L9.57387 3.83063C9.59471 3.93198 9.61735 4.03935 9.64337 4.1522C9.69806 4.37955 9.76527 4.61685 9.84352 4.86318C9.86943 4.94341 9.86841 5.02874 9.8385 5.10938C9.81005 5.18598 9.76037 5.24444 9.71204 5.28776L9.71121 5.28943L7.61763 7.13932C7.84644 7.31382 8.06919 7.50714 8.28339 7.72133C8.49632 7.93428 8.68881 8.1551 8.86205 8.38206L10.7161 6.29351C10.7562 6.24575 10.8107 6.19623 10.8836 6.16622C10.9677 6.13167 11.0576 6.13016 11.1407 6.15785C11.3859 6.23566 11.6211 6.30186 11.8475 6.35632C12.0754 6.41112 12.2792 6.45394 12.458 6.48528C12.5333 6.49704 12.6021 6.50607 12.664 6.51376L9.48929 3.33989C9.49736 3.4015 9.50714 3.46907 9.5186 3.54255Z" fill="#364153"/>
</svg>
