<?xml version="1.0" encoding="UTF-8"?>
<svg id="Layer_1" xmlns="http://www.w3.org/2000/svg" xmlns:xlink="http://www.w3.org/1999/xlink" version="1.1" viewBox="0 0 16 16">
  <!-- Generator: Adobe Illustrator 30.1.0, SVG Export Plug-In . SVG Version: 2.1.1 Build 136)  -->
  <defs>
    <style>
      .st0 {
        fill: none;
      }

      .st1 {
        fill: #364153;
      }

      .st2 {
        clip-path: url(#clippath);
      }
    </style>
    <clipPath id="clippath">
      <rect class="st0" x="1.5" y=".5" width="13" height="15"/>
    </clipPath>
  </defs>
  <g class="st2">
    <g>
      <path class="st1" d="M14.29,12.64L2.92.97c-.28-.29-.75-.29-1.03,0s-.28.77,0,1.06l2.24,2.3c-.35.83-.53,1.84-.57,3.05-.09.98-.2,1.97-.71,2.46-.64.63-1.34,1.28-1.34,2.04,0,.6.45,1.01,1.19,1.01h2.92c.06,1.37,1.18,2.62,2.79,2.62s2.73-1.24,2.79-2.62h1.26l.8.82c.15.14.33.22.52.22.19,0,.37-.08.52-.23.28-.29.28-.77,0-1.06ZM8.4,14.36c-.8,0-1.39-.58-1.45-1.47h2.89c-.05.89-.63,1.47-1.45,1.47ZM3.2,11.58v-.08c.19-.21.6-.58.95-.99.49-.57.72-1.59.79-2.95.02-.87.13-1.55.29-2.1l5.96,6.12H3.2Z"/>
      <path class="st1" d="M8.41,1.82h0c.63,0,1.03.48,1.06,1.21.02.19.11.27.29.32,1.14.32,2.02,1.28,2.11,4.15l1.78,1.83c-.24-.53-.32-1.24-.39-1.96-.09-2.71-.88-4.53-2.73-5.2-.27-.94-1.06-1.67-2.12-1.67-.95,0-1.68.58-2.01,1.38l.98,1.01c.08-.64.45-1.08,1.03-1.08Z"/>
    </g>
  </g>
</svg>