<svg width="16" height="16" viewBox="0 0 16 16" fill="none" xmlns="http://www.w3.org/2000/svg">
<path d="M2.31067 13.7472C0.944844 13.7472 0.215521 13.0501 0.215521 11.7392C0.215521 11.7392 0 9.78886 0 8.54895C0 7.30904 0.215521 5.38922 0.215521 5.38922C0.215521 4.0783 0.944844 3.38766 2.31067 3.38766H3.96822C4.45886 3.38766 4.62461 3.30453 4.9296 2.99758L5.42687 2.4924C5.75838 2.15987 6.08989 2 6.72639 2H9.21935C9.85585 2 10.1874 2.15987 10.5189 2.4924L11.0161 2.99758C11.3278 3.30453 11.4869 3.38766 11.9775 3.38766H13.6616C15.034 3.38766 15.7634 4.0783 15.7634 5.38922C15.7634 5.38922 16 7.16659 16 8.4065C16 9.64642 15.7634 11.7392 15.7634 11.7392C15.7634 13.0501 15.034 13.7472 13.6616 13.7472C13.6616 13.7472 10.2081 14 7.99174 14C5.77533 14 2.31067 13.7472 2.31067 13.7472ZM2.41012 12.4682C2.41012 12.4682 5.81417 12.6958 7.99174 12.6958C10.1693 12.6958 13.5621 12.4682 13.5621 12.4682C14.1257 12.4682 14.4373 12.1869 14.4373 11.6177C14.4373 11.6177 14.674 9.59897 14.674 8.40651C14.674 7.21404 14.4373 5.51072 14.4373 5.51072C14.4373 4.94159 14.1257 4.66661 13.5621 4.66661H11.5731C11.0095 4.66661 10.7244 4.57069 10.4062 4.23817L9.92878 3.73298C9.58401 3.37487 9.39174 3.27895 8.84806 3.27895H7.09768C6.554 3.27895 6.36173 3.37487 6.01033 3.73937L5.53958 4.23817C5.22133 4.57069 4.93623 4.66661 4.37266 4.66661H2.41012C1.85318 4.66661 1.54156 4.94159 1.54156 5.51072C1.54156 5.51072 1.32604 7.35648 1.32604 8.54895C1.32604 9.74141 1.54156 11.6177 1.54156 11.6177C1.54156 12.1869 1.85318 12.4682 2.41012 12.4682ZM7.99276 4.99275C9.63705 4.99275 10.9962 6.13741 11.2747 7.64018H11.8781C12.1831 7.64018 12.2692 7.92794 12.0902 8.16455L11.1222 9.44989C10.9432 9.69289 10.6382 9.6801 10.4658 9.44989L9.48456 8.16455C9.30554 7.93434 9.39174 7.64018 9.69673 7.64018H10.2006C9.94204 6.70015 9.05359 6.00312 7.99276 6.00312C7.48223 6.00312 7.01149 6.16299 6.6402 6.43796C6.04348 6.84083 5.44676 6.01591 6.04348 5.61304C6.58716 5.22296 7.26344 4.99275 7.99276 4.99275ZM4.10746 8.77844C3.79584 8.77844 3.71627 8.49707 3.88866 8.26047L4.85667 6.96872C5.04232 6.72572 5.34731 6.73851 5.51969 6.96872L6.50096 8.26047C6.67998 8.49068 6.58716 8.77844 6.28217 8.77844H5.77827C6.03685 9.72487 6.9253 10.4155 7.99276 10.4155C8.49666 10.4155 8.97403 10.2556 9.34532 9.98065C9.94204 9.58418 10.5388 10.4027 9.93541 10.812C9.39837 11.2021 8.72208 11.4259 7.99276 11.4259C6.34847 11.4259 4.98264 10.2812 4.70417 8.77844H4.10746Z" fill="#364153"/>
</svg>
