<svg width="16" height="16" viewBox="0 0 16 16" fill="none" xmlns="http://www.w3.org/2000/svg">
<path d="M8.00411 16C7.87255 16 7.67521 15.9582 7.46964 15.8413C3.03763 13.3264 1.5 12.2486 1.5 9.36606V3.34204C1.5 2.47311 1.8618 2.18068 2.5525 1.88825C3.44877 1.51227 6.40892 0.384334 7.29696 0.133681C7.51898 0.0668407 7.76565 0 8.00411 0C8.23435 0 8.48102 0.0584856 8.70304 0.133681C9.5993 0.44282 12.5512 1.50392 13.4475 1.88825C14.1464 2.18903 14.5 2.47311 14.5 3.34204V9.36606C14.5 12.2486 12.9706 13.3431 8.53036 15.8413C8.33302 15.9582 8.12745 16 8.00411 16ZM8.00411 14.4961C8.11923 14.4961 8.24257 14.4543 8.4728 14.3123C12.0414 12.1149 13.1926 11.4715 13.1926 9.07363V3.58433C13.1926 3.31697 13.1433 3.2 12.9213 3.1248C11.729 2.69869 9.47596 1.8799 8.34124 1.42037C8.20145 1.37023 8.09456 1.34517 8.00411 1.34517C7.90544 1.34517 7.79854 1.37023 7.65876 1.42037C6.52404 1.8799 4.25459 2.64856 3.07875 3.1248C2.86496 3.20836 2.81562 3.31697 2.81562 3.58433V9.07363C2.81562 11.4715 3.95035 12.0982 7.5272 14.3123C7.75743 14.4543 7.88077 14.4961 8.00411 14.4961ZM7.1654 11.3629C6.89405 11.3629 6.68027 11.246 6.48292 10.9869L4.95769 9.4454C4.84257 9.28665 4.77679 9.11955 4.77679 8.93574C4.77679 8.57647 5.04814 8.28404 5.40171 8.28404C5.62372 8.28404 5.80462 8.35924 5.98552 8.60989L7.13251 9.78381L9.84194 6.12843C9.99817 5.88613 10.1955 5.7608 10.4093 5.7608C10.7464 5.7608 11.0671 5.99475 11.0671 6.36237C11.0671 6.53783 10.9684 6.72164 10.878 6.88039L7.80677 10.9869C7.65054 11.2292 7.42853 11.3629 7.1654 11.3629Z" fill="#364153"/>
</svg>
