<?xml version="1.0" encoding="UTF-8"?>
<svg id="Layer_1" xmlns="http://www.w3.org/2000/svg" xmlns:xlink="http://www.w3.org/1999/xlink" version="1.1" viewBox="0 0 16 16">
  <!-- Generator: Adobe Illustrator 30.1.0, SVG Export Plug-In . SVG Version: 2.1.1 Build 136)  -->
  <defs>
    <style>
      .st0 {
        fill: none;
      }

      .st1 {
        fill: #364153;
      }

      .st2 {
        clip-path: url(#clippath);
      }
    </style>
    <clipPath id="clippath">
      <rect class="st0" y="0" width="16" height="16"/>
    </clipPath>
  </defs>
  <g class="st2">
    <g>
      <path class="st1" d="M3.26,13.98h0c-.06.04-.13.07-.2.1-.51.21-1.03.36-1.58.45.09-.55.24-1.08.45-1.58.03-.05.05-.12.09-.19.14-.28.44-.84-.14-1.17-.22-.12-.42-.11-.53-.06-.36.12-.56.57-.68.86l-.03.05c-.3.68-.52,1.56-.59,2.32v.08c-.03.2-.04.36-.04.47.04.4.36.68.78.68h.03c.84-.03,1.91-.27,2.77-.63.32-.14.81-.35.92-.74.04-.13.04-.34-.14-.58-.36-.48-.83-.22-1.1-.07Z"/>
      <path class="st1" d="M15.62.38c-.44-.44-1.07-.4-1.53-.37-2.59.18-5.31,1.37-7.48,3.26l-.06-.03c-.61-.23-1.32-.48-2.03-.42-.68.06-1.7.74-3.12,2.07-.7.66-1.01,1-1.09,1.18-.19.46-.05.92.37,1.24l2.23.73c-.04.08-.09.17-.13.25-.31.57-.66,1.22-.02,1.99.48.41.95.92,1.4,1.41.51.55,1.03,1.13,1.58,1.57.73.59,1.37.24,1.94-.06.07-.04.14-.08.22-.12l.69,2.1c.19.36.53.57.9.57.12,0,.25-.03.37-.07.2-.07.55-.4,1.25-1.14,1.27-1.35,1.95-2.37,2.04-3.04.08-.71-.18-1.41-.41-2.04l-.03-.08c1.9-2.19,3.09-4.9,3.26-7.48.04-.49.07-1.09-.37-1.53ZM1.97,6.33c1.36-1.33,2.24-2.04,2.63-2.09.28-.04.62.04.89.12-.62.67-1.23,1.47-1.88,2.46l-1.64-.5ZM10.2,13.5c-.08.09-.17.18-.26.26-.09.08-.18.18-.27.27l-.51-1.64c1-.65,1.79-1.25,2.46-1.88.09.27.17.6.12.89-.04.34-.82,1.32-1.56,2.11ZM14.26,3.71c-.8,3.05-2.96,5.77-6.1,7.67l-.12.07c-.37.23-1.08.66-1.39.75h0s-2.86-2.86-2.86-2.86c.05-.16.23-.48.36-.69l.11-.19C6.62,4.19,10.45,1.55,14.5,1.4h.12c.02.62-.18,1.6-.36,2.31Z"/>
    </g>
  </g>
</svg>