<svg width="12" height="12" viewBox="0 0 12 12" fill="none" xmlns="http://www.w3.org/2000/svg">
<mask id="path-1-outside-1_312_2421" maskUnits="userSpaceOnUse" x="0.25" y="-0.5" width="11" height="13" fill="black">
<rect fill="white" x="0.25" y="-0.5" width="11" height="13"/>
<path d="M9.75 10.1106C9.75 10.3257 9.57568 10.5 9.36064 10.5C9.26135 10.5 9.16582 10.4621 9.09357 10.394L6.70117 8.13867C6.31369 7.77332 5.68534 7.77332 5.29785 8.13867L2.90644 10.3939C2.83419 10.4621 2.73863 10.5 2.63932 10.5C2.42431 10.5 2.25 10.3257 2.25 10.1107V2.46429C2.25 1.93173 2.68173 1.5 3.21429 1.5H8.78571C9.31827 1.5 9.75 1.93173 9.75 2.46429V10.1106Z"/>
</mask>
<path d="M6.70117 8.13867L5.70889 9.19108L5.70899 9.19117L6.70117 8.13867ZM5.29785 8.13867L4.30557 7.08626L4.30546 7.08636L5.29785 8.13867ZM2.90644 10.3939L1.91405 9.34161L2.90644 10.3939ZM9.09357 10.394L8.10138 11.4465L9.09357 10.394ZM9.09357 10.394L10.0858 9.34146L7.69336 7.08617L6.70117 8.13867L5.70899 9.19117L8.10138 11.4465L9.09357 10.394ZM6.70117 8.13867L7.69346 7.08626C6.74876 6.19554 5.25026 6.19554 4.30557 7.08626L5.29785 8.13867L6.29013 9.19108C6.19641 9.27945 6.08741 9.3111 5.99951 9.3111C5.91162 9.3111 5.80261 9.27945 5.70889 9.19108L6.70117 8.13867ZM5.29785 8.13867L4.30546 7.08636L1.91405 9.34161L2.90644 10.3939L3.89882 11.4462L6.29024 9.19098L5.29785 8.13867ZM2.25 10.1107H3.69644V2.46429H2.25H0.803559V10.1107H2.25ZM3.21429 1.5V2.94644H8.78571V1.5V0.0535588H3.21429V1.5ZM9.75 2.46429H8.30356V10.1106H9.75H11.1964V2.46429H9.75ZM8.78571 1.5V2.94644C8.51942 2.94644 8.30356 2.73058 8.30356 2.46429H9.75H11.1964C11.1964 1.13288 10.1171 0.0535588 8.78571 0.0535588V1.5ZM2.90644 10.3939L1.91405 9.34161C2.11022 9.1566 2.36968 9.05356 2.63932 9.05356V10.5V11.9464C3.10759 11.9464 3.55815 11.7675 3.89882 11.4462L2.90644 10.3939ZM2.25 2.46429H3.69644C3.69644 2.73058 3.48058 2.94644 3.21429 2.94644V1.5V0.0535588C1.88288 0.0535588 0.803559 1.13288 0.803559 2.46429H2.25ZM9.36064 10.5V9.05356C9.63021 9.05356 9.8896 9.15655 10.0858 9.34146L9.09357 10.394L8.10138 11.4465C8.44203 11.7676 8.8925 11.9464 9.36064 11.9464V10.5ZM2.63932 10.5V9.05356C3.22315 9.05356 3.69644 9.52685 3.69644 10.1107H2.25H0.803559C0.803559 11.1245 1.62546 11.9464 2.63932 11.9464V10.5ZM9.36064 10.5V11.9464C10.3745 11.9464 11.1964 11.1245 11.1964 10.1106H9.75H8.30356C8.30356 9.52684 8.77683 9.05356 9.36064 9.05356V10.5Z" fill="#2A2F35" mask="url(#path-1-outside-1_312_2421)"/>
</svg>
