<svg width="16" height="16" viewBox="0 0 16 16" fill="none" xmlns="http://www.w3.org/2000/svg">
<path fill-rule="evenodd" clip-rule="evenodd" d="M6.07186 1.49192C7.33689 0.387482 9.39492 1.25635 9.39492 2.96909V13.0312C9.39459 14.799 7.20184 15.6677 5.95197 14.3949L3.7948 12.1979H2.00165C0.89656 12.1977 0.000361291 11.3178 0 10.2329V5.76734C0.000145778 4.68234 0.896428 3.80253 2.00165 3.80234H3.7948L5.95197 1.60535L6.07186 1.49192ZM7.83807 2.96909C7.83807 2.57619 7.35045 2.38345 7.07269 2.66632L4.58712 5.19762L4.51849 5.25391C4.44501 5.30336 4.35702 5.33067 4.26655 5.33067H2.00165C1.75625 5.33086 1.55699 5.52641 1.55684 5.76734V10.2329L1.56553 10.3208C1.60118 10.4911 1.73863 10.6253 1.91217 10.6602L2.00165 10.6696H4.26655C4.38731 10.6696 4.50329 10.7173 4.58712 10.8027L7.07269 13.334C7.33291 13.5989 7.77693 13.4462 7.83199 13.1028L7.83807 13.0312V2.96909Z" fill="#364153"/>
<path d="M12.8865 1.73584C13.2025 1.46477 13.6871 1.49244 13.9412 1.81942C15.3385 3.61748 16.0681 5.83346 15.995 8.10163C15.9218 10.3699 15.0504 12.5373 13.5398 14.2465C13.2651 14.5573 12.7796 14.5559 12.4817 14.2661C12.1838 13.9762 12.1869 13.5076 12.4573 13.1932C13.6957 11.7539 14.4092 9.94616 14.4703 8.05557C14.5313 6.16486 13.9359 4.31669 12.7927 2.80448C12.543 2.47421 12.5705 2.00701 12.8865 1.73584Z" fill="#364153"/>
<path d="M11.2914 4.64326C11.6212 4.36028 12.1303 4.38913 12.3722 4.74646C13.0139 5.69448 13.344 6.818 13.307 7.96517C13.2699 9.11228 12.8679 10.213 12.1663 11.1199C11.9019 11.4618 11.3921 11.4592 11.0812 11.1566C10.7705 10.854 10.779 10.3665 11.0239 10.0112C11.449 9.39436 11.691 8.66923 11.7154 7.91656C11.7397 7.16387 11.5447 6.42518 11.1603 5.78354C10.9387 5.41396 10.9617 4.92625 11.2914 4.64326Z" fill="#364153"/>
</svg>
