<?xml version="1.0" encoding="UTF-8"?>
<svg id="Layer_1" xmlns="http://www.w3.org/2000/svg" version="1.1" viewBox="0 0 16 16">
  <!-- Generator: Adobe Illustrator 30.1.0, SVG Export Plug-In . SVG Version: 2.1.1 Build 136)  -->
  <defs>
    <style>
      .st0 {
        fill: #364153;
      }
    </style>
  </defs>
  <path class="st0" d="M15.71,6.1c-.11-.33-.52-1.11-1.82-1.11h-3.26l-1-3.09c-.38-1.21-1.18-1.39-1.63-1.39s-1.25.18-1.63,1.39l-1,3.1h-3.27c-1.29,0-1.7.77-1.82,1.11-.11.34-.26,1.23.81,2l2.66,1.9-1.05,3.1c-.29.86-.12,1.61.48,2.07.29.22,1.07.65,2.16-.15l2.64-1.94,2.64,1.95c.48.34.9.46,1.24.46.41,0,.72-.17.91-.32.6-.46.78-1.22.49-2.07l-1.05-3.1,2.66-1.9c1.08-.77.93-1.65.81-2Z"/>
</svg>