<svg width="16" height="16" viewBox="0 0 16 16" fill="none" xmlns="http://www.w3.org/2000/svg">
<path d="M0 6.47136C0 5.57932 0.169226 4.74404 0.507677 3.96553C0.846128 3.18162 1.31559 2.49231 1.91607 1.89762C2.51655 1.30292 3.20983 0.837979 3.99591 0.502788C4.78744 0.167596 5.63357 0 6.53429 0C7.43501 0 8.2784 0.167596 9.06448 0.502788C9.85602 0.837979 10.552 1.30292 11.1525 1.89762C11.753 2.49231 12.2224 3.18162 12.5609 3.96553C12.8994 4.74404 13.0686 5.57932 13.0686 6.47136C13.0686 7.21203 12.9485 7.91485 12.7083 8.57983C12.4736 9.2448 12.146 9.84761 11.7257 10.3882L15.7298 14.3781C15.8171 14.4646 15.8826 14.5646 15.9263 14.6782C15.9754 14.7917 16 14.9133 16 15.0431C16 15.2215 15.9591 15.3837 15.8772 15.5297C15.8008 15.6756 15.6916 15.7892 15.5496 15.8702C15.4077 15.9567 15.2439 16 15.0583 16C14.9273 16 14.8018 15.9757 14.6817 15.927C14.567 15.8838 14.4606 15.8162 14.3623 15.7243L10.3337 11.7263C9.7987 12.1047 9.20914 12.4021 8.56499 12.6183C7.92085 12.8346 7.24394 12.9427 6.53429 12.9427C5.63357 12.9427 4.78744 12.7751 3.99591 12.4399C3.20983 12.1047 2.51655 11.6398 1.91607 11.0451C1.31559 10.4504 0.846128 9.76381 0.507677 8.9853C0.169226 8.20139 0 7.36341 0 6.47136ZM1.4002 6.47136C1.4002 7.17418 1.53122 7.83376 1.79324 8.45008C2.06073 9.06099 2.42921 9.59892 2.89867 10.0639C3.37359 10.5288 3.91948 10.8937 4.53634 11.1586C5.15865 11.4236 5.82463 11.556 6.53429 11.556C7.24394 11.556 7.9072 11.4236 8.52405 11.1586C9.14637 10.8937 9.69226 10.5288 10.1617 10.0639C10.6312 9.59892 10.9997 9.06099 11.2671 8.45008C11.5346 7.83376 11.6684 7.17418 11.6684 6.47136C11.6684 5.76854 11.5346 5.11167 11.2671 4.50076C10.9997 3.88444 10.6312 3.34381 10.1617 2.87886C9.69226 2.40851 9.14637 2.04359 8.52405 1.78409C7.9072 1.51918 7.24394 1.38672 6.53429 1.38672C5.82463 1.38672 5.15865 1.51918 4.53634 1.78409C3.91948 2.04359 3.37359 2.40851 2.89867 2.87886C2.42921 3.34381 2.06073 3.88444 1.79324 4.50076C1.53122 5.11167 1.4002 5.76854 1.4002 6.47136Z" fill="#364153"/>
</svg>
