<svg width="16" height="16" viewBox="0 0 16 16" fill="none" xmlns="http://www.w3.org/2000/svg">
<path d="M7.61719 0.560547C8.86797 0.560714 9.8503 0.926855 10.6035 1.50293C11.3478 2.07228 11.8334 2.8197 12.1514 3.53418C12.4692 4.24852 12.6307 4.95426 12.7129 5.47559C12.7427 5.66486 12.7603 5.83246 12.7734 5.96973C13.3507 6.12485 13.8134 6.33002 14.085 6.59863C14.6919 7.20183 14.9533 8.79849 14.9414 10.4307V10.5254L14.9355 10.5312C14.9474 12.1588 14.6872 13.7512 14.084 14.3584H14.0869L14.0791 14.3662V14.3643L13.9521 14.4746C12.5245 15.5768 7.57384 15.4892 5.70605 15.3574C2.08224 15.1031 1.39157 14.429 1.1416 11.7148C1.11185 11.3777 1.07635 10.963 1.06445 10.5254V10.4307C1.08231 9.98724 1.11186 9.5792 1.1416 9.24219C1.31882 7.31753 1.71769 6.42177 3.22852 5.97266C3.23451 5.88629 3.24124 5.79276 3.25098 5.69336C3.30341 5.15807 3.41742 4.43181 3.66602 3.69629C3.9134 2.96457 4.30792 2.18338 4.94629 1.58008C5.59991 0.962644 6.47953 0.560547 7.61719 0.560547ZM7.61719 1.86133C6.81539 1.86133 6.25409 2.13309 5.83887 2.52539C5.40856 2.93208 5.10532 3.49832 4.89746 4.11328C4.70601 4.6798 4.60719 5.25473 4.55664 5.71387C4.9043 5.67028 5.28807 5.63516 5.71191 5.60547C6.92351 5.51999 9.43002 5.45064 11.4326 5.71484C11.4308 5.703 11.4306 5.69078 11.4287 5.67871C11.358 5.22988 11.2215 4.64156 10.9639 4.0625C10.7062 3.48366 10.3373 2.93695 9.81348 2.53613C9.29837 2.14217 8.59713 1.86149 7.61719 1.86133Z" fill="#222A35"/>
</svg>
