<?xml version="1.0" encoding="UTF-8"?>
<svg id="Layer_1" xmlns="http://www.w3.org/2000/svg" version="1.1" viewBox="0 0 16 16">
  <!-- Generator: Adobe Illustrator 30.1.0, SVG Export Plug-In . SVG Version: 2.1.1 Build 136)  -->
  <defs>
    <style>
      .st0 {
        fill: #364153;
      }
    </style>
  </defs>
  <path class="st0" d="M14.74,13.07c-1.99.13-12.07.27-13.85.07-1.1.46-.89,1.17.12,1.44,4.29.14,8.54.07,13.74.03,1.09-.11,1.47-1.34,0-1.53Z"/>
  <path class="st0" d="M8.08,1.33c.43,0,.79.37.79.79v5.97l-.08,1.31.46-.57,1.22-1.32c.14-.16.34-.24.54-.24.39,0,.7.29.7.7,0,.21-.09.37-.22.51l-2.82,2.76c-.2.2-.38.27-.59.27s-.4-.07-.6-.27l-2.81-2.76c-.14-.15-.23-.31-.23-.51,0-.41.32-.7.71-.7.2,0,.39.09.53.24l1.22,1.32.46.57-.08-1.31V2.13c0-.43.36-.79.79-.79h0Z"/>
</svg>