<svg width="16" height="16" viewBox="0 0 16 16" fill="none" xmlns="http://www.w3.org/2000/svg">
<path d="M1.00197 11.5747C1.60173 11.5748 1.75816 11.9408 1.79103 12.0855C1.92252 12.7067 2.08656 13.1922 2.29201 13.439C2.76053 13.975 3.76357 14.1452 4.61818 14.2388C4.77458 14.256 5.19349 14.4007 5.20997 15.0044C5.21819 15.5066 4.73258 15.6852 4.55177 15.6597C1.76605 15.3108 0.772094 14.5193 0.344741 12.2046C0.311867 12.0174 0.402022 11.5747 1.00197 11.5747ZM14.9981 11.5747C15.598 11.5748 15.6882 12.0174 15.6553 12.2046C15.2279 14.5195 14.2333 15.3108 11.4473 15.6597C11.2662 15.685 10.7818 15.5063 10.7901 15.0044C10.8065 14.4004 11.2257 14.2559 11.3818 14.2388C12.2365 14.1452 13.2395 13.9751 13.708 13.439C13.9135 13.1922 14.0775 12.7067 14.209 12.0855C14.2419 11.9408 14.3981 11.5747 14.9981 11.5747ZM4.55177 0.340368C4.73258 0.314836 5.21819 0.49449 5.20997 0.996618C5.19335 1.60009 4.77453 1.74507 4.61818 1.76224C3.76347 1.85586 2.76046 2.02589 2.29201 2.56205C2.08655 2.80886 1.92252 3.29429 1.79103 3.91556C1.75807 4.06036 1.60147 4.42622 1.00197 4.42631C0.402225 4.42631 0.311961 3.98377 0.344741 3.79642C0.772085 1.4816 1.76593 0.689322 4.55177 0.340368ZM11.4473 0.340368C14.2333 0.689304 15.2279 1.48153 15.6553 3.79642C15.688 3.98379 15.5977 4.42628 14.9981 4.42631C14.3985 4.42631 14.242 4.06041 14.209 3.91556C14.0775 3.29439 13.9134 2.80889 13.708 2.56205C13.2396 2.02588 12.2366 1.85586 11.3818 1.76224C11.2257 1.74521 10.8067 1.60044 10.7901 0.996618C10.7818 0.494879 11.2661 0.315172 11.4473 0.340368Z" fill="#222A35"/>
</svg>
