<?xml version="1.0" encoding="UTF-8"?>
<svg id="Layer_1" xmlns="http://www.w3.org/2000/svg" version="1.1" viewBox="0 0 16 16">
  <!-- Generator: Adobe Illustrator 30.1.0, SVG Export Plug-In . SVG Version: 2.1.1 Build 136)  -->
  <defs>
    <style>
      .st0 {
        fill: #364153;
      }
    </style>
  </defs>
  <path class="st0" d="M5.41,7.17c0-1.22,1.28-2,2.35-1.47l.1.06,1.94,1.12c1.09.63,1.09,2.21,0,2.84l-1.94,1.12c-1.09.63-2.46-.16-2.46-1.42v-2.24ZM6.83,9.41c0,.14.14.24.27.21l.06-.02,1.61-.93.32-.19c.14-.08.14-.29,0-.37l-1.94-1.12c-.14-.08-.32.02-.32.19v2.24Z"/>
  <path class="st0" d="M14.95,1.7h0C13.54-.24,7.55-.09,5.34.12,1.18.52.39,1.58.1,5.87c-.19,2.77-.44,8.46,2.59,9.51,2.35.82,10.74,1.13,12.26-1.09,1.37-2,1.42-10.66,0-12.6ZM14.11,12.68h0c-.52,1.63-2.58,1.67-4.04,1.78-1.57.12-6.88.18-7.8-1.11-1.01-1.41-1.04-9.51.11-10.83.42-.48,1.23-.68,2.02-.78l-.71.69c-.3.29-.31.77-.02,1.07.29.3.77.31,1.07.02l1.84-1.78c.06-.06.09-.12.13-.19.45-.02.96-.03,1.5-.03l-1.11,1.07c-.3.29-.31.77-.02,1.07.29.3.77.31,1.07.02l1.84-1.78c.09-.09.15-.2.18-.32.53.04,1.05.09,1.52.18l-1.03,1c-.3.29-.31.77-.02,1.07.29.3.77.31,1.07.02l1.62-1.57c.2.11.37.24.47.39,1.01,1.41.88,8.27.31,10.03Z"/>
</svg>