<svg width="16" height="16" viewBox="0 0 16 16" fill="none" xmlns="http://www.w3.org/2000/svg">
<path d="M8 15C4.13746 15 1 11.8625 1 8C1 4.13746 4.13746 1 8 1C11.8625 1 15 4.13746 15 8C15 11.8625 11.8625 15 8 15ZM8 13.6176C11.1104 13.6176 13.6244 11.1104 13.6244 8C13.6244 4.88964 11.1104 2.37561 8 2.37561C4.88964 2.37561 2.37561 4.88964 2.37561 8C2.37561 11.1104 4.88964 13.6176 8 13.6176ZM4.57115 8.84027C4.26621 8.84027 4.03582 8.6031 4.03582 8.30494C4.03582 8 4.26621 7.7696 4.57115 7.7696H7.45789V3.85963C7.45789 3.56147 7.69506 3.3243 7.99322 3.3243C8.29816 3.3243 8.53533 3.56147 8.53533 3.85963V8.30494C8.53533 8.6031 8.29816 8.84027 7.99322 8.84027H4.57115Z" fill="#222A35"/>
</svg>
