<?xml version="1.0" encoding="UTF-8"?>
<svg id="Layer_1" xmlns="http://www.w3.org/2000/svg" version="1.1" viewBox="0 0 16 16">
  <!-- Generator: Adobe Illustrator 30.1.0, SVG Export Plug-In . SVG Version: 2.1.1 Build 136)  -->
  <defs>
    <style>
      .st0 {
        fill: #364153;
      }
    </style>
  </defs>
  <path class="st0" d="M9.31,3.57c-.75.84-3.17,6.91-3.85,8.39-.23.51,1.07,1.15,1.31.64l3.85-8.39c.19-.41-.84-1.17-1.31-.64Z"/>
  <path class="st0" d="M14.95,1.7h0C13.54-.24,7.55-.09,5.34.12,1.18.52.39,1.58.1,5.87c-.19,2.77-.44,8.46,2.59,9.51,2.35.82,10.74,1.12,12.26-1.09,1.37-2,1.42-10.66,0-12.6ZM14.11,12.68h0c-.52,1.63-2.58,1.67-4.04,1.78-1.57.12-6.88.18-7.8-1.11-1.01-1.41-1.04-9.51.11-10.83.65-.74,2.25-.82,3.21-.9,1.66-.15,7.23-.34,8.21,1.04,1.01,1.41.88,8.27.31,10.03Z"/>
</svg>