<svg width="16" height="16" viewBox="0 0 16 16" fill="none" xmlns="http://www.w3.org/2000/svg">
<path d="M14.9766 3.46402C14.6118 3.46402 14.2774 3.66697 13.9227 3.96125L11.8759 5.66605V5.02675C11.8759 3.42343 10.9234 2.5 9.22103 2.5H2.86764C1.20583 2.5 0.212793 3.42343 0.212793 5.0369V7.21863C0.648512 6.86347 1.15516 6.58948 1.71248 6.41697V5.25C1.71248 4.33672 2.21913 3.86993 3.11083 3.86993H8.9677C9.85941 3.86993 10.3762 4.35701 10.3762 5.25V10.1716C10.3762 11.0544 9.85941 11.5517 8.9677 11.5517H7.24509C7.1235 12.0489 6.9107 12.5157 6.61685 12.9216H9.22103C10.9234 12.9216 11.8759 11.9982 11.8759 10.3847V9.81642L13.9227 11.5212C14.2774 11.8155 14.6219 12.0185 14.9766 12.0185C15.5744 12.0185 16 11.6024 16 10.9428V4.53967C16 3.89022 15.5643 3.46402 14.9766 3.46402ZM14.6118 10.2325C14.6118 10.3035 14.5712 10.3542 14.5206 10.3542C14.4801 10.3542 14.4395 10.3238 14.399 10.2934L11.886 8.30443V7.22878L14.399 5.25C14.399 5.25 14.4801 5.18911 14.5206 5.18911C14.5814 5.18911 14.6118 5.2297 14.6118 5.31089V10.2528V10.2325ZM3.20203 7.19834C1.43889 7.19834 0 8.62915 0 10.3441C0 12.059 1.44902 13.5 3.20203 13.5C4.95504 13.5 6.40405 12.0692 6.40405 10.3441C6.40405 8.619 4.95504 7.19834 3.20203 7.19834ZM4.80304 10.7906H3.65801V11.917C3.65801 12.1808 3.47562 12.3635 3.20203 12.3635C2.92844 12.3635 2.75617 12.1808 2.75617 11.917V10.7906H1.61115C1.34769 10.7906 1.15516 10.6079 1.15516 10.3441C1.15516 10.0701 1.33756 9.8976 1.61115 9.8976H2.75617V8.77122C2.75617 8.50738 2.93857 8.32472 3.20203 8.32472C3.46548 8.32472 3.65801 8.50738 3.65801 8.77122V9.8976H4.80304C5.0665 9.8976 5.24889 10.0803 5.24889 10.3441C5.24889 10.6079 5.0665 10.7906 4.80304 10.7906Z" fill="#222A35"/>
</svg>
