<svg width="18" height="18" viewBox="0 0 18 18" fill="none" xmlns="http://www.w3.org/2000/svg">
<path d="M13.0442 11.2324C13.0442 11.2324 13.0166 11.1456 13.0442 11.1108C13.0901 11.0587 13.1453 10.9979 13.1913 10.9371C13.3017 10.7981 13.4396 10.6331 13.6971 10.3985L13.8075 10.303C13.8903 10.2335 13.9546 10.1727 13.9914 10.138C14.065 10.0685 14.1938 9.91211 14.3501 9.7297L14.4421 9.62547C14.8099 9.19116 15.0215 8.94794 15.1686 8.79159C15.3158 8.62655 15.3801 8.59181 15.4169 8.56575C16.5 7.5 16.2647 7.51847 16.4142 6.84588C14.8968 4.96097 14.0006 3.77965 12.6027 2.27693L12.336 1.9816C12.058 1.5 10.5106 2 9.88048 2.36379C9.87129 2.37248 9.86209 2.38117 9.85289 2.38985C9.8345 2.39854 9.81611 2.41591 9.77932 2.43328C9.69655 2.47671 9.5402 2.5462 9.23671 2.68518C9.07117 2.75467 8.85964 2.85891 8.74009 2.91102H8.73089L8.66651 2.94577C6.83636 3.94468 5.19934 5.18681 3.93019 6.54186C3.84742 6.62872 3.6083 6.92405 3.39678 7.18464C3.0657 7.60158 2.87256 7.82742 2.75301 7.95771C2.64265 8.07932 2.61506 8.09669 2.57827 8.11407C2.00001 9.00006 1.48108 10.0001 1.72297 10.2422L1.85173 10.3899C3.0473 11.8491 4.64808 13.8358 6 15.0605C6.43948 15.5 7.64097 14.4659 8.17909 14.2118C8.26186 14.1684 8.39061 14.1076 8.61133 14.0033L8.80446 13.9165C9.07117 13.7948 9.22751 13.7254 9.28269 13.6993C9.5494 13.5429 9.8345 13.3605 10.1748 13.1347L10.5335 12.9089C10.653 12.8307 10.7726 12.7612 10.9013 12.683L10.9749 12.6222C10.9749 12.6222 11.0485 12.5614 11.1037 12.5267C11.1588 12.4919 11.2048 12.4572 11.2416 12.4398C11.2692 12.4224 11.2876 12.4224 11.2876 12.4224C11.2968 12.4224 11.3336 12.4398 11.3887 12.4919C11.4439 12.5353 11.4991 12.5961 11.5727 12.683C11.6371 12.7525 11.6922 12.822 11.729 12.8741L11.8026 12.9697C11.8026 12.9697 11.8394 13.0131 11.8578 13.0305C11.8762 13.0478 11.8854 13.0565 11.8946 13.0739C12.1613 13.3779 12.4464 13.7167 12.7407 14.0641L12.9154 14.2726C13.6052 15.0891 14.8651 16.3399 15.4997 16.9479L15.5549 17.0001H15.6652C15.6652 17.0001 15.702 17.0001 15.7204 16.9914C15.7756 16.9827 15.8308 16.9566 15.8952 16.9306C16.0791 16.8524 16.2722 16.7134 16.4837 16.5136C16.7505 16.2617 16.87 16.0446 16.916 15.9056C16.9436 15.8361 16.962 15.7666 16.9712 15.7058C16.9712 15.6798 16.9712 15.6537 16.9712 15.645V15.5581L13.0166 11.2585L13.0442 11.2324ZM6.87315 12.7178L6.69841 12.7959L6.63403 12.7178L3.94858 9.64284L4.04975 9.49517C5.75115 7.12384 8.36302 5.03046 11.2324 3.7449L13.9454 6.84588L14.0742 6.98486L13.9638 7.13252C12.1521 9.52123 9.69655 11.4583 6.88234 12.7178H6.87315Z" fill="#364153"/>
</svg>
