<svg width="16" height="16" viewBox="0 0 16 16" fill="none" xmlns="http://www.w3.org/2000/svg">
<path d="M3.5 8C3.5 7.73881 3.60554 7.51632 3.79744 7.32285L10.9552 0.270859C11.1183 0.0967352 11.339 0 11.5885 0C12.1066 0 12.5 0.396614 12.5 0.909311C12.5 1.16082 12.3945 1.39299 12.2313 1.55744L5.69723 8L12.2313 14.4329C12.3945 14.607 12.5 14.8295 12.5 15.081C12.5 15.6034 12.1066 16 11.5885 16C11.339 16 11.1183 15.9033 10.9552 15.7291L3.79744 8.67715C3.60554 8.48368 3.5 8.25151 3.5 8Z" fill="#222A35"/>
</svg>
