<svg width="16" height="16" viewBox="0 0 16 16" fill="none" xmlns="http://www.w3.org/2000/svg">
<path d="M14.9556 1.69488C13.5445 -0.238409 7.55421 -0.0942822 5.34146 0.119423C1.17996 0.521983 0.390379 1.58305 0.0999862 5.87455C-0.0872094 8.64526 -0.336803 14.3308 2.69193 15.3869C5.03907 16.2069 13.4341 16.5126 14.9532 14.2985C16.3236 12.2981 16.374 3.6381 14.9532 1.69736L14.9556 1.69488ZM14.1109 12.6783C13.5901 14.306 11.5333 14.3482 10.067 14.455C8.49499 14.5718 3.18392 14.634 2.26474 13.3443C1.25676 11.9328 1.22076 3.83441 2.37273 2.50994C3.01832 1.76942 4.62628 1.69488 5.58146 1.6079C7.24222 1.45881 12.8101 1.26747 13.7965 2.64661C14.8044 4.05557 14.6724 10.9165 14.1109 12.6758V12.6783Z" fill="#222A35"/>
<path d="M7.30017 10.8002V5.19983C7.30017 4.81323 7.6134 4.5 8 4.5C8.3866 4.5 8.69983 4.81323 8.69983 5.19983V10.8002C8.69964 11.1866 8.38649 11.5 8 11.5C7.61351 11.5 7.30036 11.1866 7.30017 10.8002Z" fill="#222A35"/>
<path d="M10.8002 7.30038C11.1867 7.30048 11.5 7.61367 11.5 8.00021C11.4999 8.38668 11.1866 8.69995 10.8002 8.70004H5.19983C4.81337 8.69995 4.50009 8.38668 4.5 8.00021C4.5 7.61367 4.81331 7.30048 5.19983 7.30038H10.8002Z" fill="#222A35"/>
</svg>
