<svg width="18" height="18" viewBox="0 0 18 18" fill="none" xmlns="http://www.w3.org/2000/svg">
<path d="M16.3656 9C16.3656 4.93185 13.0682 1.63349 9 1.63346C4.93181 1.63346 1.63346 4.93183 1.63346 9C1.63351 13.0681 4.93184 16.3656 9 16.3656C13.0681 16.3656 16.3656 13.0681 16.3656 9ZM18 9C18 13.9707 13.9707 18 9 18C4.02929 18 4.77078e-05 13.9707 0 9C0 4.02928 4.02926 0 9 0C13.9707 2.86911e-05 18 4.02929 18 9Z" fill="#364153"/>
<path d="M13.3812 9.32982C13.8517 9.4111 14.1732 9.86093 14.0274 10.3155C13.6399 11.522 12.888 12.588 11.8651 13.3594L11.6702 13.5C10.6874 14.1829 9.53093 14.5628 8.34353 14.6008C7.89592 14.6151 7.56526 14.2355 7.56822 13.7966L7.57342 13.7084C7.62487 13.2337 8.05381 12.8993 8.52952 12.8579C9.25233 12.7952 9.95233 12.5562 10.5656 12.1584L10.8235 11.978C11.4107 11.5352 11.874 10.9579 12.1791 10.3017L12.3003 10.0153C12.4709 9.56915 12.9105 9.24865 13.3812 9.32982Z" fill="#364153"/>
</svg>
