<svg width="16" height="16" viewBox="0 0 16 16" fill="none" xmlns="http://www.w3.org/2000/svg">
<g clip-path="url(#clip0_1598_18612)">
<g clip-path="url(#clip1_1598_18612)">
<path d="M7.62646 0.453613C9.61756 0.373614 11.5377 0.800187 13.0044 1.68018L13.3071 1.8667C14.7736 2.84445 15.6182 4.23109 15.7427 5.88428C15.8049 6.79094 15.8578 7.84019 15.6089 8.80908L15.5562 8.99561C15.2273 10.1245 14.4889 10.9425 13.3511 11.4937C13.2001 11.5736 13.0313 11.6269 12.8892 11.6802C12.5158 11.8135 12.3112 11.8936 12.2134 12.1069C12.1868 12.1692 12.1597 12.285 12.1597 12.4536C12.1597 12.6135 12.1606 12.7916 12.1694 12.9692V13.5552C12.0983 14.3373 11.3958 14.9506 10.5337 15.0396H5.70654C5.00456 14.9595 4.43593 14.5955 4.18701 14.0269C4.01819 13.6448 4.04423 13.227 4.06201 12.8804V12.5063C4.06201 12.391 4.06224 12.2934 4.03564 12.2046C3.9912 12.0357 3.9022 11.902 3.69775 11.8042C3.56448 11.7331 3.42213 11.6887 3.26221 11.6265C3.04894 11.5554 2.80885 11.4669 2.56006 11.3247C1.42228 10.658 0.880237 9.77767 0.631348 8.83545C0.382469 7.90213 0.444326 6.90617 0.48877 5.99951L0.516113 5.69775C0.676121 4.18666 1.46697 2.90657 2.80029 1.96436C4.06243 1.07558 5.76889 0.542547 7.62646 0.453613ZM5.13818 4.15088C3.66264 4.15088 2.46243 5.35113 2.4624 6.82666C2.4624 8.30222 3.66263 9.50244 5.13818 9.50244C6.61358 9.50225 7.81299 8.3021 7.81299 6.82666C7.81296 5.35124 6.61356 4.15107 5.13818 4.15088ZM11.3159 4.15088C9.84038 4.15088 8.64016 5.35113 8.64014 6.82666C8.64014 8.30222 9.84036 9.50244 11.3159 9.50244C12.7913 9.50227 13.9907 8.30211 13.9907 6.82666C13.9907 5.35123 12.7913 4.15105 11.3159 4.15088Z" fill="#231F20"/>
</g>
</g>
<defs>
<clipPath id="clip0_1598_18612">
<rect width="16" height="16" fill="white"/>
</clipPath>
<clipPath id="clip1_1598_18612">
<rect width="15.3511" height="14.5956" fill="white" transform="translate(0.444336 0.444458)"/>
</clipPath>
</defs>
</svg>
