<svg width="16" height="16" viewBox="0 0 16 16" fill="none" xmlns="http://www.w3.org/2000/svg">
<path d="M7.28648 11.1678C7.28923 11.063 8.59881 11.063 8.6016 11.1678C8.6016 11.4721 8.85588 12.491 8.6016 12.6947C8.44093 12.8219 7.28872 12.7795 7.28648 12.6947V11.1678Z" fill="#364153"/>
<path d="M7.28648 5.34045C7.28648 5.0316 8.6016 5.0316 8.6016 5.34045C8.60162 6.24031 8.85587 9.24593 8.6016 9.8457C8.44124 10.2213 7.28712 10.0984 7.28648 9.8457V5.34045Z" fill="#364153"/>
<path d="M7.86739 0.450193C8.27512 0.394242 8.62585 0.743376 8.87356 0.980608C11.2761 3.27012 13.7115 7.55597 14.8821 10.5102C15.2219 11.3674 15.8532 12.8803 15.9891 13.7285C16.1426 14.6909 14.6344 14.8207 13.854 14.9818C10.088 15.7562 6.01287 15.7383 2.24684 14.9818C1.6462 14.8609 0.221334 14.6864 0.0306213 14.1179C-0.0570628 13.8583 0.065695 13.6927 0.12269 13.4577C0.99953 9.81863 3.52264 5.25303 6.00629 2.26524C6.30003 1.91163 7.47281 0.503906 7.86739 0.450193ZM8.10633 2.00339L7.88273 2.06382C4.92997 5.54174 2.76402 9.19422 1.6307 13.4577C4.99558 14.1224 8.12941 14.3045 11.5557 13.8658C11.9415 13.8166 14.1763 13.5205 14.2224 13.3325C12.9553 9.11152 11.0131 5.50369 8.10633 2.00339Z" fill="#364153"/>
</svg>
