<?xml version="1.0" encoding="UTF-8"?>
<svg id="Layer_1" xmlns="http://www.w3.org/2000/svg" version="1.1" viewBox="0 0 16 16">
  <!-- Generator: Adobe Illustrator 30.1.0, SVG Export Plug-In . SVG Version: 2.1.1 Build 136)  -->
  <defs>
    <style>
      .st0 {
        fill: #364153;
      }
    </style>
  </defs>
  <path class="st0" d="M12.04,1.3H3.96c-.92,0-1.66.75-1.66,1.66v10.52c0,.67.55,1.22,1.22,1.22.31,0,.61-.12.84-.33l3.42-3.23h0c.12-.11.33-.11.44,0l3.42,3.23c.23.21.53.33.84.33.67,0,1.22-.55,1.22-1.22V2.96c0-.92-.75-1.66-1.66-1.66ZM9.18,10.12c-.66-.62-1.71-.62-2.36,0h0s-3.12,2.94-3.12,2.94V2.96c0-.15.12-.26.26-.26h8.07c.15,0,.26.12.26.26v10.1l-3.12-2.94Z"/>
</svg>