<svg width="16" height="16" viewBox="0 0 16 16" fill="none" xmlns="http://www.w3.org/2000/svg">
<path d="M15 8C15 7.73881 14.8945 7.51632 14.7026 7.32285L7.54478 0.270859C7.38166 0.0967352 7.16098 0 6.91151 0C6.39339 0 6 0.396614 6 0.909311C6 1.16082 6.10554 1.39299 6.26866 1.55744L12.8028 8L6.26866 14.4329C6.10554 14.607 6 14.8295 6 15.081C6 15.6034 6.39339 16 6.91151 16C7.16098 16 7.38166 15.9033 7.54478 15.7291L14.7026 8.67715C14.8945 8.48368 15 8.25151 15 8Z" fill="white"/>
<path opacity="0.5" d="M10 8C10 7.73881 9.89446 7.51632 9.70256 7.32285L2.54478 0.270859C2.38166 0.0967352 2.16098 0 1.91151 0C1.39339 0 1 0.396614 1 0.909311C1 1.16082 1.10554 1.39299 1.26866 1.55744L7.80277 8L1.26866 14.4329C1.10554 14.607 1 14.8295 1 15.081C1 15.6034 1.39339 16 1.91151 16C2.16098 16 2.38166 15.9033 2.54478 15.7291L9.70256 8.67715C9.89446 8.48368 10 8.25151 10 8Z" fill="white"/>
</svg>
