<?xml version="1.0" encoding="UTF-8"?>
<svg id="Layer_1" xmlns="http://www.w3.org/2000/svg" version="1.1" viewBox="0 0 16 16">
  <!-- Generator: Adobe Illustrator 30.1.0, SVG Export Plug-In . SVG Version: 2.1.1 Build 136)  -->
  <defs>
    <style>
      .st0 {
        fill: #364153;
      }
    </style>
  </defs>
  <path class="st0" d="M15.26,12.99h-.07c.25-1.61-.01-8-.02-10.13.03,0,.07,0,.1,0,.99,0,.99-1.44,0-1.44H.77C-.05,1.43-.44,2.66.77,2.86c.03,0,.08,0,.12.01v10.11h-.12c-.82,0-1.21,1.23,0,1.44,1.94.33,11.59,0,14.49,0,.99,0,.99-1.44,0-1.44ZM9.61,5.36v1.23c-1.13.01-2.32.03-3.43.05,0-.44-.02-.87-.03-1.29h3.46ZM6.12,4.08c0-.41-.01-.78-.02-1.07,1.14,0,2.34-.03,3.51-.05v1.07c-1.15.01-2.36.03-3.49.05ZM13.87,9.06c-.67-.05-1.68-.06-2.84-.06,0-.35-.01-.7-.02-1.06h2.86v1.12ZM13.87,6.65c-.68-.05-1.7-.07-2.89-.06,0-.42-.02-.83-.03-1.23h2.92v1.29ZM4.81,6.67c-1.05.02-1.94.04-2.55.04-.01-.47-.02-.92-.03-1.35h2.58v1.31ZM2.29,7.93h2.52v1.15c-1.03.02-1.9.03-2.51.04,0-.39-.01-.78-.02-1.18ZM6.21,7.93h3.4v1.07c-1.11.01-2.28.03-3.39.05,0-.37-.01-.74-.02-1.12ZM9.61,10.34v2.66h-3.49c.08-.51.11-1.48.11-2.66h3.38ZM11.03,10.34h2.84v2.66h-2.94c.08-.51.11-1.48.11-2.66ZM13.87,4.08c-.69-.05-1.74-.07-2.95-.06,0-.42-.01-.79-.02-1.08,1.1-.02,2.12-.04,2.96-.05v1.2ZM4.81,3.01v1.09c-1.08.02-2,.04-2.61.04,0-.46-.02-.85-.02-1.17.73.03,1.62.04,2.63.04ZM2.2,12.99c.08-.51.11-1.48.11-2.66h2.5v2.66h-2.61Z"/>
</svg>