<svg width="16" height="16" viewBox="0 0 16 16" fill="none" xmlns="http://www.w3.org/2000/svg">
<path d="M9.21973 2C9.85965 2 10.1896 2.16031 10.5195 2.49023L11.0195 3C11.3295 3.31 11.4905 3.38965 11.9805 3.38965H13.6602C15.0299 3.3897 15.7596 4.07993 15.7598 5.38965H15.7695C15.7695 5.38965 16.0098 7.17016 16.0098 8.41016C16.0097 9.65018 15.7695 11.7402 15.7695 11.7402C15.7694 13.0501 15.0398 13.75 13.6699 13.75C13.6511 13.7514 10.2139 14 8 14C5.79217 14 2.35789 13.7527 2.32031 13.75C0.950394 13.75 0.219814 13.0501 0.219727 11.7402C0.219727 11.7402 0 9.7898 0 8.5498C2.31209e-05 7.3098 0.219727 5.38965 0.219727 5.38965C0.219855 4.08001 0.939972 3.38979 2.30957 3.38965H3.96973C4.45964 3.38965 4.62978 3.30987 4.92969 3L5.42969 2.49023C5.75969 2.16023 6.09047 2 6.73047 2H9.21973ZM7.09961 3.28027C6.54991 3.28032 6.35968 3.38032 6.00977 3.74023L5.54004 4.24023C5.2201 4.57013 4.92998 4.66991 4.37012 4.66992H2.41016C1.85023 4.66992 1.54012 4.93993 1.54004 5.50977C1.54004 5.50977 1.32034 7.3598 1.32031 8.5498C1.32031 9.7398 1.54004 11.6201 1.54004 11.6201C1.54008 12.19 1.85019 12.4697 2.41016 12.4697C2.43495 12.4714 5.81823 12.7002 7.99023 12.7002C10.1564 12.7002 13.5169 12.4726 13.5596 12.4697C14.1295 12.4697 14.4404 12.19 14.4404 11.6201H14.4502C14.4502 11.6201 14.6904 9.61017 14.6904 8.41016C14.6904 7.21016 14.4502 5.50977 14.4502 5.50977C14.4501 4.94003 14.13 4.67002 13.5703 4.66992H11.5801C11.0102 4.66992 10.7301 4.57008 10.4102 4.24023L9.92969 3.73047C9.58969 3.38047 9.38961 3.28027 8.84961 3.28027H7.09961ZM7.7998 4.63965C9.86965 4.63965 11.5593 6.32963 11.5596 8.39941C11.5596 10.4694 9.8698 12.1602 7.7998 12.1602C5.72991 12.16 4.04004 10.4693 4.04004 8.39941C4.0403 6.32971 5.73007 4.63978 7.7998 4.63965ZM7.7998 6.04004C6.50007 6.04017 5.44069 7.09971 5.44043 8.39941C5.44043 9.69934 6.49991 10.7596 7.7998 10.7598C9.0998 10.7598 10.1602 9.69941 10.1602 8.39941C10.1599 7.09963 9.09965 6.04004 7.7998 6.04004Z" fill="#222A35"/>
</svg>
