<svg width="16" height="16" viewBox="0 0 16 16" fill="none" xmlns="http://www.w3.org/2000/svg">
<g clip-path="url(#clip0_1521_18307)">
<path d="M14.5722 2.15183C13.2422 0.837169 7.60845 0.935211 5.52656 1.08005C1.61116 1.35412 0.866012 2.07607 0.59505 4.9906C0.418925 6.87346 0.184091 10.735 3.03371 11.4525C4.00917 11.6976 6.09332 11.8758 8.24069 11.8692C8.12327 12.2725 8.01941 12.7449 7.81393 13.5025C7.66038 14.0707 8.13005 15.1268 8.94519 14.9842C10.2029 14.7659 12.9622 12.8028 14.5677 10.7105C15.708 9.22647 15.9044 3.46871 14.5677 2.14737L14.5722 2.15183ZM13.7119 9.41365C13.1451 10.6681 10.2436 13.4512 9.42389 13.4512C9.04229 13.4512 9.92517 11.0915 10.1916 10.5233C10.1916 10.5233 10.0358 10.5322 9.90936 10.5389C8.43036 10.6124 3.43338 10.6503 2.56856 9.83701C1.62019 8.94349 1.58632 3.823 2.67017 2.98519C3.27757 2.51726 4.79044 2.47047 5.68913 2.41476C7.25168 2.31895 12.4903 2.19862 13.4183 3.07209C14.3667 3.96338 14.2222 8.29062 13.7141 9.41365H13.7119Z" fill="#364153"/>
</g>
<defs>
<clipPath id="clip0_1521_18307">
<rect width="15" height="14" fill="white" transform="translate(0.5 1)"/>
</clipPath>
</defs>
</svg>
