<?xml version="1.0" encoding="UTF-8"?>
<svg id="Layer_1" xmlns="http://www.w3.org/2000/svg" version="1.1" viewBox="0 0 16 16">
  <!-- Generator: Adobe Illustrator 30.1.0, SVG Export Plug-In . SVG Version: 2.1.1 Build 136)  -->
  <defs>
    <style>
      .st0 {
        fill: #364153;
      }
    </style>
  </defs>
  <path class="st0" d="M7.11,7.37v4.83c0,.33,1.64.33,1.64,0,0-.96.32-4.19,0-4.83-.2-.4-1.64-.27-1.64,0Z"/>
  <path class="st0" d="M8.75,5.61c0-.39.32-1.69,0-1.95-.2-.16-1.64-.11-1.64,0v1.95c0,.13,1.63.13,1.64,0Z"/>
  <path class="st0" d="M8,0C3.58,0,0,3.58,0,8c0,4.42,3.58,8,8,8s8-3.58,8-8S12.42,0,8,0ZM8,14.55c-3.62,0-6.55-2.93-6.55-6.55,0-3.62,2.93-6.55,6.55-6.55s6.55,2.93,6.55,6.55-2.93,6.55-6.55,6.55Z"/>
</svg>