<?xml version="1.0" encoding="UTF-8"?>
<svg id="Layer_1" xmlns="http://www.w3.org/2000/svg" version="1.1" viewBox="0 0 16 16">
  <!-- Generator: Adobe Illustrator 30.1.0, SVG Export Plug-In . SVG Version: 2.1.1 Build 136)  -->
  <defs>
    <style>
      .st0 {
        fill: #364153;
      }
    </style>
  </defs>
  <path class="st0" d="M15.5,7.38c-.1-.23-.24-.49-.42-.75-.28-.41-.77-1.03-1.57-1.69-.93-.78-2.89-2.09-5.51-2.09s-4.55,1.31-5.49,2.09c-.8.66-1.3,1.29-1.58,1.69-.18.27-.33.52-.43.75-.1.24-.15.45-.15.62s.05.38.15.61c.1.23.24.48.43.75.28.41.78,1.04,1.58,1.69.94.78,2.9,2.09,5.49,2.09s4.58-1.31,5.51-2.09c.79-.66,1.29-1.29,1.56-1.69.18-.27.32-.52.42-.75.1-.24.15-.44.15-.61s-.05-.38-.15-.62ZM12.47,10.2c-.81.62-2.46,1.67-4.47,1.67s-3.67-1.05-4.47-1.67c-.53-.41-1.01-.87-1.35-1.32-.15-.19-.28-.38-.36-.54-.1-.19-.11-.29-.11-.34,0-.02,0-.11.11-.3.08-.15.21-.34.36-.53.35-.44.83-.91,1.35-1.32.81-.64,2.48-1.72,4.47-1.72s3.65,1.08,4.47,1.72c.52.41,1,.88,1.36,1.32.15.19.28.37.36.53.1.19.11.28.11.3,0,.04-.01.15-.11.34-.08.16-.21.35-.36.54-.35.45-.83.91-1.36,1.32Z"/>
  <path class="st0" d="M8,4.62c-1.76,0-3.18,1.51-3.18,3.37s1.43,3.37,3.18,3.37,3.18-1.51,3.18-3.37-1.43-3.37-3.18-3.37ZM8,8.9c-.47,0-.85-.41-.85-.91s.38-.91.85-.91.85.41.85.91-.38.91-.85.91Z"/>
</svg>