<svg width="16" height="16" viewBox="0 0 16 16" fill="none" xmlns="http://www.w3.org/2000/svg">
<g clip-path="url(#clip0_1598_18488)">
<path d="M15.0102 1.73416C13.5916 0.325599 7.58228 0.430645 5.3616 0.585825C1.18517 0.879475 0.390347 1.65299 0.101321 4.7757C-0.0865455 6.79305 -0.337035 10.9304 2.70256 11.6991C3.74305 11.9618 5.96614 12.1528 8.25667 12.1456C8.13143 12.5777 8.02063 13.0838 7.80146 13.8955C7.63768 14.5043 8.13865 15.636 9.00814 15.4832C10.3497 15.2492 13.293 13.1459 15.0054 10.9041C16.2217 9.31414 16.4313 3.14511 15.0054 1.72939L15.0102 1.73416ZM14.0926 9.51468C13.488 10.8588 10.3931 13.8406 9.51875 13.8406C9.11171 13.8406 10.0535 11.3124 10.3377 10.7036C10.3377 10.7036 10.1715 10.7132 10.0366 10.7203C8.45899 10.7991 3.12887 10.8397 2.20639 9.96829C1.1948 9.01094 1.15867 3.52471 2.31478 2.62705C2.96268 2.12569 4.57641 2.07556 5.53501 2.01587C7.20173 1.91322 12.7896 1.7843 13.7795 2.72016C14.7911 3.67511 14.6369 8.31143 14.095 9.51468H14.0926Z" fill="#364153"/>
<path d="M5.98644 5.5445C5.62841 5.36528 5.48314 4.92987 5.66205 4.57167L5.66252 4.56995L5.66361 4.56931C5.66398 4.56858 5.66388 4.56755 5.66431 4.56672L5.70367 4.49581C5.72535 4.45824 5.75581 4.40731 5.79526 4.35094C5.86624 4.24952 5.99934 4.07908 6.19461 3.94881C6.40492 3.80854 6.75901 3.67586 7.15975 3.8362C7.51117 3.97685 7.73072 4.28148 7.87551 4.57139C8.01711 4.85492 8.02783 5.15098 7.99876 5.39312C7.96946 5.63706 7.89369 5.87724 7.8041 6.09541C7.62506 6.53132 7.34853 6.98296 7.07943 7.37312C6.80627 7.76916 6.52012 8.13095 6.30466 8.39209C6.19644 8.52325 6.10451 8.63021 6.03933 8.70517C6.00678 8.7426 5.98124 8.77251 5.96302 8.79303C5.95401 8.80318 5.94685 8.81133 5.9418 8.81696C5.93928 8.81977 5.93686 8.82196 5.9354 8.82358C5.93466 8.82439 5.93429 8.82543 5.93384 8.82594L5.93274 8.82657C5.66394 9.1236 5.20517 9.14664 4.90812 8.87787C4.61106 8.60905 4.58908 8.14967 4.85791 7.85262C4.85866 7.85179 4.85933 7.84978 4.86103 7.8479C4.8646 7.84392 4.87056 7.83774 4.87804 7.82931C4.89307 7.81239 4.91571 7.78688 4.9446 7.75365C5.00273 7.6868 5.08653 7.58929 5.18559 7.46923C5.3849 7.22765 5.64295 6.89994 5.88472 6.54941C6.11263 6.21898 6.30767 5.8908 6.43194 5.60925C6.28529 5.63421 6.12969 5.61611 5.98644 5.5445Z" fill="#364153"/>
<path d="M9.65538 5.5445C9.29736 5.36528 9.15209 4.92987 9.331 4.57167L9.33146 4.56995L9.33256 4.56931C9.33293 4.56858 9.33283 4.56755 9.33325 4.56672L9.37262 4.49581C9.39429 4.45824 9.42476 4.40731 9.4642 4.35094C9.53518 4.24952 9.66829 4.07908 9.86355 3.94881C10.0739 3.80854 10.428 3.67586 10.8287 3.8362C11.1801 3.97685 11.3997 4.28148 11.5445 4.57139C11.6861 4.85492 11.6968 5.15098 11.6677 5.39312C11.6384 5.63706 11.5626 5.87724 11.4731 6.09541C11.294 6.53132 11.0175 6.98296 10.7484 7.37312C10.4752 7.76916 10.1891 8.13095 9.9736 8.39209C9.86538 8.52325 9.77346 8.63021 9.70827 8.70517C9.67573 8.7426 9.65019 8.77251 9.63197 8.79303C9.62295 8.80318 9.6158 8.81133 9.61074 8.81696C9.60822 8.81977 9.6058 8.82196 9.60434 8.82358C9.60361 8.82439 9.60324 8.82543 9.60278 8.82594L9.60169 8.82657C9.33288 9.1236 8.87412 9.14664 8.57706 8.87787C8.28001 8.60905 8.25803 8.14967 8.52686 7.85262C8.5276 7.85179 8.52828 7.84978 8.52997 7.8479C8.53354 7.84392 8.5395 7.83774 8.54698 7.82931C8.56202 7.81239 8.58465 7.78688 8.61354 7.75365C8.67168 7.6868 8.75547 7.58929 8.85453 7.46923C9.05385 7.22765 9.31189 6.89994 9.55367 6.54941C9.78157 6.21898 9.97661 5.8908 10.1009 5.60925C9.95424 5.63421 9.79863 5.61611 9.65538 5.5445Z" fill="#364153"/>
</g>
<defs>
<clipPath id="clip0_1598_18488">
<rect width="16" height="15" fill="white" transform="translate(0 0.5)"/>
</clipPath>
</defs>
</svg>
