<?xml version="1.0" encoding="UTF-8"?>
<svg id="Layer_1" xmlns="http://www.w3.org/2000/svg" version="1.1" viewBox="0 0 16 16">
  <!-- Generator: Adobe Illustrator 30.1.0, SVG Export Plug-In . SVG Version: 2.1.1 Build 136)  -->
  <defs>
    <style>
      .st0 {
        fill: #364153;
      }
    </style>
  </defs>
  <path class="st0" d="M9.98,13.25h0s-.11-.09-.11-.09c-.12-.08-.25-.12-.4-.12-.2,0-.38.07-.52.21h0c-.14.15-.21.32-.21.53s.07.37.21.51c.14.14.32.22.53.22.2,0,.37-.08.51-.22h0c.14-.14.22-.31.22-.51s-.07-.38-.22-.52Z"/>
  <path class="st0" d="M6.94,3.39c-.11.11-.17.26-.17.42v3.86h-2.86c-.16,0-.3.06-.42.17-.11.11-.17.26-.17.42s.06.31.17.43c.11.11.26.17.42.17h3.45c.16,0,.3-.06.42-.17.12-.11.18-.26.18-.42V3.8c0-.16-.06-.31-.18-.42-.11-.11-.26-.17-.42-.17-.16,0-.31.06-.42.17ZM6.94,3.62s0,0,0-.01l.03-.06s-.03.05-.04.07ZM7.81,3.74v.07s0-.06,0-.08c0,0,0,0,0,.01Z"/>
  <path class="st0" d="M12.71,10.46c-.2,0-.38.07-.52.22h0c-.14.15-.21.32-.21.52,0,.2.07.37.21.52h0c.14.14.32.21.52.21.2,0,.37-.07.51-.21.14-.14.22-.32.22-.52,0-.2-.07-.37-.22-.52-.14-.14-.31-.22-.51-.22Z"/>
  <path class="st0" d="M11.82,12.27c-.14-.14-.31-.22-.51-.22-.2,0-.38.07-.52.22h0c-.14.15-.21.32-.21.52s.07.37.21.51c.14.14.32.22.52.22.2,0,.37-.08.51-.22h0c.14-.14.22-.31.22-.51s-.07-.38-.22-.52Z"/>
  <path class="st0" d="M15.5,7.08c0-.14-.05-.27-.16-.36h0s0,0,0,0h0s0,0,0,0c-.11-.09-.27-.13-.44-.13h-.82c-.09-.43-.22-.85-.39-1.26-.35-.83-.85-1.56-1.48-2.19h0c-.55-.55-1.18-1-1.88-1.34l-.31-.14c-.83-.35-1.71-.53-2.66-.53-.95,0-1.83.18-2.67.53-.83.35-1.56.85-2.19,1.48-.63.63-1.12,1.36-1.47,2.19-.35.83-.53,1.72-.53,2.67s.18,1.83.53,2.66c.35.83.84,1.56,1.47,2.19h0c.63.63,1.36,1.12,2.19,1.47h0c.83.36,1.72.54,2.67.54.19,0,.35-.07.48-.2.13-.13.2-.3.21-.49,0-.19-.07-.36-.21-.49-.13-.13-.3-.21-.48-.21-.76,0-1.47-.14-2.13-.42-.58-.25-1.1-.58-1.55-1l-.19-.18c-.5-.5-.89-1.08-1.17-1.75-.28-.66-.42-1.37-.42-2.12s.14-1.46.42-2.12h0c.28-.67.67-1.25,1.17-1.75.5-.5,1.08-.9,1.75-1.18.66-.28,1.37-.42,2.13-.42s1.46.14,2.12.42c.58.25,1.1.58,1.55,1l.19.18c.5.5.9,1.08,1.18,1.74h0c.1.23.18.47.25.72h-.78c-.17,0-.33.04-.44.13-.11.09-.16.21-.16.36h0c0,.14.06.28.15.41h0s1.48,2.11,1.48,2.11h0c.12.17.28.28.48.29h0c.2,0,.36-.11.48-.29h0s1.48-2.1,1.48-2.1h0c.1-.14.16-.27.16-.42h0Z"/>
</svg>