<svg width="16" height="16" viewBox="0 0 16 16" fill="none" xmlns="http://www.w3.org/2000/svg">
<path d="M8 3.5C7.73881 3.5 7.51632 3.60554 7.32285 3.79744L0.270859 10.9552C0.0967352 11.1183 1.09045e-08 11.339 0 11.5885C-2.26479e-08 12.1066 0.396614 12.5 0.909311 12.5C1.16082 12.5 1.39299 12.3945 1.55744 12.2313L8 5.69723L14.4329 12.2313C14.607 12.3945 14.8295 12.5 15.081 12.5C15.6034 12.5 16 12.1066 16 11.5885C16 11.339 15.9033 11.1183 15.7291 10.9552L8.67715 3.79744C8.48368 3.60554 8.25151 3.5 8 3.5Z" fill="#222A35"/>
</svg>
