<svg width="16" height="16" viewBox="0 0 16 16" fill="none" xmlns="http://www.w3.org/2000/svg">
<path d="M11.6181 3.23715C11.9343 2.92128 12.4467 2.92121 12.7629 3.23715C13.079 3.55334 13.079 4.06658 12.7629 4.38278L9.14519 7.99956L12.7629 11.6181C13.0789 11.9343 13.079 12.4467 12.7629 12.7629C12.4467 13.079 11.9343 13.0789 11.6181 12.7629L7.99956 9.14519L4.38278 12.7629C4.06658 13.079 3.55334 13.079 3.23715 12.7629C2.92121 12.4467 2.92128 11.9343 3.23715 11.6181L6.85481 7.99956L3.23715 4.38278C2.92095 4.06658 2.92095 3.55334 3.23715 3.23715C3.55334 2.92095 4.06658 2.92095 4.38278 3.23715L7.99956 6.85481L11.6181 3.23715Z" fill="#222A35"/>
</svg>
