<svg width="16" height="16" viewBox="0 0 16 16" fill="none" xmlns="http://www.w3.org/2000/svg">
<path d="M1 11.8717C1 11.1131 1.70722 10.4618 2.3567 9.83206C2.86907 9.33826 2.98454 8.35067 3.07835 7.37023C3.17217 4.65792 3.96598 2.84733 5.84948 2.16746C6.12371 1.22281 6.92474 0.5 8 0.5C9.07526 0.5 9.87629 1.22281 10.1505 2.16746C12.034 2.84733 12.8278 4.65792 12.9216 7.37023C13.0155 8.35067 13.1381 9.33826 13.6433 9.83206C14.3 10.4618 15 11.1131 15 11.8717C15 12.4728 14.5454 12.8807 13.7948 12.8807H10.8289C10.7639 14.2548 9.63814 15.5 8 15.5C6.36186 15.5 5.23608 14.2476 5.17113 12.8807H2.20515C1.46186 12.8807 1 12.4728 1 11.8717ZM6.53505 12.8807C6.59278 13.7753 7.18454 14.355 8 14.355C8.82268 14.355 9.41443 13.7753 9.46495 12.8807H6.53505Z" fill="#364153"/>
</svg>
