<?xml version="1.0" encoding="UTF-8"?>
<svg id="Layer_1" xmlns="http://www.w3.org/2000/svg" version="1.1" viewBox="0 0 16 16">
  <!-- Generator: Adobe Illustrator 30.1.0, SVG Export Plug-In . SVG Version: 2.1.1 Build 136)  -->
  <defs>
    <style>
      .st0 {
        fill: #364153;
      }
    </style>
  </defs>
  <path class="st0" d="M11.88,15.49c-.34,0-.76-.12-1.24-.46l-2.64-1.95-2.64,1.94c-1.09.79-1.87.37-2.16.15-.6-.46-.78-1.22-.48-2.07l1.05-3.1-2.66-1.9C.02,7.33.17,6.45.29,6.11c.12-.34.53-1.11,1.82-1.11h3.27l1-3.1c.38-1.21,1.19-1.39,1.63-1.39s1.24.18,1.63,1.39l1,3.09h3.26c1.3,0,1.71.78,1.82,1.11.12.35.27,1.23-.81,2l-2.66,1.9,1.05,3.1c.29.85.11,1.61-.49,2.07-.19.15-.5.32-.91.32ZM2.11,6.49c-.21,0-.38.04-.4.1-.02.05.12.19.27.29l3.57,2.55-1.4,4.15s-.11.33-.02.4h.01s.11,0,.35-.17l3.53-2.59,3.52,2.6c.25.18.36.17.36.17.09-.07,0-.37-.02-.4l-1.4-4.16,3.57-2.55c.21-.15.26-.26.27-.28-.03-.08-.23-.11-.41-.11h-4.36l-1.33-4.14c-.09-.29-.18-.35-.18-.35-.04,0-.13.06-.22.35l-1.33,4.14H2.11Z"/>
</svg>