<svg width="16" height="16" viewBox="0 0 16 16" fill="none" xmlns="http://www.w3.org/2000/svg">
<path d="M12.9795 8.40869C13.1647 8.41711 13.3246 8.45911 13.4678 8.60205C13.7459 8.88013 13.729 9.27637 13.4678 9.5376C13.3414 9.6639 13.139 9.74878 12.9453 9.73193L11.2432 9.66455L10.5527 9.59717L11.4795 10.4224L14.2861 13.229L14.2939 13.2202C14.572 13.5067 14.5804 13.9952 14.2939 14.2817C13.999 14.5767 13.5189 14.5682 13.2324 14.2817L10.4258 11.4761L9.60059 10.5493L9.66797 11.2397L9.73535 12.9419C9.74378 13.1441 9.67585 13.3295 9.54102 13.4644C9.27978 13.7171 8.87572 13.7424 8.59766 13.4644C8.46287 13.3295 8.41211 13.1611 8.41211 12.9673L8.44629 9.23389C8.44639 8.97291 8.53029 8.78758 8.66504 8.65283C8.79986 8.51805 8.96867 8.44189 9.23828 8.44189L12.9795 8.40869ZM1.71289 1.71826C2.00783 1.42333 2.4879 1.43175 2.77441 1.71826L5.58008 4.52393L6.40625 5.45068L6.33887 4.76025L6.27148 3.05811C6.25485 2.86681 6.32841 2.67511 6.45996 2.54053C6.72122 2.28232 7.11562 2.2665 7.39258 2.54346C7.53574 2.67826 7.58594 2.83896 7.58594 3.03271L7.55273 6.77393C7.56115 7.03513 7.47662 7.21235 7.3418 7.34717C7.20697 7.48198 7.02098 7.56592 6.75977 7.56592L3.02734 7.6001C2.83368 7.6001 2.66505 7.54914 2.53027 7.41455C2.24376 7.13647 2.26904 6.73144 2.53027 6.47021C2.66509 6.33561 2.85909 6.26002 3.05273 6.27686L4.75488 6.34424L5.44531 6.41162L4.51855 5.58545L1.71289 2.77979C1.42638 2.49328 1.41795 2.0132 1.71289 1.71826Z" fill="#364153"/>
</svg>
