<?xml version="1.0" encoding="UTF-8"?>
<svg id="Layer_1" xmlns="http://www.w3.org/2000/svg" version="1.1" viewBox="0 0 16 16">
  <!-- Generator: Adobe Illustrator 30.1.0, SVG Export Plug-In . SVG Version: 2.1.1 Build 136)  -->
  <defs>
    <style>
      .st0 {
        fill: #364153;
      }
    </style>
  </defs>
  <path class="st0" d="M1,11.87c0-.76.71-1.41,1.36-2.04.51-.49.63-1.48.72-2.46.09-2.71.89-4.52,2.77-5.2.27-.94,1.08-1.67,2.15-1.67s1.88.72,2.15,1.67c1.88.68,2.68,2.49,2.77,5.2.09.98.22,1.97.72,2.46.66.63,1.36,1.28,1.36,2.04,0,.6-.45,1.01-1.21,1.01h-2.97c-.07,1.37-1.19,2.62-2.83,2.62s-2.76-1.25-2.83-2.62h-2.97c-.74,0-1.21-.41-1.21-1.01ZM2.72,11.57h10.54v-.09c-.18-.21-.58-.59-.95-.99-.49-.57-.73-1.59-.8-2.95-.08-2.91-.98-3.87-2.14-4.19-.18-.04-.28-.13-.3-.32-.03-.73-.44-1.22-1.08-1.22s-1.04.49-1.08,1.22c-.01.19-.12.28-.29.32-1.17.31-2.06,1.28-2.15,4.19-.07,1.36-.3,2.38-.8,2.95-.35.41-.77.79-.96.99v.09ZM6.54,12.88c.06.89.65,1.47,1.46,1.47s1.41-.58,1.46-1.47h-2.93Z"/>
</svg>