<?xml version="1.0" encoding="UTF-8"?>
<svg id="Layer_1" xmlns="http://www.w3.org/2000/svg" version="1.1" viewBox="0 0 19 18">
  <!-- Generator: Adobe Illustrator 30.1.0, SVG Export Plug-In . SVG Version: 2.1.1 Build 136)  -->
  <defs>
    <style>
      .st0 {
        fill: #364153;
      }
    </style>
  </defs>
  <path class="st0" d="M17.42,1.91h0C15.78-.27,8.8-.11,6.22.13,1.37.59.45,1.78.12,6.61c-.22,3.12-.51,9.51,3.02,10.7,2.73.92,12.51,1.27,14.28-1.22,1.6-2.25,1.65-11.99,0-14.18ZM16.44,14.26h0c-.61,1.83-3,1.88-4.71,2-1.83.13-8.02.2-9.09-1.25-1.17-1.59-1.22-10.7.13-12.19.75-.83,2.63-.92,3.74-1.01,1.93-.17,8.42-.38,9.57,1.17,1.17,1.59,1.02,9.3.37,11.28Z"/>
  <path class="st0" d="M13,6.32c-1.48,0-2.68,1.2-2.68,2.68s1.2,2.68,2.68,2.68,2.68-1.2,2.68-2.68-1.2-2.68-2.68-2.68ZM13,10c-.55,0-1-.45-1-1s.45-1,1-1,1,.45,1,1-.45,1-1,1Z"/>
</svg>