<?xml version="1.0" encoding="UTF-8"?>
<svg id="Layer_1" xmlns="http://www.w3.org/2000/svg" version="1.1" viewBox="0 0 16 16">
  <!-- Generator: Adobe Illustrator 30.1.0, SVG Export Plug-In . SVG Version: 2.1.1 Build 136)  -->
  <defs>
    <style>
      .st0 {
        fill: #364153;
      }
    </style>
  </defs>
  <path class="st0" d="M12.52,7.21c0-.28-.21-.48-.5-.48h-3.64l1.91-5.06c.27-.71-.47-1.08-.94-.51l-5.88,7.18c-.12.14-.17.28-.17.43,0,.28.21.48.5.48h3.64l-1.9,5.06c-.28.71.46,1.08.94.51l5.88-7.18c.12-.15.17-.28.17-.44Z"/>
  <path class="st0" d="M15.69,5.81c-.37-1.31-1.08-2.51-2.04-3.47-.33-.33-.87-.33-1.2,0-.33.33-.33.87,0,1.2.76.76,1.31,1.7,1.6,2.73.29,1.03.32,2.13.07,3.17s-.75,2.01-1.48,2.8c-.72.79-1.64,1.39-2.65,1.73-.45.15-.69.63-.54,1.08.12.36.45.58.81.58.09,0,.18-.01.27-.04,1.29-.43,2.45-1.19,3.37-2.2.92-1,1.56-2.24,1.87-3.56.31-1.32.28-2.71-.09-4.02Z"/>
  <path class="st0" d="M1.91,9.62c-.26-.97-.28-2.01-.06-2.99.22-.98.68-1.91,1.33-2.68.65-.77,1.48-1.38,2.41-1.77.43-.18.64-.68.46-1.11-.18-.43-.68-.64-1.11-.46-1.18.49-2.24,1.27-3.07,2.25-.82.98-1.41,2.16-1.68,3.41-.28,1.25-.25,2.56.08,3.8.33,1.24.96,2.39,1.83,3.33.17.18.4.28.63.28.21,0,.41-.07.57-.22.35-.32.37-.85.05-1.2-.68-.74-1.18-1.65-1.44-2.63Z"/>
</svg>