<svg width="16" height="16" viewBox="0 0 16 16" fill="none" xmlns="http://www.w3.org/2000/svg">
<path d="M10.2829 2.23048C10.0529 2.20048 9.60288 2.25048 9.28288 2.40048C7.72288 3.12048 4.48288 6.71048 3.40288 8.42048C2.42288 9.95048 2.06288 13.0405 2.74288 13.5505C3.39288 14.0405 6.77288 13.7405 8.15288 12.6305C9.74288 11.3505 13.0829 7.66048 13.5429 6.06048C14.0429 4.35048 11.4929 2.40048 10.2829 2.23048ZM12.2929 5.79048C12.1629 6.08048 11.8029 6.58048 11.3429 7.18048C10.8629 6.68048 9.83288 5.98048 9.50288 5.69048C9.36288 5.57048 8.61288 6.34048 8.75288 6.46048L10.6029 8.10048C9.43288 9.51048 7.99288 11.0905 7.28288 11.7105C6.43288 12.4505 3.86288 12.5505 3.73288 12.4505V12.4305H3.71288C3.47288 12.2105 3.76288 10.3005 4.51288 9.21048C5.43288 7.87048 8.26288 4.74048 9.42288 3.84048C10.3629 3.12048 11.2029 4.07048 11.5229 4.31048C11.9829 4.65048 12.5329 5.33048 12.2929 5.79048Z" fill="#222A35"/>
</svg>
