<svg width="16" height="16" viewBox="0 0 16 16" fill="none" xmlns="http://www.w3.org/2000/svg">
<path d="M2.68125 13.5C0.95625 13.5 0 12.6292 0 10.9389V5.16997C0 3.47322 1 2.5 2.68125 2.5H9.13125C10.8563 2.5 11.8188 3.47322 11.8188 5.16356V5.84226L13.8875 4.04307C14.25 3.72934 14.5875 3.51804 14.9563 3.51804C15.5625 3.51804 16 3.95343 16 4.64494V11.4383C16 12.1234 15.5625 12.5652 14.9563 12.5652C14.5938 12.5652 14.25 12.3539 13.8875 12.0402L11.8188 10.2346V10.83C11.8188 12.5268 10.8563 13.5 9.13125 13.5H2.68125ZM2.9375 12.0466H8.86875C9.76875 12.0466 10.3 11.5279 10.3 10.5931V5.40047C10.3 4.46566 9.78125 3.94703 8.875 3.94703H2.9375C2.03125 3.94703 1.51875 4.43364 1.51875 5.40047V10.5931C1.51875 11.5279 2.03125 12.0466 2.9375 12.0466ZM14.3625 10.7084C14.4063 10.7404 14.4438 10.7724 14.4875 10.7724C14.55 10.7724 14.5875 10.7276 14.5875 10.6508V5.43248C14.5875 5.35565 14.55 5.31083 14.4875 5.31083C14.4438 5.31083 14.4063 5.33644 14.3625 5.37485L11.8188 7.46857V8.60827L14.3625 10.7084Z" fill="#222A35"/>
</svg>
