<svg width="12" height="12" viewBox="0 0 12 12" fill="none" xmlns="http://www.w3.org/2000/svg">
<g clip-path="url(#clip0_405_2488)">
<path d="M11.4799 7.02002H7.52993C7.04993 7.02002 6.84993 7.55002 7.12993 7.95002L9.05993 10.83C9.33993 11.22 9.67993 11.21 9.94993 10.83L11.8799 7.95002C12.1499 7.56002 11.9599 7.03002 11.4799 7.03002V7.02002Z" fill="#2A2F35"/>
<path d="M3.2 9.01001H0.75C0.33 9.01001 0 9.35001 0 9.76001C0 10.16 0.34 10.51 0.75 10.51H3.2C3.62 10.51 3.95 10.17 3.95 9.76001C3.95 9.34001 3.62 9.01001 3.2 9.01001Z" fill="#2A2F35"/>
<path d="M5.18 5.19H0.74C0.33 5.19 0 5.53 0 5.94C0 6.34 0.34 6.69 0.74 6.69H5.18C5.6 6.69 5.92 6.34 5.92 5.94C5.92 5.52 5.59 5.19 5.18 5.19Z" fill="#2A2F35"/>
<path d="M0.74 2.88H8.07C8.48 2.88 8.81 2.54 8.81 2.13C8.81 1.72 8.48 1.38 8.07 1.38H0.74C0.33 1.38 0 1.72 0 2.13C0 2.53 0.33 2.88 0.74 2.88Z" fill="#2A2F35"/>
<path d="M8.75 4.60999V7.05999C8.75 7.47999 9.09 7.80999 9.5 7.80999C9.9 7.80999 10.25 7.46999 10.25 7.05999V4.60999C10.25 4.18999 9.91 3.85999 9.5 3.85999C9.08 3.85999 8.75 4.18999 8.75 4.60999Z" fill="#2A2F35"/>
</g>
<defs>
<clipPath id="clip0_405_2488">
<rect width="12" height="10.24" fill="white" transform="translate(0 0.880005)"/>
</clipPath>
</defs>
</svg>
