<svg width="16" height="16" viewBox="0 0 16 16" fill="none" xmlns="http://www.w3.org/2000/svg">
<path d="M7.32227 0.000976562C11.1697 0.00121651 14.2881 3.12032 14.2881 6.96777C14.288 8.78108 13.5943 10.4316 12.459 11.6709L15.5146 14.7266C15.5533 14.7652 15.5815 14.8079 15.6025 14.8525C15.6076 14.8633 15.6131 14.8737 15.6172 14.8848C15.6362 14.9355 15.6441 14.9889 15.6445 15.0439C15.6446 15.0508 15.6447 15.0576 15.6445 15.0645C15.6442 15.0742 15.6424 15.0839 15.6416 15.0938C15.639 15.1254 15.6346 15.1573 15.627 15.1895C15.6233 15.2049 15.618 15.2199 15.6133 15.2354C15.605 15.2623 15.5963 15.2895 15.585 15.3164C15.58 15.3282 15.5749 15.3399 15.5693 15.3516C15.5555 15.3808 15.5404 15.4098 15.5234 15.4385C15.5106 15.4601 15.4959 15.4808 15.4814 15.502C15.4684 15.5209 15.4556 15.5402 15.4414 15.5586C15.4254 15.5794 15.4081 15.5992 15.3906 15.6191C15.3758 15.6361 15.3615 15.6536 15.3457 15.6699C15.328 15.6881 15.3087 15.7045 15.29 15.7217C15.2715 15.7388 15.2528 15.7556 15.2334 15.7715C15.2155 15.7862 15.1972 15.7999 15.1787 15.8135C15.1576 15.8289 15.137 15.8445 15.1152 15.8584C15.0992 15.8686 15.0827 15.8775 15.0664 15.8867C15.0391 15.9022 15.0121 15.9171 14.9844 15.9297C14.9712 15.9357 14.9576 15.94 14.9443 15.9453C14.9159 15.9566 14.8879 15.9668 14.8594 15.9746C14.8437 15.9789 14.8281 15.9822 14.8125 15.9854C14.7865 15.9906 14.761 15.9942 14.7354 15.9961C14.7062 15.9983 14.6777 16.0005 14.6494 15.998C14.568 15.9909 14.4906 15.9647 14.4219 15.9131L14.3721 15.8691C12.8629 14.36 12.0301 13.9692 11.2432 12.7402C11.2409 12.7366 11.2386 12.7331 11.2363 12.7295C10.1207 13.4888 8.77364 13.9335 7.32227 13.9336C3.47481 13.9336 0.355709 10.8152 0.355469 6.96777C0.35549 3.12019 3.47468 0.000997056 7.32227 0.000976562ZM8.07812 3.66113C7.71641 3.53573 7.35853 3.8004 7.2998 4.17871C7.24113 4.5571 7.50824 4.90305 7.85547 5.06445C8.18305 5.21675 8.47615 5.44072 8.71094 5.72266C8.94562 6.00456 9.11268 6.33296 9.20312 6.68262C9.29901 7.05333 9.59087 7.37788 9.97363 7.38867C10.0193 7.38994 10.064 7.38618 10.1074 7.37891C10.1262 7.37576 10.1439 7.36889 10.1621 7.36426C10.187 7.35794 10.2117 7.35269 10.2354 7.34375C10.2524 7.33731 10.2679 7.32804 10.2842 7.32031C10.3072 7.3094 10.3302 7.29946 10.3516 7.28613C10.3661 7.27706 10.3789 7.26599 10.3926 7.25586C10.4132 7.24053 10.4337 7.22559 10.4521 7.20801C10.4658 7.19502 10.477 7.18014 10.4893 7.16602C10.5037 7.14946 10.5179 7.13323 10.5303 7.11523C10.5419 7.09831 10.5518 7.0806 10.5615 7.0625C10.5712 7.04461 10.5802 7.02675 10.5879 7.00781C10.6235 6.91981 10.6399 6.82219 10.624 6.71777C10.5187 6.02919 10.2277 5.37689 9.77637 4.83496C9.32508 4.29303 8.73626 3.8894 8.07812 3.66113Z" fill="#364153"/>
</svg>
