<?xml version="1.0" encoding="UTF-8"?>
<svg id="Layer_1" xmlns="http://www.w3.org/2000/svg" version="1.1" viewBox="0 0 16 16">
  <!-- Generator: Adobe Illustrator 30.1.0, SVG Export Plug-In . SVG Version: 2.1.1 Build 136)  -->
  <defs>
    <style>
      .st0 {
        fill: #364153;
      }
    </style>
  </defs>
  <path class="st0" d="M11.71,7.65h0c0,.31-.07.61-.15.91l1.23,1.16c.3-.63.49-1.31.52-2.01.04-1.1-.29-2.18-.93-3.1-.24-.34-.75-.37-1.08-.1-.33.27-.36.74-.13,1.1.38.61.58,1.33.55,2.05Z"/>
  <path class="st0" d="M13.94,1.8c-.26-.31-.74-.34-1.06-.08s-.35.71-.1,1.02c1.15,1.45,1.73,3.23,1.68,5.05-.04,1-.27,1.96-.68,2.87l1.16,1.09c.64-1.21,1.01-2.54,1.05-3.91.07-2.18-.66-4.31-2.05-6.04Z"/>
  <path class="st0" d="M7.06,2.6c.28-.27.77-.08.77.29v2.14l1.56,1.47v-3.61c0-1.65-2.06-2.49-3.33-1.42l-.12.11-.87.85,1.1,1.04.89-.87Z"/>
  <path class="st0" d="M1.48,1.95c-.31-.29-.82-.29-1.13,0C.04,2.25.04,2.73.35,3.02l.89.84c-.72.28-1.23.95-1.23,1.73v4.29c0,1.04.9,1.89,2,1.89h1.8l2.15,2.12c1.25,1.23,3.44.39,3.44-1.31v-1l3.4,3.21c.16.14.36.22.57.22h0c.2,0,.41-.08.57-.23.31-.29.31-.77,0-1.07L1.48,1.95ZM7.83,12.64c-.06.33-.51.48-.77.22l-2.48-2.43c-.08-.08-.2-.13-.32-.13H1.9c-.17-.04-.31-.17-.35-.34v-4.37c0-.24.2-.42.44-.42h.62l5.21,4.92v2.55Z"/>
</svg>