<?xml version="1.0" encoding="UTF-8"?>
<svg id="Layer_1" xmlns="http://www.w3.org/2000/svg" xmlns:xlink="http://www.w3.org/1999/xlink" version="1.1" viewBox="0 0 16 16">
  <!-- Generator: Adobe Illustrator 30.1.0, SVG Export Plug-In . SVG Version: 2.1.1 Build 136)  -->
  <defs>
    <style>
      .st0 {
        fill: none;
      }

      .st1 {
        fill: #374153;
      }

      .st2 {
        clip-path: url(#clippath);
      }
    </style>
    <clipPath id="clippath">
      <rect class="st0" x=".5" y="0" width="15" height="16"/>
    </clipPath>
  </defs>
  <g class="st2">
    <path class="st1" d="M14.09,6.6c-.27-.27-.74-.47-1.31-.62-.01-.14-.03-.3-.06-.5-.08-.52-.24-1.23-.56-1.94-.32-.71-.8-1.46-1.55-2.03-.75-.58-1.74-.94-2.99-.94-1.14,0-2.02.4-2.67,1.02-.64.6-1.03,1.38-1.28,2.12-.25.74-.36,1.46-.42,2-.01.1-.02.19-.02.28-1.51.45-1.91,1.34-2.09,3.27-.03.34-.06.75-.08,1.19v.09c.01.44.05.85.08,1.19.25,2.71.94,3.39,4.56,3.64,1.93.14,7.14.22,8.37-.99,0,0,0,0,0,0h0s0,0,0,0h0c.6-.61.86-2.2.85-3.83h0v-.1c.01-1.63-.25-3.23-.86-3.83ZM4.9,4.11c.21-.61.51-1.18.94-1.59.42-.39.98-.66,1.78-.66.98,0,1.68.28,2.2.67.52.4.89.95,1.15,1.53.26.58.39,1.17.46,1.62,0,.01,0,.02,0,.04-2-.26-4.51-.2-5.72-.11-.42.03-.8.07-1.15.11.05-.46.14-1.03.34-1.6ZM13.01,13.5c-.86.82-5.71.7-7.16.62-.83-.05-2.23-.09-2.8-.53-.49-.38-.74-1.73-.75-3.1.02-1.37.26-2.72.75-3.1.57-.44,1.96-.48,2.8-.53,1.45-.09,6.3-.2,7.16.62.46.43.64,1.73.64,3.02,0,1.3-.18,2.59-.64,3.02Z"/>
  </g>
</svg>