<svg width="16" height="16" viewBox="0 0 16 16" fill="none" xmlns="http://www.w3.org/2000/svg">
<path d="M8 12.5C7.73881 12.5 7.51632 12.3945 7.32285 12.2026L0.270859 5.04478C0.0967352 4.88166 1.09045e-08 4.66098 0 4.41151C-2.26479e-08 3.89339 0.396614 3.5 0.909311 3.5C1.16082 3.5 1.39299 3.60554 1.55744 3.76866L8 10.3028L14.4329 3.76866C14.607 3.60554 14.8295 3.5 15.081 3.5C15.6034 3.5 16 3.89339 16 4.41151C16 4.66098 15.9033 4.88166 15.7291 5.04478L8.67715 12.2026C8.48368 12.3945 8.25151 12.5 8 12.5Z" fill="#222A35"/>
</svg>
