<svg width="16" height="16" viewBox="0 0 16 16" fill="none" xmlns="http://www.w3.org/2000/svg">
<path d="M5.3418 0.119263C7.55483 -0.0944233 13.545 -0.237746 14.9561 1.69543L14.9531 1.69739C16.3739 3.63813 16.3235 12.2986 14.9531 14.299C13.4335 16.5126 5.03991 16.2067 2.69238 15.3868C-0.336173 14.3308 -0.0875827 8.64601 0.0996094 5.87512C0.390003 1.58363 1.18029 0.521823 5.3418 0.119263ZM11.8438 3.53137C11.5111 3.30812 11.0666 3.40522 10.8496 3.74817L10.8359 3.76672C10.8182 3.79057 10.7863 3.83163 10.7402 3.88293C10.6475 3.98627 10.497 4.13343 10.2812 4.28333C9.85512 4.5793 9.15263 4.90242 8.0918 4.90247C7.13437 4.90236 6.42695 4.58473 5.96094 4.27454C5.72689 4.11867 5.55392 3.96401 5.44238 3.85266C5.38686 3.79722 5.346 3.75335 5.32227 3.72571C5.31058 3.71208 5.30253 3.70103 5.29883 3.69641V3.69836C5.05452 3.3746 4.60348 3.31622 4.29004 3.56848C3.97642 3.82125 3.92015 4.28948 4.16406 4.61438V4.61633L4.16797 4.62024C4.16963 4.62241 4.17162 4.6252 4.17383 4.62805C4.17833 4.63385 4.18464 4.6411 4.19141 4.64954C4.20513 4.66666 4.22409 4.68917 4.24707 4.71594C4.29332 4.76981 4.35815 4.84278 4.44238 4.92688C4.61073 5.09494 4.85821 5.31283 5.18359 5.52942C5.83739 5.96447 6.81013 6.39259 8.0918 6.3927C9.45714 6.39265 10.4359 5.971 11.083 5.52161C11.403 5.29934 11.6369 5.07364 11.7949 4.89758C11.874 4.80944 11.9356 4.73269 11.9785 4.67493C11.9997 4.64634 12.0164 4.62158 12.0293 4.60266C12.0355 4.59353 12.0416 4.58583 12.0459 4.57922C12.048 4.57593 12.0501 4.5721 12.0518 4.56946L12.0547 4.56555L12.0557 4.5636V4.56262C12.2719 4.21719 12.1773 3.75534 11.8438 3.53137Z" fill="#364153"/>
</svg>
