<svg width="12" height="12" viewBox="0 0 12 12" fill="none" xmlns="http://www.w3.org/2000/svg">
<path d="M7.74794 7.53657C7.32996 7.82392 7.07156 8.28647 7.07156 8.80508C7.07156 8.88918 7.07916 8.97328 7.09436 9.05388H4.87144C4.88664 8.96978 4.89424 8.88918 4.89424 8.80508C4.89424 7.89049 4.08866 7.14411 3.0931 7.14411C2.10133 7.14411 1.29196 7.89049 1.29196 8.80508C1.29196 8.88568 1.29576 8.96627 1.31096 9.04336H1.13236C0.398987 9.04336 0 8.58081 0 7.87297V3.18441C0 2.42751 0.459785 2 1.28056 2H6.46738C7.28816 2 7.74794 2.42751 7.74794 3.18441V7.53657ZM8.31032 3.94131H9.33629C9.77707 3.94131 10.0735 4.04293 10.3395 4.31625L11.6808 5.71792C11.9316 5.97372 12 6.16645 12 6.57293V7.87297C12 8.59834 11.582 9.05738 10.822 9.05738H10.651C10.6662 8.97328 10.6738 8.88918 10.6738 8.80508C10.6738 7.88699 9.85687 7.14411 8.8651 7.14411C8.66751 7.14411 8.47752 7.17915 8.31032 7.24223V3.94131ZM9.53008 6.38371H11.0044C10.9968 6.30311 10.9588 6.25055 10.9018 6.18747L9.81887 5.06264C9.68588 4.92247 9.57948 4.88743 9.39709 4.88743H9.1273V6.01226C9.1273 6.24004 9.28689 6.38371 9.53008 6.38371ZM8.8727 10C8.15833 10 7.57695 9.46386 7.57695 8.80508C7.57695 8.1463 8.15833 7.61016 8.8727 7.61016C9.58708 7.61016 10.1647 8.1463 10.1647 8.80508C10.1647 9.47438 9.58708 10 8.8727 10ZM3.0931 10C2.37872 10 1.80114 9.46386 1.80114 8.80508C1.80114 8.1463 2.37872 7.61367 3.0931 7.61367C3.80747 7.61367 4.38505 8.1463 4.38505 8.80508C4.38505 9.46036 3.80747 10 3.0931 10Z" fill="#2A2F35"/>
</svg>
