<svg width="16" height="16" viewBox="0 0 16 16" fill="none" xmlns="http://www.w3.org/2000/svg">
<path d="M6.4413 14.5C5.97166 14.5 5.62348 14.3369 5.30769 13.9719L1.35628 9.34349C1.09717 9.05615 1 8.79988 1 8.51255C1 7.86022 1.50202 7.3865 2.19838 7.3865C2.61134 7.3865 2.90283 7.52628 3.17004 7.84468L6.40891 11.7276L12.7571 2.09797C13.0486 1.66308 13.3401 1.5 13.8097 1.5C14.5061 1.5 15 1.96595 15 2.61051C15 2.85125 14.919 3.11529 14.7328 3.39486L7.583 13.9331C7.31579 14.3136 6.93522 14.5 6.4413 14.5Z" fill="#364153"/>
</svg>
