<?xml version="1.0" encoding="UTF-8"?>
<svg id="Layer_1" xmlns="http://www.w3.org/2000/svg" version="1.1" viewBox="0 0 16 16">
  <!-- Generator: Adobe Illustrator 30.1.0, SVG Export Plug-In . SVG Version: 2.1.1 Build 136)  -->
  <defs>
    <style>
      .st0 {
        fill: #353b42;
      }
    </style>
  </defs>
  <path class="st0" d="M4.77,7.99c.99,0,1.81-.85,1.81-1.93s-.83-1.88-1.81-1.88-1.81.84-1.81,1.89.82,1.92,1.81,1.92Z"/>
  <path class="st0" d="M10.68,7.88c1.14,0,2.08-.98,2.08-2.21s-.95-2.16-2.08-2.16-2.08.97-2.08,2.17.94,2.21,2.08,2.21Z"/>
  <path class="st0" d="M6.92,9.31c-.55-.33-1.28-.58-2.16-.58-2.25,0-3.77,1.61-3.77,2.91,0,.54.26.86,1,.86h3.74c-.56-.77-.03-2.26,1.18-3.19Z"/>
  <path class="st0" d="M10.68,8.74c-2.64,0-4.33,1.74-4.33,3,0,.48.3.76,1.18.76h6.28c.89,0,1.18-.28,1.18-.76,0-1.26-1.68-3-4.32-3Z"/>
</svg>