<?xml version="1.0" encoding="UTF-8"?>
<svg id="Layer_1" xmlns="http://www.w3.org/2000/svg" version="1.1" viewBox="0 0 16 16">
  <!-- Generator: Adobe Illustrator 30.1.0, SVG Export Plug-In . SVG Version: 2.1.1 Build 136)  -->
  <defs>
    <style>
      .st0 {
        fill: #364153;
      }
    </style>
  </defs>
  <path class="st0" d="M9.93,0c.18-.03.31.03.43.1.03.01.05.02.07.03.25.12.51.28.75.43.19.12.39.25.59.35L13.42.02c.17-.04.36,0,.51.12h0c.16.13.26.31.26.5v14.73c-.07.31-.2.49-.39.57-.4.16-.94-.21-1.42-.52-.22-.15-.43-.28-.58-.34-.09.03-.38.21-.62.36-.53.33-.89.55-1.07.57-.25.02-.69-.2-1.32-.54-.32-.17-.63-.34-.79-.39-.07,0-.48.23-.79.4-.48.27-.94.52-1.19.53-.25.02-.65-.23-1.2-.58-.22-.14-.43-.27-.57-.34l-1.65.9s-.09.02-.13.02c-.13,0-.26-.05-.37-.13-.17-.12-.26-.31-.26-.5V.64c-.03-.25.25-.57.48-.62.15-.03.24,0,.35.03.28.08.59.29.89.48.23.15.47.31.67.4.09-.03.36-.2.58-.34C5.34.26,5.75.01,5.95,0c.24,0,.64.2,1.23.53.3.16.61.33.79.39L9.93,0ZM6.01,1.3c-.18.06-.46.24-.73.4-.41.26-.79.5-1.04.51-.24,0-.51-.16-.78-.33-.13-.08-.28-.17-.4-.22v12.7c.12-.05.26-.14.4-.22.29-.17.58-.36.83-.33h.04s1.68.9,1.68.9c.19-.07.47-.22.77-.38.48-.26.93-.51,1.22-.51h.01c.29,0,.72.25,1.17.5.29.16.59.33.79.39.17-.06.44-.22.7-.39.44-.27.85-.53,1.11-.53h.02c.2.01.45.18.73.35.14.08.27.17.39.23V1.66c-.12.06-.25.14-.39.22-.29.17-.58.36-.85.33h-.04s-1.68-.9-1.68-.9c-.2.06-.5.23-.79.39-.48.26-.94.52-1.21.52-.23,0-.66-.25-1.12-.5-.32-.17-.65-.36-.84-.42ZM4.91,10.36l6.35.05h0c.28.14.42.39.37.66-.05.27-.3.47-.62.5l-6.26-.04-.03-.02c-.26-.15-.4-.38-.37-.62.03-.24.24-.44.52-.52h.03ZM11.27,7.46c.28.13.42.39.37.65-.05.27-.3.47-.62.5l-6.26-.04-.03-.02h0c-.26-.14-.4-.38-.37-.62.03-.25.24-.44.52-.52h.03l6.35.04ZM11.26,4.5h0c.28.15.42.4.37.66-.05.27-.3.47-.62.5l-6.26-.04-.03-.02c-.26-.15-.4-.39-.37-.63.03-.25.24-.44.52-.52h.03l6.35.04Z"/>
</svg>