<svg width="16" height="16" viewBox="0 0 16 16" fill="none" xmlns="http://www.w3.org/2000/svg">
<g clip-path="url(#clip0_1598_18606)">
<g clip-path="url(#clip1_1598_18606)">
<path d="M7.62658 0.453348C9.6177 0.373348 11.5377 0.800014 13.0044 1.68001L13.3066 1.86668C14.7733 2.84446 15.6177 4.23113 15.7421 5.88446C15.8044 6.79113 15.8577 7.84001 15.6088 8.8089L15.5555 8.99557C15.2266 10.1245 14.4888 10.9422 13.351 11.4933C13.1999 11.5733 13.031 11.6267 12.8888 11.68C12.5155 11.8133 12.311 11.8933 12.2133 12.1067C12.1866 12.1689 12.1599 12.2845 12.1599 12.4533C12.1599 12.6133 12.1599 12.7911 12.1688 12.9689C12.1688 13.0756 12.1688 13.1733 12.1688 13.2711C12.1688 13.3689 12.1688 13.4667 12.1688 13.5556C12.0977 14.3378 11.3955 14.9511 10.5333 15.04H10.5244H5.71547H5.70658C5.00436 14.96 4.43547 14.5956 4.18658 14.0267C4.0177 13.6445 4.04436 13.2267 4.06214 12.88V12.5067C4.06214 12.3911 4.06214 12.2933 4.03547 12.2045C3.99103 12.0356 3.90214 11.9022 3.6977 11.8045C3.56436 11.7333 3.42214 11.6889 3.26214 11.6267C3.04881 11.5556 2.80881 11.4667 2.55992 11.3245C1.42214 10.6578 0.879918 9.77779 0.631029 8.83557C0.38214 7.90224 0.444362 6.90668 0.488807 6.00001L0.515473 5.69779C0.675473 4.18668 1.46658 2.90668 2.79992 1.96446C4.06214 1.07557 5.76881 0.542237 7.62658 0.453348ZM12.3733 2.76446C10.4799 1.57335 7.51992 1.34224 5.03103 2.20446C4.07103 2.53335 3.27992 3.08446 2.71103 3.80446C2.15992 4.50668 1.83992 5.35113 1.79547 6.2489C1.74214 7.2089 1.73325 8.04446 1.96436 8.74668C2.18658 9.43113 2.63992 10.0089 3.5377 10.4445C3.68881 10.5067 3.82214 10.5689 3.95547 10.6133C4.39103 10.7822 4.87992 10.96 5.18214 11.5378L5.25325 11.6889C5.30658 11.84 5.34214 12 5.35103 12.16C5.36881 12.3645 5.35992 12.5867 5.35103 12.7822C5.35103 12.9778 5.35103 13.1467 5.35103 13.2889C5.35992 13.4311 5.38658 13.5289 5.42214 13.6089C5.4577 13.68 5.50214 13.7333 5.58214 13.7689C5.65325 13.8045 6.06206 13.8222 6.22206 13.84V12.6222C6.22206 12.5511 6.24873 12.4889 6.2665 12.4445C6.29317 12.4 6.31984 12.3556 6.3465 12.3289C6.37317 12.2933 6.39984 12.2667 6.41762 12.2489C6.4265 12.24 6.43539 12.2311 6.44428 12.2311L6.46206 12.2133C6.69317 12.0533 7.03984 12.0533 7.27095 12.2133V12.2222C7.27095 12.2222 7.28873 12.2311 7.29762 12.24C7.31539 12.2578 7.34206 12.2845 7.36873 12.32C7.39539 12.3467 7.42206 12.3911 7.44873 12.4356C7.47539 12.48 7.49317 12.5422 7.49317 12.6133V13.8222L8.53317 13.8311V12.64C8.53317 12.5778 8.55095 12.5333 8.56873 12.4978C8.5865 12.4622 8.60428 12.4267 8.62206 12.3911C8.63984 12.3645 8.65761 12.3378 8.6665 12.32C8.6665 12.3111 8.67539 12.3022 8.68428 12.2933V12.2845C8.80873 12.1511 8.96873 12.1067 9.11984 12.0978C9.2265 12.0978 9.34206 12.1156 9.43984 12.1511L9.52873 12.1956V12.2045C9.52873 12.2045 9.5465 12.2133 9.55539 12.2311C9.57317 12.2489 9.60873 12.2756 9.63539 12.3111C9.66206 12.3467 9.69761 12.3822 9.72428 12.4356C9.75095 12.48 9.77762 12.5511 9.77762 12.6222V13.8311C10.2813 13.8311 10.2133 13.84 10.2133 13.84C10.3644 13.8222 10.471 13.7956 10.5421 13.76C10.6133 13.7156 10.6577 13.6711 10.6933 13.6C10.7288 13.5289 10.7466 13.4222 10.7555 13.2889C10.7555 13.1556 10.7555 12.9956 10.7466 12.8089C10.7466 12.6489 10.7288 12.4356 10.7466 12.2578L10.7733 12.0711C10.8444 11.6445 11.031 11.3422 11.2888 11.12C11.5733 10.88 11.9288 10.7289 12.2399 10.6045C12.5244 10.4889 12.7999 10.3733 13.0488 10.2045C13.8133 9.67113 14.2666 8.90668 14.3288 8.09779C14.3733 7.49335 14.3733 6.56001 14.3021 5.94668C14.1421 4.63113 13.4399 3.53779 12.2399 2.79113L12.3733 2.76446Z" fill="#231F20"/>
<path d="M5.13747 4.15112C6.61303 4.15112 7.81302 5.35112 7.81302 6.82668C7.81302 8.30223 6.61303 9.50223 5.13747 9.50223C3.66191 9.50223 2.46191 8.30223 2.46191 6.82668C2.46191 5.35112 3.66191 4.15112 5.13747 4.15112ZM11.3152 4.15112C12.7908 4.15112 13.9908 5.35112 13.9908 6.82668C13.9908 8.30223 12.7908 9.50223 11.3152 9.50223C9.83969 9.50223 8.63969 8.30223 8.63969 6.82668C8.63969 5.35112 9.83969 4.15112 11.3152 4.15112ZM5.13747 5.44001C4.37303 5.44001 3.7508 6.06223 3.7508 6.82668C3.7508 7.59112 4.37303 8.21334 5.13747 8.21334C5.90191 8.21334 6.52414 7.59112 6.52414 6.82668C6.52414 6.06223 5.90191 5.44001 5.13747 5.44001ZM11.3241 5.44001C10.5597 5.44001 9.93747 6.06223 9.93747 6.82668C9.93747 7.59112 10.5597 8.21334 11.3241 8.21334C12.0886 8.21334 12.7108 7.59112 12.7108 6.82668C12.7108 6.06223 12.0886 5.44001 11.3241 5.44001Z" fill="#231F20"/>
</g>
</g>
<defs>
<clipPath id="clip0_1598_18606">
<rect width="16" height="16" fill="white"/>
</clipPath>
<clipPath id="clip1_1598_18606">
<rect width="15.3511" height="14.5956" fill="white" transform="translate(0.444336 0.444458)"/>
</clipPath>
</defs>
</svg>
