<svg width="16" height="16" viewBox="0 0 16 16" fill="none" xmlns="http://www.w3.org/2000/svg">
<path d="M12.5 8C12.5 7.73881 12.3945 7.51632 12.2026 7.32285L5.04478 0.270859C4.88166 0.0967352 4.66098 0 4.41151 0C3.89339 0 3.5 0.396614 3.5 0.909311C3.5 1.16082 3.60554 1.39299 3.76866 1.55744L10.3028 8L3.76866 14.4329C3.60554 14.607 3.5 14.8295 3.5 15.081C3.5 15.6034 3.89339 16 4.41151 16C4.66098 16 4.88166 15.9033 5.04478 15.7291L12.2026 8.67715C12.3945 8.48368 12.5 8.25151 12.5 8Z" fill="#222A35"/>
</svg>
