<svg width="16" height="16" viewBox="0 0 16 16" fill="none" xmlns="http://www.w3.org/2000/svg">
<path d="M14.7404 13.2178C16.7762 13.36 16.0205 14.7382 14.7404 14.7471C9.54895 14.7915 5.54864 14.8707 1.26388 14.7285C-0.567241 14.1596 -0.282404 13.4134 1.3088 13.209C3.08795 13.4045 12.7491 13.3423 14.7404 13.209V13.2178ZM8.00216 1.19043C8.20657 1.19046 8.40233 1.2615 8.59786 1.45703L11.3977 4.22168C11.5399 4.37279 11.6291 4.53286 11.6291 4.7373C11.629 5.14595 11.3002 5.43049 10.9182 5.43066C10.7137 5.43066 10.5173 5.35044 10.384 5.19043L9.16622 3.86621L8.70431 3.29688L8.78438 4.60352V10.5684C8.78438 10.995 8.42886 11.3592 7.99337 11.3594C7.56667 11.3594 7.21114 10.9951 7.21114 10.5684V4.60352L7.29122 3.29688L6.82833 3.86621L5.61056 5.19043C5.46954 5.3402 5.26745 5.42819 5.07345 5.42969C4.67545 5.42784 4.37535 5.14474 4.3752 4.7373C4.3752 4.52412 4.46372 4.37268 4.59688 4.22168L7.41524 1.45703C7.61082 1.26146 7.7977 1.19043 8.00216 1.19043ZM5.07735 5.43066H5.06856C5.07019 5.43066 5.07182 5.4297 5.07345 5.42969C5.07475 5.42969 5.07605 5.43066 5.07735 5.43066Z" fill="#222A35"/>
</svg>
