<svg width="16" height="16" viewBox="0 0 16 16" fill="none" xmlns="http://www.w3.org/2000/svg">
<g clip-path="url(#clip0_1521_18288)">
<path d="M12.8174 3.35053C11.9262 2.17656 5.41117 2.22179 3.80615 2.34721V1.8291C3.8701 1.75508 3.59572 1.41996 3.11297 1.51864C3.01395 1.5392 2.58897 1.73247 2.56834 1.8291C2.41568 2.55486 2.56834 13.2234 2.56834 14.237C2.56834 14.3089 3.00982 14.568 3.22231 14.4816C3.33165 14.4549 3.80615 14.2863 3.80615 14.237V10.6287C6.07753 10.8179 12.0871 10.6534 12.8174 9.62745C13.7127 8.37124 13.7458 4.57178 12.8174 3.35053ZM11.9489 8.37536C11.6374 9.317 10.5733 9.15709 9.69238 9.21877C9.16631 9.25577 4.9635 9.46914 3.80615 9.35606V3.62808C3.84947 3.62397 3.89486 3.62192 3.93405 3.61781C4.93255 3.53145 11.167 3.42043 11.7591 4.21815C12.3635 5.03438 12.2851 7.35764 11.9489 8.37536Z" fill="#364153"/>
</g>
<defs>
<clipPath id="clip0_1521_18288">
<rect width="11" height="13" fill="white" transform="translate(2.5 1.5)"/>
</clipPath>
</defs>
</svg>
