<svg width="16" height="16" viewBox="0 0 16 16" fill="none" xmlns="http://www.w3.org/2000/svg">
<path d="M8.62354 8.62695C8.91846 8.33203 9.39856 8.34046 9.68506 8.62695L12.4907 11.4326L13.3169 12.3594L13.2495 11.6689L13.1821 9.9668C13.1737 9.76473 13.2409 9.57913 13.3755 9.44434C13.6367 9.19154 14.0418 9.16627 14.3198 9.44434C14.4544 9.5791 14.5054 9.74776 14.5054 9.94141L14.4712 13.6738C14.4712 13.935 14.3873 14.121 14.2524 14.2559C14.1176 14.3906 13.9488 14.4658 13.6792 14.4658L9.93799 14.5C9.75261 14.4916 9.59198 14.4489 9.44873 14.3057C9.17115 14.0278 9.188 13.6322 9.44873 13.3711C9.57505 13.2448 9.77749 13.16 9.97119 13.1768L11.6733 13.2441L12.3647 13.3115L11.438 12.4863L8.63135 9.67969L8.62354 9.68848C8.34548 9.402 8.3371 8.91346 8.62354 8.62695ZM6.05322 1.5C6.24698 1.50002 6.4155 1.55075 6.55029 1.68555C6.83663 1.96357 6.81135 2.36772 6.55029 2.62891C6.41548 2.76372 6.22162 2.84008 6.02783 2.82324L4.32568 2.75586L3.63428 2.68848L4.56201 3.51367L7.36768 6.32031C7.65394 6.60684 7.66252 7.087 7.36768 7.38184C7.07283 7.6766 6.59265 7.66807 6.30615 7.38184L3.49951 4.5752L2.67432 3.64844L2.7417 4.33984L2.80908 6.04199C2.82566 6.2333 2.75124 6.42405 2.61963 6.55859C2.35838 6.81661 1.96487 6.83255 1.68799 6.55566C1.54497 6.42095 1.49468 6.26097 1.49463 6.06738L1.52783 2.32617C1.51941 2.065 1.60399 1.88774 1.73877 1.75293C1.87353 1.61817 2.05881 1.53426 2.31982 1.53418L6.05322 1.5ZM2.61475 6.56445C2.61644 6.56276 2.61795 6.56031 2.61963 6.55859C2.62075 6.55749 2.62242 6.55678 2.62354 6.55566L2.61475 6.56445Z" fill="#364153"/>
</svg>
