<svg width="19" height="18" viewBox="0 0 19 18" fill="none" xmlns="http://www.w3.org/2000/svg">
<path d="M17.421 1.90674C15.7772 -0.26821 8.79947 -0.106067 6.22197 0.134351C1.37447 0.587231 0.454731 1.78093 0.116468 6.60886C-0.101585 9.72591 -0.392322 16.1222 3.13567 17.3103C5.86973 18.2328 15.6486 18.5767 17.4182 16.0858C19.0144 13.8354 19.0732 4.09286 17.4182 1.90953L17.421 1.90674ZM16.4369 14.2631C15.8303 16.0942 13.4345 16.1417 11.7264 16.2619C9.89533 16.3933 3.70876 16.4632 2.63806 15.0123C1.46393 13.4244 1.42199 4.31371 2.76386 2.82368C3.51587 1.9906 5.38889 1.90673 6.50152 1.80889C8.43605 1.64116 14.9217 1.4259 16.0707 2.97743C17.2449 4.56252 17.0911 12.2811 16.4369 14.2603V14.2631Z" fill="#364153"/>
<path d="M12.6359 4.22031C12.8879 3.83166 13.4074 3.72035 13.7961 3.97226C14.1846 4.22422 14.295 4.7438 14.0432 5.13242L13.3391 4.67636C14.0314 5.12507 14.0432 5.13242 14.0432 5.13242L14.0422 5.13437L14.0412 5.13632L14.0383 5.14023C14.0363 5.14324 14.034 5.14715 14.0315 5.15097C14.0263 5.15856 14.0194 5.1677 14.0119 5.17831C13.9969 5.19968 13.9772 5.22706 13.9524 5.25937C13.9024 5.32435 13.8316 5.41021 13.7395 5.50937C13.5554 5.70751 13.2824 5.96127 12.9094 6.21152C12.1556 6.71709 11.0164 7.19193 9.42598 7.19199C7.93249 7.19199 6.79898 6.7099 6.03731 6.22031C5.65814 5.97656 5.37014 5.73167 5.17403 5.54257C5.07579 5.44784 5.00038 5.36589 4.94649 5.30527C4.91972 5.27515 4.89803 5.25031 4.88204 5.23105C4.87407 5.22145 4.86682 5.21322 4.86153 5.20664C4.85893 5.20339 4.85665 5.20031 4.85469 5.19785L4.85176 5.19394L4.85079 5.19296L4.84981 5.19101C4.56563 4.8254 4.63173 4.29857 4.99727 4.01425C5.36243 3.73042 5.88752 3.79638 6.17208 4.16074V4.15878C6.17639 4.16399 6.18581 4.17568 6.19942 4.19101C6.22707 4.22211 6.27423 4.27205 6.33907 4.33456C6.46905 4.45989 6.67074 4.63374 6.94356 4.80917C7.48648 5.1582 8.31045 5.51523 9.42598 5.51523C10.6617 5.51517 11.4794 5.15191 11.9758 4.81894C12.2276 4.65004 12.4029 4.48407 12.5109 4.36777C12.5649 4.30968 12.6017 4.26366 12.6223 4.23691L12.6389 4.21445L12.6379 4.21738L12.6359 4.22031Z" fill="#364153"/>
</svg>
