<svg width="24" height="24" viewBox="0 0 24 24" fill="none" xmlns="http://www.w3.org/2000/svg">
<path d="M12 0C18.63 0 24 5.37 24 12C24 18.63 18.63 24 12 24C5.37 24 0 18.63 0 12C0 5.37 5.37 0 12 0ZM16.7627 7.2373C16.4466 6.92137 15.9343 6.92143 15.6182 7.2373L12 10.8545L8.38281 7.2373C8.06662 6.92111 7.5535 6.92111 7.2373 7.2373C6.92111 7.5535 6.92111 8.06662 7.2373 8.38281L10.8545 12L7.2373 15.6182C6.92143 15.9343 6.92137 16.4466 7.2373 16.7627C7.5535 17.0789 8.06662 17.0789 8.38281 16.7627L12 13.1455L15.6182 16.7627C15.9344 17.0788 16.4465 17.0789 16.7627 16.7627C17.0789 16.4465 17.0788 15.9344 16.7627 15.6182L13.1455 12L16.7627 8.38281C17.0789 8.06662 17.0789 7.5535 16.7627 7.2373Z" fill="#222A35"/>
</svg>
