<svg width="16" height="16" viewBox="0 0 16 16" fill="none" xmlns="http://www.w3.org/2000/svg">
<path d="M13.7002 0C15.2099 6.99066e-05 16.0096 0.80991 16.0098 2.30957V10.2197C15.5799 9.72992 15.06 9.32028 14.4502 9.07031V2.46973C14.4501 1.86994 14.1499 1.57034 13.5801 1.57031H2.42969C1.85998 1.57042 1.55966 1.87002 1.55957 2.46973V11.3398L3.26953 9.7998C3.54953 9.5498 3.80012 9.42969 4.12012 9.42969C4.44005 9.42972 4.75033 9.54965 5.03027 9.80957L6.26953 10.9297L9.29004 8.20996C9.60997 7.93004 9.9399 7.80961 10.2998 7.80957C10.6597 7.80957 11.0196 7.94012 11.3096 8.20996L11.9805 8.83984C10.1006 9.23982 8.67988 10.8798 8.67969 12.8496C8.67969 14.1196 9.2802 15.25 10.2002 16H2.2998C0.809994 15.9999 7.03762e-05 15.2 0 13.7002V2.30957C0.000154651 0.809911 0.810071 7.07584e-05 2.2998 0H13.7002ZM12.8398 9.75C14.5697 9.75 15.9998 11.1498 16 12.8496C16 14.5496 14.5698 15.96 12.8398 15.96C11.11 15.9598 9.68066 14.5395 9.68066 12.8496C9.68088 11.1599 11.1001 9.75018 12.8398 9.75ZM12.8398 10.8604C12.5801 10.8605 12.4005 11.04 12.4004 11.2998V12.4102H11.2705C11.0006 12.4102 10.8205 12.5798 10.8203 12.8496C10.8203 13.1096 11.0105 13.29 11.2705 13.29H12.4004V14.4004C12.4006 14.6601 12.5702 14.8397 12.8398 14.8398C13.1097 14.8398 13.2899 14.6602 13.29 14.4004V13.29H14.4199C14.6799 13.29 14.8604 13.1096 14.8604 12.8496C14.8602 12.5898 14.6798 12.4102 14.4199 12.4102H13.29V11.2998C13.2899 11.0399 13.0998 10.8604 12.8398 10.8604ZM4.90039 3.0498C5.79011 3.05 6.53008 3.76998 6.53027 4.67969C6.53027 5.58956 5.80022 6.32987 4.90039 6.33008C4.00039 6.33008 3.27051 5.58969 3.27051 4.67969C3.27071 3.78985 4.01051 3.0498 4.90039 3.0498Z" fill="#222A35"/>
</svg>
