<svg width="16" height="16" viewBox="0 0 16 16" fill="none" xmlns="http://www.w3.org/2000/svg">
<g clip-path="url(#clip0_2946_33992)">
<path d="M2.58 15.5C0.88 15.5 0 14.61 0 12.89V3.11C0 1.39 0.88 0.5 2.58 0.5H13.41C15.11 0.5 15.99 1.39 15.99 3.11V12.89C15.99 14.6 15.11 15.5 13.41 15.5H2.58ZM2.56 13.93H13.43C14.09 13.93 14.46 13.58 14.46 12.88V5.46C14.46 4.75 14.09 4.41 13.43 4.41H2.56C1.91 4.41 1.54 4.76 1.54 5.46V12.88C1.54 13.58 1.9 13.93 2.56 13.93ZM6.48 7.18C6.2 7.18 6.11 7.09 6.11 6.8V6.33C6.11 6.04 6.2 5.95 6.48 5.95H6.94C7.22 5.95 7.32 6.04 7.32 6.33V6.8C7.32 7.09 7.23 7.18 6.94 7.18H6.48ZM9.06 7.18C8.78 7.18 8.68 7.09 8.68 6.8V6.33C8.68 6.04 8.77 5.95 9.06 5.95H9.52C9.8 5.95 9.9 6.04 9.9 6.33V6.8C9.9 7.09 9.81 7.18 9.52 7.18H9.06ZM11.64 7.18C11.36 7.18 11.26 7.09 11.26 6.8V6.33C11.26 6.04 11.35 5.95 11.64 5.95H12.1C12.38 5.95 12.48 6.04 12.48 6.33V6.8C12.48 7.09 12.39 7.18 12.1 7.18H11.64ZM3.91 9.77C3.63 9.77 3.54 9.68 3.54 9.39V8.92C3.54 8.63 3.63 8.54 3.91 8.54H4.37C4.65 8.54 4.75 8.63 4.75 8.92V9.39C4.75 9.68 4.66 9.77 4.37 9.77H3.91ZM6.48 9.77C6.2 9.77 6.11 9.68 6.11 9.39V8.92C6.11 8.63 6.2 8.54 6.48 8.54H6.94C7.22 8.54 7.32 8.63 7.32 8.92V9.39C7.32 9.68 7.23 9.77 6.94 9.77H6.48ZM9.06 9.77C8.78 9.77 8.68 9.68 8.68 9.39V8.92C8.68 8.63 8.77 8.54 9.06 8.54H9.52C9.8 8.54 9.9 8.63 9.9 8.92V9.39C9.9 9.68 9.81 9.77 9.52 9.77H9.06ZM11.64 9.77C11.36 9.77 11.26 9.68 11.26 9.39V8.92C11.26 8.63 11.35 8.54 11.64 8.54H12.1C12.38 8.54 12.48 8.63 12.48 8.92V9.39C12.48 9.68 12.39 9.77 12.1 9.77H11.64ZM3.91 12.36C3.63 12.36 3.54 12.27 3.54 11.98V11.51C3.54 11.22 3.63 11.13 3.91 11.13H4.37C4.65 11.13 4.75 11.22 4.75 11.51V11.98C4.75 12.27 4.66 12.36 4.37 12.36H3.91ZM6.48 12.36C6.2 12.36 6.11 12.27 6.11 11.98V11.51C6.11 11.22 6.2 11.13 6.48 11.13H6.94C7.22 11.13 7.32 11.22 7.32 11.51V11.98C7.32 12.27 7.23 12.36 6.94 12.36H6.48ZM9.06 12.36C8.78 12.36 8.68 12.27 8.68 11.98V11.51C8.68 11.22 8.77 11.13 9.06 11.13H9.52C9.8 11.13 9.9 11.22 9.9 11.51V11.98C9.9 12.27 9.81 12.36 9.52 12.36H9.06Z" fill="#222A35"/>
</g>
<defs>
<clipPath id="clip0_2946_33992">
<rect width="16" height="15" fill="white" transform="translate(0 0.5)"/>
</clipPath>
</defs>
</svg>
