<svg width="18" height="18" viewBox="0 0 18 18" fill="none" xmlns="http://www.w3.org/2000/svg">
<path fill-rule="evenodd" clip-rule="evenodd" d="M9 1.5C4.85786 1.5 1.5 4.85786 1.5 9C1.5 13.1421 4.85786 16.5 9 16.5C13.1421 16.5 16.5 13.1421 16.5 9C16.5 4.85786 13.1421 1.5 9 1.5ZM0 9C0 4.02944 4.02944 0 9 0C13.9706 0 18 4.02944 18 9C18 13.9706 13.9706 18 9 18C4.02944 18 0 13.9706 0 9Z" fill="#222A35"/>
<path fill-rule="evenodd" clip-rule="evenodd" d="M9 4.5C9.41421 4.5 9.75 4.83579 9.75 5.25V8.25H12.75C13.1642 8.25 13.5 8.58579 13.5 9C13.5 9.41421 13.1642 9.75 12.75 9.75H9.75V12.75C9.75 13.1642 9.41421 13.5 9 13.5C8.58579 13.5 8.25 13.1642 8.25 12.75V9.75H5.25C4.83579 9.75 4.5 9.41421 4.5 9C4.5 8.58579 4.83579 8.25 5.25 8.25H8.25V5.25C8.25 4.83579 8.58579 4.5 9 4.5Z" fill="#222A35"/>
</svg>
