<svg width="16" height="16" viewBox="0 0 16 16" fill="none" xmlns="http://www.w3.org/2000/svg">
<path d="M9.71533 0.5C10.0807 0.500514 10.3341 1.09067 10.4653 1.20312L11.1118 2.10352C11.159 2.22519 11.3744 2.30957 11.4868 2.30957C13.0711 2.32832 14.3366 2.36602 14.8335 2.47852C15.846 2.69414 15.5647 3.94043 14.8804 3.94043H14.646L13.2397 14.7217C13.1554 15.0123 13.1646 15.284 12.9771 15.3965C12.9021 15.4715 12.4708 15.5 12.2271 15.5H3.2085C3.09612 15.4999 3.00261 15.3875 2.93701 15.2471C2.7871 15.0878 1.41023 3.93435 1.40869 3.92188H1.146C0.321137 3.92175 0.27427 2.45911 1.09912 2.45898C1.72725 2.45898 2.84307 2.44023 4.17432 2.41211C4.28685 2.41206 4.53035 2.30933 4.56787 2.1875L5.16846 1.21289C5.36528 0.78176 5.58036 0.500156 5.9458 0.5H9.71533ZM3.04932 3.90332C2.88061 3.91269 2.76834 4.08111 2.79639 4.26855C3.17139 6.8373 3.46201 11.5533 3.92139 14.0752C3.93079 14.1315 3.95871 14.2439 4.0708 14.2441H12.106C12.2648 14.2346 12.2368 14.1123 12.2368 14.1123L12.2466 14.0938L13.3521 4.19336C13.3332 4.02503 13.2213 3.90362 13.0903 3.90332H3.04932ZM11.7212 5.4502C11.8617 5.45033 11.9743 5.56298 11.9556 5.71289C11.7024 7.59734 11.2991 11.0568 11.0366 13.0254C11.0177 13.1565 10.9142 13.25 10.7925 13.25C10.5963 13.25 10.8111 13.25 10.6245 13.25C10.3995 13.2406 10.2862 13.109 10.3237 12.8652L10.7925 5.68457C10.7925 5.55344 10.9051 5.44063 11.0269 5.44043H11.7212V5.4502ZM5.22412 5.44043C5.35537 5.44043 5.4585 5.55332 5.4585 5.68457V5.6748L5.90869 12.8564C5.94609 13.1 5.83364 13.2401 5.60889 13.2402C5.41204 13.2402 5.62729 13.2402 5.43994 13.2402C5.30869 13.2402 5.21455 13.1375 5.1958 13.0156C4.9333 11.0563 4.53095 7.59687 4.27783 5.70312C4.26846 5.5625 4.37158 5.44043 4.51221 5.44043H5.22412ZM8.42041 5.43164C8.55159 5.43164 8.65468 5.54364 8.65479 5.6748L8.52393 12.8564C8.50517 13.1843 8.44891 13.2402 8.22412 13.2402C8.02725 13.2402 8.24266 13.2402 8.05518 13.2402C7.92393 13.2402 7.82979 13.1375 7.81104 13.0156C7.67041 10.8406 7.72724 7.59687 7.47412 5.70312C7.46475 5.5625 7.56787 5.44043 7.7085 5.44043H8.42041V5.43164ZM9.25537 1.77539H6.5083C6.34902 1.77549 6.18094 1.85046 6.15283 1.96289L6.14307 1.97168C6.0962 2.18726 6.21793 2.38469 6.396 2.38477C7.59589 2.35664 8.03665 2.38476 9.22705 2.38477C9.41455 2.38477 9.63975 2.09336 9.5835 1.89648C9.56416 1.83095 9.38636 1.75586 9.25537 1.75586V1.77539Z" fill="#222A35"/>
</svg>
