<svg width="16" height="16" viewBox="0 0 16 16" fill="none" xmlns="http://www.w3.org/2000/svg">
<path d="M14.9532 1.70055C13.5487 -0.236832 7.55748 -0.0946387 5.34409 0.118651C1.18399 0.527456 0.392863 1.58502 0.0995229 5.87747C-0.0871483 8.65023 -0.336043 14.3291 2.69514 15.3866C5.04186 16.2042 13.4332 16.5153 14.9532 14.3024C16.3221 12.3028 16.3755 3.64681 14.9532 1.70055ZM1.62845 5.442C1.62845 5.442 1.69956 5.53087 1.74401 5.56642C2.17068 6.00189 2.8107 6.42847 3.64628 6.42847C4.53519 6.42847 5.1752 6.00189 5.60188 5.55753C5.69966 5.45978 5.77966 5.35313 5.85077 5.26426C5.93077 5.36202 6.01967 5.46866 6.11745 5.56642C6.54412 6.00189 7.18414 6.42847 8.01971 6.42847C8.90862 6.42847 9.54864 6.00189 9.97532 5.55753C10.0731 5.45089 10.162 5.34424 10.2331 5.24649C10.3131 5.35313 10.4109 5.45978 10.5176 5.56642C10.9442 6.00189 11.5842 6.42847 12.4198 6.42847C13.3087 6.42847 13.9487 6.00189 14.3754 5.55753C14.4021 5.53087 14.4288 5.49532 14.4554 5.46866C14.571 6.83727 14.5799 8.44583 14.4999 9.83221H1.56622C1.47733 8.41028 1.49511 6.80172 1.62845 5.442Z" fill="#364153"/>
<path d="M14.9532 1.70055C13.5487 -0.236832 7.55748 -0.0946387 5.34409 0.118651C1.18399 0.527456 0.392863 1.58502 0.0995229 5.87747C-0.0871483 8.65023 -0.336043 14.3291 2.69514 15.3866C5.04186 16.2042 13.4332 16.5153 14.9532 14.3024C16.3221 12.3028 16.3755 3.64681 14.9532 1.70055ZM1.62845 5.442C1.62845 5.442 1.69956 5.53087 1.74401 5.56642C2.17068 6.00189 2.8107 6.42847 3.64628 6.42847C4.53519 6.42847 5.1752 6.00189 5.60188 5.55753C5.69966 5.45978 5.77966 5.35313 5.85077 5.26426C5.93077 5.36202 6.01967 5.46866 6.11745 5.56642C6.54412 6.00189 7.18414 6.42847 8.01971 6.42847C8.90862 6.42847 9.54864 6.00189 9.97532 5.55753C10.0731 5.45089 10.162 5.34424 10.2331 5.24649C10.3131 5.35313 10.4109 5.45978 10.5176 5.56642C10.9442 6.00189 11.5842 6.42847 12.4198 6.42847C13.3087 6.42847 13.9487 6.00189 14.3754 5.55753C14.4021 5.53087 14.4288 5.49532 14.4554 5.46866C14.571 6.83727 14.5799 8.44583 14.4999 9.83221H1.56622C1.47733 8.41028 1.49511 6.80172 1.62845 5.442Z" fill="black" fill-opacity="0.2"/>
<path d="M14.9532 1.70055C13.5487 -0.236832 7.55748 -0.0946387 5.34409 0.118651C1.18399 0.527456 0.392863 1.58502 0.0995229 5.87747C-0.0871483 8.65023 -0.336043 14.3291 2.69514 15.3866C5.04186 16.2042 13.4332 16.5153 14.9532 14.3024C16.3221 12.3028 16.3755 3.64681 14.9532 1.70055ZM1.62845 5.442C1.62845 5.442 1.69956 5.53087 1.74401 5.56642C2.17068 6.00189 2.8107 6.42847 3.64628 6.42847C4.53519 6.42847 5.1752 6.00189 5.60188 5.55753C5.69966 5.45978 5.77966 5.35313 5.85077 5.26426C5.93077 5.36202 6.01967 5.46866 6.11745 5.56642C6.54412 6.00189 7.18414 6.42847 8.01971 6.42847C8.90862 6.42847 9.54864 6.00189 9.97532 5.55753C10.0731 5.45089 10.162 5.34424 10.2331 5.24649C10.3131 5.35313 10.4109 5.45978 10.5176 5.56642C10.9442 6.00189 11.5842 6.42847 12.4198 6.42847C13.3087 6.42847 13.9487 6.00189 14.3754 5.55753C14.4021 5.53087 14.4288 5.49532 14.4554 5.46866C14.571 6.83727 14.5799 8.44583 14.4999 9.83221H1.56622C1.47733 8.41028 1.49511 6.80172 1.62845 5.442Z" fill="black" fill-opacity="0.2"/>
</svg>
