<svg width="18" height="18" viewBox="0 0 18 18" fill="none" xmlns="http://www.w3.org/2000/svg">
<g clip-path="url(#clip0_786_6439)">
<path d="M9 0.950195C9.52467 0.950195 9.9502 1.37572 9.9502 1.90039V8.0498H16.1006C16.6249 8.05017 17.0508 8.47556 17.0508 9C17.0508 9.52444 16.6249 9.94983 16.1006 9.9502H9.9502V16.1006C9.94989 16.625 9.52448 17.0508 9 17.0508C8.47552 17.0508 8.05011 16.625 8.0498 16.1006V9.9502H1.90039C1.37572 9.9502 0.950195 9.52467 0.950195 9C0.950195 8.47533 1.37572 8.0498 1.90039 8.0498H8.0498V1.90039C8.0498 1.37572 8.47533 0.950195 9 0.950195Z" fill="#364153"/>
</g>
<defs>
<clipPath id="clip0_786_6439">
<rect width="16" height="16" fill="white" transform="translate(1 1)"/>
</clipPath>
</defs>
</svg>
