<?xml version="1.0" encoding="UTF-8"?>
<svg id="Layer_1" xmlns="http://www.w3.org/2000/svg" version="1.1" viewBox="0 0 18 18">
  <!-- Generator: Adobe Illustrator 30.1.0, SVG Export Plug-In . SVG Version: 2.1.1 Build 136)  -->
  <defs>
    <style>
      .st0 {
        fill: #364153;
      }
    </style>
  </defs>
  <path class="st0" d="M17.45,16.57l-3.44-3.44c1.28-1.39,2.06-3.25,2.06-5.29,0-4.33-3.51-7.84-7.84-7.84S.4,3.51.4,7.84s3.51,7.84,7.84,7.84c1.63,0,3.15-.5,4.41-1.36,0,0,0,0,0,.01.89,1.38,1.82,1.82,3.52,3.52l.06.05c.6.45,1.79-.77,1.23-1.33ZM2.04,7.84c0-3.42,2.78-6.2,6.2-6.2s6.2,2.78,6.2,6.2c0,3.42-2.78,6.2-6.2,6.2s-6.2-2.78-6.2-6.2Z"/>
  <path class="st0" d="M11,5.44c-.51-.61-1.17-1.06-1.91-1.32-.41-.14-.81.16-.88.58-.07.43.23.81.62,1l.14.07c.31.17.59.4.83.67.26.32.45.69.55,1.08.11.42.44.78.87.79.4.01.75-.29.74-.68v-.08c-.13-.77-.45-1.51-.96-2.12Z"/>
</svg>