<?xml version="1.0" encoding="UTF-8"?>
<svg id="Layer_1" xmlns="http://www.w3.org/2000/svg" version="1.1" viewBox="0 0 16 16">
  <!-- Generator: Adobe Illustrator 30.1.0, SVG Export Plug-In . SVG Version: 2.1.1 Build 136)  -->
  <defs>
    <style>
      .st0 {
        fill: #364153;
      }
    </style>
  </defs>
  <path class="st0" d="M8,0C3.58,0,0,3.58,0,8c0,4.42,3.58,8,8,8s8-3.58,8-8S12.42,0,8,0ZM1.45,8c0-1.52.52-2.91,1.39-4.03.02.03.03.07.06.09l9.05,9.14c-1.1.84-2.47,1.34-3.95,1.34-3.62,0-6.55-2.93-6.55-6.55ZM13.13,12.07s0,0,0-.01L4.06,2.91s-.06-.04-.09-.06c1.11-.87,2.51-1.4,4.03-1.4,3.62,0,6.55,2.93,6.55,6.55,0,1.54-.53,2.95-1.42,4.07Z"/>
</svg>