<svg width="16" height="16" viewBox="0 0 16 16" fill="none" xmlns="http://www.w3.org/2000/svg">
<path d="M14.9517 13.1703C16.3248 11.1884 16.3739 6.12769 14.9517 4.2041C14.3414 3.37478 12.5727 2.93495 10.9074 2.71239C10.7316 2.31495 10.5325 1.96256 10.3411 1.68171C9.05598 -0.236585 6.88388 -0.093508 4.85917 0.118458C1.05541 0.515894 0.333957 1.56777 0.0676156 5.82299C0.0184847 6.61256 -0.0358178 8.73752 0.0314139 9.41316C0.0495147 10.6346 0.258967 11.6944 0.812336 12.537C0.693388 12.8338 0.626156 13.157 0.626156 13.4962C0.626156 14.8766 1.72255 16 3.06977 16C3.98516 16 4.78418 15.4807 5.20309 14.715C6.76493 14.8739 8.68104 14.9137 10.4187 14.7521C10.8428 15.4966 11.6289 16 12.5288 16C13.876 16 14.9724 14.8766 14.9724 13.4962C14.9724 13.3849 14.962 13.2762 14.9491 13.1703H14.9517ZM13.7932 5.1447C14.388 5.96872 14.5845 7.44718 14.5328 8.87795C13.9794 8.92034 12.8132 8.49939 11.3936 8.52323C11.5074 7.01562 11.4401 6.02436 11.3936 4.20675C12.5158 4.37102 13.4416 4.65983 13.7932 5.14205V5.1447ZM2.14663 2.48718C2.7362 1.75324 4.20754 1.67906 5.07897 1.59427C6.59685 1.44589 8.38366 1.25777 9.28612 2.62495C9.57832 3.06743 9.674 3.62914 9.77743 4.33923C9.88345 5.35931 9.92741 7.57998 9.78519 8.54973C6.47532 8.58152 2.58881 8.55768 1.53896 8.4199C1.48465 8.42785 1.43294 8.43845 1.38122 8.44904C1.17694 6.40357 1.43552 3.37478 2.14404 2.49248L2.14663 2.48718ZM3.07236 14.6752C2.43883 14.6752 1.92166 14.1453 1.92166 13.4962C1.92166 12.847 2.43883 12.3171 3.07236 12.3171C3.70589 12.3171 4.22305 12.847 4.22305 13.4962C4.22305 14.1453 3.70589 14.6752 3.07236 14.6752ZM5.50304 13.2603C5.38668 11.9912 4.342 10.9923 3.06977 10.9923C2.64311 10.9923 2.2423 11.1062 1.89322 11.3023C1.81305 11.0744 1.59843 10.1388 1.53896 9.86856C3.60533 9.94068 8.5476 9.82933 10.6654 9.82022C11.2648 9.81764 13.682 10.1447 14.3466 10.5684C14.2794 10.9314 14.1992 11.2679 14.1035 11.562C14.1035 11.562 14.0984 11.5752 14.0958 11.5805C13.6717 11.2149 13.1235 10.9923 12.5262 10.9923C11.2358 10.9923 10.1782 12.023 10.0903 13.3213C10.0774 13.3213 10.0645 13.3213 10.0515 13.3239C9.20079 13.3875 7.25365 13.4326 5.49787 13.2603H5.50304ZM12.5313 14.6752C11.8978 14.6752 11.3806 14.1453 11.3806 13.4962C11.3806 12.847 11.8978 12.3171 12.5313 12.3171C13.1649 12.3171 13.682 12.847 13.682 13.4962C13.682 14.1453 13.1649 14.6752 12.5313 14.6752Z" fill="#364153"/>
</svg>
