<svg width="16" height="16" viewBox="0 0 16 16" fill="none" xmlns="http://www.w3.org/2000/svg">
<path d="M1.70338 5.03007C1.31111 5.03007 1 4.67642 1 4.26504C1 3.84643 1.31111 3.5 1.70338 3.5H14.2966C14.6889 3.5 15 3.84643 15 4.26504C15 4.68364 14.6889 5.03007 14.2966 5.03007H1.70338ZM3.08309 8.76865C2.69758 8.76865 2.37971 8.415 2.37971 8.00361C2.37971 7.585 2.69082 7.23857 3.08309 7.23857H12.9372C13.3295 7.23857 13.6406 7.57779 13.6406 8.00361C13.6406 8.415 13.3295 8.76865 12.9372 8.76865H3.08309ZM4.44251 12.5C4.057 12.5 3.73913 12.1464 3.73913 11.7422C3.73913 11.3236 4.05024 10.9771 4.44251 10.9771H11.5778C11.97 10.9771 12.2812 11.3164 12.2812 11.7422C12.2812 12.1536 11.97 12.5 11.5778 12.5H4.44251Z" fill="#222A35"/>
</svg>
