<svg preserveAspectRatio="none" width="100%" height="100%" overflow="visible" style="display: block;" viewBox="0 0 289.086 144.565" fill="none" xmlns="http://www.w3.org/2000/svg">
<g id="Group 123415">
<circle id="Ellipse 27" cx="98.868" cy="15.825" r="2" transform="rotate(-40.3588 98.868 15.825)" fill="var(--fill-0, #D9D9D9)"/>
<circle id="Ellipse 36" cx="209.782" cy="141.782" r="2" transform="rotate(124.641 209.782 141.782)" fill="var(--fill-0, #D9D9D9)"/>
<g id="Group 123411">
<path id="Vector 6" d="M50.1405 104.704L54.9872 100.426" stroke="var(--stroke-0, #D9D9D9)" stroke-width="4.16994" stroke-linecap="round"/>
<path id="Vector 7" d="M54.7031 104.985L50.4253 100.138" stroke="var(--stroke-0, #D9D9D9)" stroke-width="4.16994" stroke-linecap="round"/>
</g>
<g id="Group 123412">
<path id="Vector 6_2" d="M230.299 85.9946L226.724 91.3811" stroke="var(--stroke-0, #D9D9D9)" stroke-width="4.16994" stroke-linecap="round"/>
<path id="Vector 7_2" d="M225.818 86.9028L231.205 90.4772" stroke="var(--stroke-0, #D9D9D9)" stroke-width="4.16994" stroke-linecap="round"/>
</g>
<circle id="Ellipse 33" cx="64.5239" cy="13.5248" r="2.5" transform="rotate(-40.3588 64.5239 13.5248)" fill="var(--fill-0, #D9D9D9)"/>
<circle id="Ellipse 37" cx="236.231" cy="136.699" r="2.5" transform="rotate(124.641 236.231 136.699)" fill="var(--fill-0, #D9D9D9)"/>
<circle id="Ellipse 29" cx="21.5239" cy="140.525" r="2.5" transform="rotate(-40.3588 21.5239 140.525)" fill="var(--fill-0, #D9D9D9)"/>
<circle id="Ellipse 38" cx="224.563" cy="37.478" r="2.5" transform="rotate(124.641 224.563 37.478)" fill="var(--fill-0, #D9D9D9)"/>
<circle id="Ellipse 39" cx="263.477" cy="88.478" r="2.5" transform="rotate(124.641 263.477 88.478)" fill="var(--fill-0, #D9D9D9)"/>
<g id="Group 123351">
<path id="Vector 6_3" d="M62.2207 42.729L67.6728 43.1716" stroke="var(--stroke-0, #D9D9D9)" stroke-width="4.16994" stroke-linecap="round"/>
<path id="Vector 7_3" d="M64.7285 45.6743L65.1711 40.2222" stroke="var(--stroke-0, #D9D9D9)" stroke-width="4.16994" stroke-linecap="round"/>
</g>
<g id="Group 123413">
<path id="Vector 6_4" d="M245.08 115.329L239.699 116.312" stroke="var(--stroke-0, #D9D9D9)" stroke-width="4.16994" stroke-linecap="round"/>
<path id="Vector 7_4" d="M241.895 113.133L242.878 118.514" stroke="var(--stroke-0, #D9D9D9)" stroke-width="4.16994" stroke-linecap="round"/>
</g>
<circle id="Ellipse 30" cx="25.2625" cy="31.1317" r="2" transform="rotate(-40.3588 25.2625 31.1317)" fill="var(--fill-0, #D9D9D9)"/>
<circle id="Ellipse 40" cx="260.782" cy="21.7825" r="2" transform="rotate(124.641 260.782 21.7825)" fill="var(--fill-0, #D9D9D9)"/>
<circle id="Ellipse 32" cx="2.81915" cy="107.819" r="2" transform="rotate(-40.3588 2.81915 107.819)" fill="var(--fill-0, #D9D9D9)"/>
<circle id="Ellipse 41" cx="257.782" cy="57.7825" r="2" transform="rotate(124.641 257.782 57.7825)" fill="var(--fill-0, #D9D9D9)"/>
<circle id="Ellipse 28" cx="160.819" cy="2.81915" r="2" transform="rotate(-40.3588 160.819 2.81915)" fill="var(--fill-0, #D9D9D9)"/>
<circle id="Ellipse 42" cx="261.323" cy="120.611" r="2" transform="rotate(124.641 261.323 120.611)" fill="var(--fill-0, #D9D9D9)"/>
<circle id="Ellipse 35" cx="2.81915" cy="16.8192" r="2" transform="rotate(-40.3588 2.81915 16.8192)" fill="var(--fill-0, #D9D9D9)"/>
<circle id="Ellipse 43" cx="286.304" cy="119.638" r="2" transform="rotate(124.641 286.304 119.638)" fill="var(--fill-0, #D9D9D9)"/>
<g id="Group 123410">
<path id="Vector 6_5" d="M6.25977 71.2231L12.7031 71.7462" stroke="var(--stroke-0, #D9D9D9)" stroke-width="4.16994" stroke-linecap="round"/>
<path id="Vector 7_5" d="M9.2207 74.7055L9.74379 68.2622" stroke="var(--stroke-0, #D9D9D9)" stroke-width="4.16994" stroke-linecap="round"/>
</g>
<g id="Group 123414">
<path id="Vector 6_6" d="M284.949 70.5044L278.59 71.6668" stroke="var(--stroke-0, #D9D9D9)" stroke-width="4.16994" stroke-linecap="round"/>
<path id="Vector 7_6" d="M281.188 67.9067L282.35 74.2659" stroke="var(--stroke-0, #D9D9D9)" stroke-width="4.16994" stroke-linecap="round"/>
</g>
</g>
</svg>
